<?xml version="1.0" encoding="UTF-8" standalone="no"?>
<!-- Created with Inkscape (http://www.inkscape.org/) -->

<svg
   width="403.0705mm"
   height="537.33099mm"
   viewBox="0 0 403.07049 537.33098"
   version="1.1"
   id="svg1"
   xml:space="preserve"
   xmlns="http://www.w3.org/2000/svg"
   xmlns:svg="http://www.w3.org/2000/svg"><defs
     id="defs1" /><g
     id="layer1"
     transform="matrix(0.99999748,0,0,1.0078773,2.6577198,0.13333358)"><rect
       style="fill:#edcb89;fill-opacity:1;fill-rule:evenodd;stroke:#000000;stroke-width:0.264583;stroke-opacity:1"
       id="rect4"
       width="402.80692"
       height="532.86682"
       x="-2.525435"
       y="1.2313132e-08" /><path
       style="fill:#000000;fill-opacity:0.494231;stroke-width:0.141741"
       d="m 28.674695,98.634718 c -1.58935,-1.225059 -2.589035,-5.097278 -0.283159,-1.87432 0.478848,0.447666 2.243664,2.181805 0.283159,1.87432 z m 3.444319,-0.396874 c -2.983307,-1.605852 -4.480815,-5.040316 -5.72714,-8.014215 -1.169046,-3.819494 -0.939779,-7.750048 -1.97238,-11.613182 -0.830972,-1.266138 -0.186623,-6.748222 1.059406,-5.227715 -0.955219,4.776224 0.989469,9.473768 1.364505,14.211565 1.035668,3.33164 2.235995,6.741874 4.789209,9.257285 0.670677,0.522382 2.152179,2.882672 0.4864,1.386262 z m 6.371806,-0.178602 c -0.547852,-1.601223 1.009828,-0.08275 0,0 z m -5.485921,-1.679133 c -2.735902,-2.806187 -4.102587,-6.734673 -5.151338,-10.413987 -0.773314,-3.756981 -1.688533,-7.501845 -1.392575,-11.356375 0.144754,-3.219027 1.020934,-7.384685 3.410196,-9.3664 -0.937134,3.228562 -3.066321,7.092232 -2.600996,10.938646 0.173854,3.486429 0.688272,6.758475 1.787398,10.117645 1.050688,3.421441 2.405232,6.802104 4.577984,9.679579 2.99776,0.883492 0.266458,2.747891 -0.630669,0.400892 z m 4.287681,1.007286 c -2.901664,-1.659407 3.007835,-0.591602 0,0 z m 2.725983,-0.56697 c -3.710056,-1.957779 -4.803819,-6.42286 -6.514398,-9.797667 1.30862,-3.510268 3.689094,4.258749 4.143492,5.957505 0.470142,2.014753 3.611002,3.449443 4.130463,4.129685 -0.586884,0.08224 -1.260669,0.08407 -1.759557,-0.289523 z m 4.438018,-0.415426 c 0.09185,-0.784829 0.751444,0.472105 0,0 z M 34.91841,95.599802 c -2.354652,-2.728713 -3.271871,-6.261781 -4.406304,-9.531701 -0.546668,-3.351043 1.933339,-0.968976 1.494282,0.973643 0.412026,3.087953 3.983949,6.112793 3.27926,8.824126 -0.122412,-0.08869 -0.244826,-0.177375 -0.367238,-0.266068 z m 7.793242,0.0867 c -1.793989,-0.471243 -5.864503,-4.14018 -3.891491,-4.705516 0.434581,1.914714 4.370284,3.118446 3.891491,4.705516 z m 3.864998,0 c -3.375502,-1.02782 -5.405842,-4.242303 -8.066711,-6.307446 2.633139,-0.150054 5.126525,3.94197 7.900734,5.297958 0.416773,0.295807 1.445424,1.912512 0.165977,1.009488 z M 25.688824,94.549445 c -1.541738,-4.571661 3.566358,1.514281 0,0 z m 22.626701,-0.422107 c -1.709014,-0.42366 -6.323,-3.603574 -4.228031,-4.098822 1.729831,1.181538 4.592039,3.388066 5.315105,4.355157 -0.368077,0.09226 -0.826499,0.06129 -1.087074,-0.256335 z m -24.694949,0.0098 c 0.212026,-0.841048 0.809817,0.631094 0,0 z m -0.962809,-0.979836 c -1.889005,-2.83517 -2.331394,-6.376274 -1.878997,-9.628986 -0.273533,-3.144048 1.344392,-5.987071 1.300586,-9.134081 1.118513,-3.266877 1.144847,-6.900949 2.985713,-9.940896 1.044866,-1.870088 2.620446,-4.04562 4.848063,-3.767686 -0.388919,-2.422347 2.045814,-0.265088 3.04117,-2.550141 3.545906,-2.173898 7.66008,-3.047592 11.700307,-3.785177 5.761365,1.360596 9.998782,5.771081 13.334155,10.409905 2.703478,2.791814 4.129082,6.570969 6.96399,9.243779 1.160409,1.592272 0.0839,4.091628 -1.012771,1.200835 -1.975175,-2.820063 -4.845391,-5.15002 -6.151968,-8.314806 C 55.779508,63.58454 53.36637,60.817063 50.564854,58.20646 47.328793,55.977877 43.059062,54.644437 39.276961,56.424096 34.630789,57.60768 30.53056,60.543361 28.176499,64.74782 c -2.236773,0.993711 2.889269,-5.179082 -0.715543,-2.114181 -2.527083,2.575213 -2.767833,6.452436 -3.901099,9.713131 -0.4013,3.831334 -1.698333,7.17103 -1.827975,10.93143 -0.158641,3.491368 0.759386,7.027624 1.904794,10.197402 l -0.302507,0.03354 -0.676332,-0.351842 z m 28.92329,0.411848 c -3.31026,-1.670111 -6.135001,-4.167121 -8.61882,-6.823259 -1.617274,-1.889305 1.217193,-4.592453 1.625804,-1.378451 1.633697,3.82625 6.035321,4.953551 8.13239,8.193942 l -0.311974,0.114488 z m 3.388476,-0.94721 c -0.729624,-2.422572 2.542208,0.300204 0,0 z M 25.339045,91.481506 c -0.313325,-0.906694 0.896716,0.303146 0,0 z m 26.482041,-0.973455 c -2.998144,-1.773337 -5.483887,-4.253531 -6.883233,-7.452672 -2.03552,-3.791985 -3.290926,-8.296612 -3.190643,-12.705164 1.525598,-1.130596 1.044272,3.804484 1.897258,4.79378 0.323173,3.641599 2.128516,5.807151 3.326711,9.222999 1.955414,2.187741 5.0384,4.953605 7.504884,6.897237 -0.78477,0.995869 -2.09264,0.01366 -2.654977,-0.75618 z M 23.933441,90.6035 c -1.331323,-3.368331 -0.58185,-7.093518 -0.818391,-10.615631 1.569533,-0.570468 0.243199,4.683808 1.284026,6.357953 -0.349266,0.982846 2.276298,6.104307 -0.465635,4.257678 z m 32.635986,0.141054 c -2.93972,-1.90356 -5.668338,-3.892754 -7.55067,-6.549037 -1.792636,-3.238018 -3.768132,-6.620802 -4.432803,-10.304192 2.816112,-0.593493 1.560766,5.638657 4.348827,6.426969 0.821675,3.895946 4.589829,7.549877 8.298505,9.347955 1.369435,0.790063 0.816083,1.870559 -0.663859,1.078305 z M 42.256,89.73797 c -2.530055,-1.139752 -5.246744,-6.439456 -3.069175,-8.008097 1.629927,2.238822 1.004021,5.627434 3.871489,7.211664 -0.01093,0.229415 -0.540437,1.481577 -0.802314,0.796433 z M 18.815081,89.351532 c -1.046357,-3.071614 0.496406,-6.348932 0.152618,-9.447641 -0.133936,-3.838657 1.331375,-7.577516 2.495417,-11.327019 1.071627,-2.610555 -0.510848,-2.701005 -1.141711,-0.29346 -0.957013,2.985706 -2.041773,5.877812 -2.501518,9.056011 -1.710866,2.146839 2.16003,5.268848 -1.110254,6.967576 -3.47738,-3.4401 1.381715,-8.10646 1.59771,-12.12621 0.704321,-3.259725 1.748125,-6.667184 4.735036,-8.534749 1.247468,-1.406099 4.157698,-5.19262 5.041179,-4.345937 -2.772219,2.982572 -5.925342,5.850828 -6.083974,10.222838 -0.915027,3.949856 -2.225308,7.734507 -2.237076,11.993551 -0.201746,2.62143 -0.07688,5.329308 -0.947427,7.83504 z m -1.676513,-6.890305 c 0.908668,-2.724721 -2.885277,1.233251 0,0 z m 20.260318,5.709951 c -2.079267,-2.716991 -2.294824,-6.097557 -2.15588,-9.342175 -0.401156,-1.804334 0.215932,-7.93509 0.703633,-3.044399 0.260443,3.549735 0.380741,7.598794 2.226344,10.560398 0.59274,0.585377 0.407109,3.916288 -0.774097,1.826176 z m 20.794634,0.56038 c 1.011269,-3.131844 -3.966318,-5.074891 -4.897393,-8.072828 -1.789215,-2.894714 -3.603605,-5.628473 -4.456524,-8.932244 -1.565613,-2.580491 -4.111509,-7.654353 -7.726268,-5.25636 -3.664943,2.295318 -2.697193,7.141705 -2.5367,10.782576 0.84578,1.444258 0.617721,5.221195 -1.053039,2.524079 -0.0703,-3.439993 -0.598988,-6.96562 0.150015,-10.36956 0.887587,-2.7619 4.243028,-5.802126 7.275475,-4.462996 3.536914,2.817239 5.142584,7.182976 7.04148,11.148105 1.87687,3.414097 3.848439,6.725915 6.55365,9.578602 1.384229,0.717286 1.737678,3.503106 -0.350696,3.060626 z m -1.694963,-0.699104 c -5.107932,-3.349987 -7.369961,-9.396609 -9.726435,-14.755504 -0.403931,-2.878927 -4.332478,-7.655446 -6.04548,-3.040982 -0.944277,3.796475 1.165191,7.319879 1.128181,10.906396 -1.897189,0.666742 -1.319288,-4.643163 -2.189391,-6.209966 -0.652626,-3.138932 0.694979,-9.527404 4.99787,-7.160568 3.174809,2.637351 3.350489,7.055621 5.609994,10.317767 1.799701,3.822018 4.415875,7.298638 7.59356,10.045838 -0.253179,0.428755 -1.02078,-0.122417 -1.368299,-0.102981 z m 4.039163,-2.52529 c -2.162223,-2.896199 -5.144431,-5.16509 -6.516506,-8.615872 -2.404019,-3.63628 -3.518449,-8.096309 -6.523065,-11.310476 -2.451677,-1.642687 -6.009141,-5.26627 -8.868527,-2.411595 -2.468994,1.035517 -4.799344,5.81981 -6.032862,5.855472 0.807436,-3.604892 4.110297,-6.403681 7.383163,-7.801418 3.407139,-0.781888 5.89112,2.237948 8.601553,3.710685 4.740767,5.26776 5.902864,12.976071 11.258522,17.8225 0.353615,0.669104 3.687258,4.831543 0.697722,2.750704 z m -43.514178,0.316485 c 0.425196,-0.620954 0.361876,0.811358 0,0 z m -0.496096,-0.342542 c -0.09216,-1.225263 0.855949,0.669066 0,0 z m 16.457183,-0.08246 c -1.611042,-3.37679 -2.371651,-7.036405 -2.210865,-10.828653 -1.003434,-1.927876 2.754121,-6.713952 1.410875,-2.468552 -0.701677,2.968638 -0.645044,6.308366 -0.06358,9.243356 3.149612,1.126209 -1.180813,-6.383924 1.735978,-5.359737 0.0061,2.560616 0.388596,6.005007 0.134104,8.105908 0.889425,0.76571 -0.297986,1.325233 -1.00651,1.307678 z m -3.532185,-1.87424 C 28.752568,79.596379 27.9485,75.538882 28.821952,71.501078 c 1.25787,-4.381252 4.106854,-8.415916 7.861966,-10.973184 3.001795,-1.518304 6.74088,-3.075464 9.848894,-0.86404 1.859394,0.941216 5.36684,4.242533 4.074251,5.706083 -1.65059,-2.003053 -4.349862,-3.440845 -6.302677,-4.355055 1.353705,-0.06454 3.902793,0.655271 1.185831,-0.78146 -2.593965,-1.194898 -5.645764,-0.383492 -8.003329,1.085452 -2.662843,1.225997 -4.448197,3.915018 -5.921159,6.391649 -2.455753,2.931599 -2.094651,7.508113 -1.613791,11.220186 -0.386666,1.015042 1.955279,6.252454 -0.499494,4.593695 z m 12.056947,-0.02545 c -1.072866,-3.133156 3.840767,0.248455 0.35402,0.290305 -0.118006,-0.09677 -0.236013,-0.193538 -0.35402,-0.290305 z M 61.48313,82.693541 C 59.181078,79.61627 56.930618,76.47969 54.898518,73.280576 54.077651,71.373727 50.870685,66.97687 52.186204,66.100005 c 2.302963,2.53556 3.529967,5.859099 5.362823,8.892007 1.464934,2.778957 3.837219,4.988904 5.46684,7.625821 -0.374669,0.383182 -1.065614,0.06905 -1.532737,0.07569 z m 2.245673,-1.037125 c -0.178136,-1.229018 0.89201,0.326203 0,0 z M 13.864489,80.573905 c -0.870459,-2.532983 3.144658,-7.272837 1.406753,-8.083611 -0.541855,1.801511 -2.835915,4.255149 -1.510335,0.770102 2.485639,-2.001258 3.330113,-5.400355 5.296514,-7.519171 -1.291985,4.264852 -2.876948,8.482013 -3.908886,12.841943 -0.271054,0.737178 -0.549437,1.581997 -1.284046,1.990737 z M 63.190537,80.006941 C 61.75214,76.958561 58.866656,74.801913 57.652747,71.771143 54.7295,69.308451 54.347979,65.21774 51.524321,62.658614 49.072806,60.03832 46.18333,57.019218 42.231813,57.464553 c -3.72327,0.655224 -7.880511,2.46574 -9.90219,5.76312 -1.304533,2.206282 -2.870065,0.743938 -0.854002,-0.77449 2.830861,-3.741366 7.63473,-5.449646 12.166346,-5.876686 4.289166,0.638375 7.758263,3.452362 10.236451,6.873991 2.238383,2.819698 3.517292,6.256948 5.920646,8.975177 0.30427,2.312225 5.710197,5.710732 3.391473,7.581276 z M 13.275024,76.705478 c -0.234158,-0.938938 0.77847,0.226721 0,0 z M 33.279216,74.15202 c -0.312922,-1.248588 0.82924,-6.713978 0.983151,-2.714489 -0.130609,0.538802 -0.06852,3.359459 -0.983151,2.714489 z M 66.030673,72.8584 C 62.36711,68.058128 58.568146,63.355462 54.679035,58.745423 51.826266,56.267672 48.622767,53.559467 44.6298,53.51046 c -3.290949,-1.197952 -6.806469,-0.972528 -9.987276,0.33958 -3.431007,1.30652 -6.609298,3.092924 -9.29493,5.62919 -2.061862,1.19274 -4.361398,6.00542 -5.764521,5.026902 3.248776,-4.319949 7.378249,-8.107911 12.252458,-10.491644 5.709882,-2.258225 12.265453,-2.722878 18.001174,-0.283484 2.89992,1.249498 5.125692,3.753167 7.34789,5.886816 2.761614,2.726146 4.708647,6.041719 7.218905,8.910666 0.03814,1.355324 5.130997,4.967882 1.627173,4.329914 z M 44.27335,72.524767 c -1.321791,-1.805786 -0.29447,-3.694094 0.548511,-0.972759 0.32059,0.349389 0.172503,1.92104 -0.548511,0.972759 z M 12.694895,71.723234 c 3.673821,-4.397178 5.198515,-10.563495 10.254937,-13.769669 0.547621,1.820818 -4.753513,4.731358 -5.514997,7.688762 -1.240308,2.187366 -1.805051,5.574827 -4.73994,6.080907 z m 12.077184,0.05619 c -0.535502,-2.557931 2.731502,0.477409 0,0 z m 11.010872,-0.647338 c -1.215591,-1.575278 2.10651,-7.351496 2.077396,-4.442425 -0.8749,1.391951 -1.016331,3.162611 -2.077396,4.442425 z m -10.443906,-1.05356 c 0.08742,-1.799213 2.66741,-6.664623 1.465882,-2.235961 -0.262288,0.742942 -0.304122,2.381236 -1.465882,2.235961 z M 66.730463,69.208508 C 62.746011,63.657537 58.437179,58.093371 52.833531,54.092023 48.146385,51.17671 42.272159,50.175622 36.949612,51.670195 c -1.94747,0.429789 -4.121718,-0.178243 -1.102667,-0.695579 3.269811,-0.259104 6.462341,-1.346211 9.752155,-0.760015 5.438577,0.972185 10.628567,3.94812 14.009753,8.359334 2.876452,3.204969 5.892624,6.351256 8.229867,9.973666 0.73316,1.057964 -0.575895,1.045267 -1.108257,0.660907 z m -53.78199,-0.183477 c 0.0181,-3.585253 3.13957,-6.297813 4.941424,-9.164296 3.3292,-4.290238 7.615955,-7.891369 12.528773,-10.210677 2.353114,0.209326 -3.089942,2.795007 -4.396791,3.627992 -2.825643,1.782017 -4.613078,4.733212 -7.289653,6.691778 -1.540302,2.770188 -3.763457,5.163113 -4.802946,8.179687 -0.09463,0.401852 -0.46516,1.002566 -0.980807,0.875516 z m 21.40297,-0.334732 c -0.755492,-2.084562 1.644959,1.173561 0,0 z m 33.800044,-2.43229 c -3.616383,-4.927033 -7.850763,-9.50389 -12.691431,-13.242856 -3.145725,-1.520421 -6.188019,-3.724833 -9.829077,-3.821525 -2.31832,-1.510435 -5.448733,1.335294 -6.959149,-0.17999 2.889981,-2.23468 6.875826,-0.837827 10.285092,-0.123723 4.135419,1.467471 8.314213,3.310146 11.294152,6.677271 3.538533,2.521021 5.420525,6.680512 8.497147,9.65964 0.444939,0.480499 0.240338,1.435477 -0.596734,1.031183 z M 12.1638,65.12429 c -0.569427,-1.823165 4.455692,-6.186085 2.310971,-2.733615 -0.935956,0.728403 -0.777472,2.884049 -2.310971,2.733615 z m 26.289167,-0.372886 c 0.916281,-1.81207 6.179524,-1.747489 2.162464,-0.246493 -0.515528,0.176706 -2.122779,1.554492 -2.162464,0.246493 z M 68.72376,63.523211 c -1.242486,-2.504665 -4.542036,-5.704207 -5.176945,-7.250315 2.711409,0.804163 5.575888,3.528691 7.148884,5.325445 -1.177766,-0.983302 -4.440105,-1.972362 -1.975067,0.269599 0.719054,0.751802 2.38939,3.450997 0.0032,1.655271 z M 11.873271,61.534333 c -1.59512,-2.00467 4.623341,-4.769179 1.722306,-1.695541 -0.390836,0.54822 -0.652953,2.808625 -1.722306,1.695541 z m 3.768291,-1.241505 c -0.879983,-1.818087 3.373913,-3.285005 1.114798,-0.689933 -0.188271,0.363473 -0.618122,1.033605 -1.114798,0.689933 z m 54.322434,-1.60087 C 65.817303,56.21417 63.587171,51.629652 59.403614,49.197196 56.928769,46.873362 54.083217,45.354355 50.836047,44.38149 c -3.72785,-1.418903 -7.697579,-1.770167 -11.664103,-1.54823 -3.234943,0.02073 -6.598612,0.570955 -9.645228,1.223104 -4.912455,1.719766 -8.585132,5.53993 -12.735433,8.511841 -3.019305,0.63259 1.907804,-3.055504 3.02213,-3.567536 2.69629,-2.755113 6.344202,-4.337859 9.729214,-6.013686 3.374236,-0.228429 6.673894,-0.868176 10.028838,-1.281872 3.287774,-0.503423 6.336427,0.632981 9.539312,1.040714 2.910582,0.85053 5.891531,1.643545 8.281563,3.69395 3.310075,1.681923 5.799381,4.470828 8.639737,6.784709 -0.185771,2.240113 6.838425,4.819007 3.931919,5.467474 z m -41.368341,-0.09794 c 1.767154,-2.375081 5.022573,-2.716819 7.469088,-4.104934 1.560468,-1.401691 8.154186,-1.000134 3.409228,0.0021 -3.795064,0.417404 -6.881156,2.842017 -10.41936,4.016338 l -0.458956,0.08665 v 0 z M 11.072847,57.956796 c 0.930656,-2.43814 1.627123,0.813875 0,0 z m 3.576524,-0.20076 c 1.279254,-4.26229 5.765211,-6.200688 8.992403,-8.786776 3.020528,-3.02611 7.260723,-4.507006 11.493727,-4.535147 4.315803,-1.232752 8.917241,-0.745433 13.184181,0.40806 1.448193,0.56809 6.828619,1.486409 5.664551,2.74615 -3.02978,-0.766936 -5.875899,-2.270536 -9.010354,-2.540231 -3.729711,-1.376431 -7.635281,-0.470434 -11.337832,0.426285 -5.837286,0.561216 -10.245481,4.726756 -14.713967,8.063576 -1.446432,1.330885 -2.205642,3.738344 -4.272709,4.218083 z m 2.941137,-0.581616 c 1.883324,-3.407165 5.558258,-5.17334 8.397433,-7.655237 4.356597,-2.752 9.563572,-3.892389 14.660435,-4.05094 3.253,-0.107802 6.362793,0.940187 9.400598,1.775722 1.98101,0.228622 4.987829,2.968906 6.045321,2.302373 -2.770396,-3.947273 3.902673,1.821724 4.970794,2.895106 1.851558,0.751315 3.893986,4.306669 0.666549,2.733191 -2.080459,-3.001081 -5.167911,-4.597193 -8.555865,-5.699611 -5.314299,-2.938333 -11.617794,-3.169939 -17.53468,-2.667614 -5.06469,0.657811 -9.557992,3.4245 -13.173969,6.923502 -2.189663,0.08828 -2.812125,3.716466 -4.876616,3.443508 z m 6.047639,0.28911 c 1.371784,-3.179994 5.82632,-4.190928 7.85093,-6.15519 0.148358,1.862005 2.800821,0.512563 0.216487,1.578209 -3.15197,0.736535 -5.235913,3.772742 -8.067417,4.576981 z M 12.062588,56.625804 c 1.23131,-3.525306 2.854814,2.0208 0,0 z m 58.184893,-1.477382 c -3.265483,-2.791423 -7.503709,-6.381738 -9.878892,-9.033254 3.767369,-0.148629 5.751988,4.224469 8.409064,6.439848 1.130554,0.265758 4.697271,4.867049 1.469828,2.593406 z m -58.657364,0.04725 c -1.194532,-2.043457 3.760831,-2.384783 0.734384,-0.491991 l -0.33849,0.235741 z m 2.841338,-0.418716 c -0.63747,-2.32009 2.223907,0.247388 0,0 z m -1.234934,-2.042583 c -2.231704,-1.984255 3.919639,-3.56811 4.600839,-5.745421 1.556704,-1.825179 4.363613,-1.142414 1.446075,0.747035 -2.396537,0.951431 -4.945023,4.490912 -6.046914,4.998386 z m 58.126555,-0.349909 c -2.699778,-2.127907 -4.73904,-4.979705 -7.586473,-6.943163 -1.972035,-2.940872 -5.308386,-3.745646 -8.202699,-5.361135 -1.848879,-2.052189 -6.536435,-1.509669 -7.186807,-3.717435 3.402143,0.456628 6.533378,1.976642 9.532199,3.579643 4.235636,2.057643 7.641434,5.426782 11.157033,8.481992 0.676427,0.304838 5.139697,6.439612 2.286747,3.960098 z M 31.906402,50.868496 c 1.052703,-1.678736 6.788606,-1.661823 5.50241,-1.140507 -1.873274,0.198236 -3.558041,1.552955 -5.50241,1.140507 z M 11.708235,49.762243 c 0.386304,-1.200556 1.291304,0.610518 0,0 z m 0.921319,-0.818816 c -0.08394,-2.100692 6.436608,-4.332619 2.866568,-1.616019 -0.891299,0.274688 -2.018061,2.185512 -2.866568,1.616019 z m 19.276848,0.259153 c 1.607699,-1.321574 7.264778,-2.641658 6.592125,-1.329186 -2.125912,0.739507 -4.379944,0.982701 -6.592125,1.329186 z M 71.133368,48.364511 C 68.25203,44.601289 64.13419,41.986335 60.095149,39.621514 c -4.963927,-2.61273 -10.547492,-5.525113 -16.3143,-3.878665 -3.421314,0.842478 -7.164429,0.145565 -10.386161,1.829621 -1.410576,0.227507 -6.251482,2.794171 -5.549544,1.021251 3.538036,-1.391683 6.99349,-3.289275 10.899221,-3.27278 3.512879,-0.283464 6.997563,-1.287561 10.521798,-0.959312 3.748879,0.742963 7.372575,2.00098 10.679023,3.942141 3.752514,1.508544 6.656293,4.468263 9.933733,6.730548 0.678522,0.32331 3.441151,4.117476 1.254449,3.330193 z M 12.160035,46.977612 c 0.687883,-3.606424 4.961684,-4.672633 7.648293,-6.485121 4.355503,-2.67934 9.040989,-4.798558 13.818276,-6.597401 3.21956,-0.834839 6.672202,-1.324333 9.955863,-0.758703 -1.338675,1.28431 -5.743748,0.503659 -8.247136,1.40101 -6.151679,1.724829 -11.816329,4.876098 -17.302986,8.060319 -1.808301,1.596032 -4.438774,2.940358 -5.87231,4.379896 z m 45.295279,-1.850941 c -2.052853,-3.105718 4.736343,2.582049 0.354151,0.355099 -0.11805,-0.118367 -0.236101,-0.236733 -0.354151,-0.355099 z m -40.431772,0.254706 c 2.125739,-2.636537 5.403412,-3.898406 8.300897,-5.397398 3.452971,0.110406 -2.505133,2.166843 -3.518895,3.017463 -1.513634,0.768999 -3.078227,2.520807 -4.782002,2.379935 z m 3.903548,-0.0038 c 2.294916,-2.180145 5.469503,-3.04763 8.02628,-4.863921 3.558508,-1.58482 7.203384,-3.059849 11.165522,-3.131126 3.234669,-1.102381 6.288815,-0.03375 9.365102,1.095796 1.44842,0.330076 6.678316,2.456628 2.577078,1.602819 -5.842493,-2.218137 -12.338436,-2.114492 -18.336984,-0.607394 -3.841094,1.501478 -7.349231,3.667131 -10.962554,5.595098 -0.584772,0.214908 -1.209248,0.34138 -1.834444,0.308728 z M 61.462537,45.23008 c -2.450204,-1.665541 -5.320777,-2.166152 -8.159542,-2.591403 -4.539272,-1.291295 -9.289901,-2.381279 -14.030393,-2.053132 -2.678282,-0.121088 -5.660934,1.870715 -8.054206,1.12509 3.122727,-1.295313 6.57244,-1.900742 9.913993,-2.158057 5.026122,-0.354655 9.791079,1.457286 14.635623,2.469436 1.082221,0.270628 7.275144,2.401754 5.694525,3.208066 z M 12.157083,43.714823 c 1.103432,-3.847946 5.912865,-4.540359 8.876091,-6.498765 5.066072,-2.064768 9.634145,-5.485652 15.208937,-6.140243 1.481341,-0.613191 7.600669,-0.149974 3.001375,0.626171 -3.280969,0.309312 -6.508996,0.923018 -9.498054,2.428074 -4.01143,1.13244 -7.203479,4.016472 -11.090961,5.46148 -2.275638,1.210327 -4.30967,2.738222 -6.497388,4.123283 z M 70.918664,43.231731 C 67.003533,40.709987 63.028462,38.317227 58.88037,36.204224 55.992343,34.609719 52.675152,34.112264 49.661905,32.857113 47.148014,33.428138 43.414992,32.147177 42.169,31.187935 c 3.327078,-0.686408 7.035008,0.790808 10.388262,1.50181 2.957662,1.143314 6.078063,2.121725 8.769932,3.73708 0.803376,1.169457 5.316944,2.768977 2.721817,0.236052 -5.163852,-3.026849 -10.669644,-5.708814 -16.667918,-6.615498 -6.248838,-0.891292 -12.874477,-0.784041 -18.630391,2.084343 -1.565873,0.35264 -5.463316,3.640356 -5.717959,1.263636 2.59502,-1.292613 5.936296,-2.457704 9.098234,-3.384965 5.807585,-1.953665 12.262689,-2.295896 18.10749,-0.315777 5.614874,1.198493 10.810513,3.768655 15.412212,7.167108 1.113914,2.821177 6.552091,4.182501 6.083687,6.919142 L 71.43766,43.638393 Z m 0.128813,-3.753329 C 68.102694,37.194463 65.298392,34.737048 62.052425,32.879656 57.850206,29.868391 52.651168,29.104391 47.790228,27.72002 44.026225,27.07887 40.042438,26.534572 36.285355,27.539023 32.7902,28.137262 29.43343,29.622605 25.904874,30.25573 c -2.695911,1.1461 -5.92825,3.887134 -8.427686,3.839396 3.327965,-2.571319 7.037279,-4.788508 11.228488,-5.827893 3.48586,-1.17879 7.146752,-1.165997 10.632117,-2.377117 3.286783,0.349999 6.74316,0.345028 9.977825,1.173706 6.480953,1.353974 12.834452,3.997336 18.142813,8.054977 1.580255,0.176636 6.235788,5.848664 3.629648,4.39975 l -0.04061,-0.04013 c 0,0 0,5e-6 0,5e-6 z m -58.90231,0.381093 c 1.711154,-2.884718 5.77394,-2.940058 8.217956,-4.99687 2.419003,-1.773723 2.753344,0.784358 0.186589,1.153402 -2.681928,1.668943 -5.686839,2.23183 -8.404545,3.843468 z m 1.712814,-3.23175 c -0.08816,-2.274147 2.537961,1.088929 0,0 z m 2.12417,-1.146116 c 0.5883,-1.986601 1.828015,0.445817 0,0 z m -2.691136,-0.554782 c 0.349526,-1.936619 6.963128,-4.227078 3.235018,-1.380123 -0.886762,0.767349 -2.001911,1.512455 -3.235018,1.380123 z m 56.847614,-0.18899 C 66.97349,33.654286 64.885302,30.707767 61.685127,29.623901 56.085965,26.679579 49.76473,25.641554 43.53533,25.042485 c -4.064451,-1.132456 -7.838778,0.596943 -11.864263,0.685786 -3.508855,0.910824 -6.807056,2.514774 -10.269962,3.571238 -0.176809,-2.44249 5.087249,-2.032244 6.930226,-3.723762 2.834452,-1.306493 6.23745,-0.152995 9.085918,-1.640127 3.040379,-0.706196 6.078049,0.09695 9.0847,0.279151 2.992183,1.513816 6.262164,1.030621 9.421035,1.720902 4.647372,1.412298 8.996914,3.815857 12.62617,7.011644 4.326057,1.999271 -2.561022,-3.454136 -3.797594,-4.556398 -3.448682,-3.070301 -8.123017,-3.852934 -12.41565,-4.951913 -4.805538,0.325684 -9.603615,-2.27653 -14.326678,-0.51253 -1.569008,-0.915244 -6.51491,2.497519 -5.783252,0.201263 3.401,-1.331592 7.164406,-1.689744 10.790358,-1.764359 3.577281,0.168499 6.879428,1.711881 10.507833,1.470053 5.074447,0.04216 9.646357,2.60044 13.294187,5.951912 1.220768,0.404053 7.713951,7.259911 3.320271,5.952512 z M 14.424947,31.666576 c 1.477055,-3.264734 8.84984,-3.260534 2.862697,-0.889991 -0.941533,0.337191 -1.915641,0.570206 -2.862697,0.889991 z m 3.734976,-0.07647 c 1.994486,-2.441702 3.215872,1.241618 0,0 z m -4.396436,-1.645157 c 0.992465,-2.200978 1.711133,0.837528 0,0 z M 69.752914,29.42418 c -0.497932,-2.661164 2.565179,0.769443 0,0 z M 15.492733,28.897888 c 1.873096,-3.112987 6.447824,-3.446856 9.143582,-5.629641 0.330117,0.493598 -0.56905,2.390375 -1.267094,2.811727 -2.3064,-0.425182 -5.629355,2.212271 -7.876488,2.817914 z m 52.658786,-0.484834 c -1.056834,-3.393562 -5.227083,-3.924435 -7.691741,-5.973662 -3.028705,-0.889551 -5.895097,-2.137442 -8.727908,-3.513589 -3.165748,-1.190217 -6.607493,-0.982643 -9.903238,-1.57582 -3.248007,0.413809 -6.490982,0.619459 -9.707177,1.499507 -3.78744,0.945753 -7.482748,2.565458 -10.697613,4.660236 -2.315392,-1.88954 4.269204,-3.098335 5.895957,-4.249647 3.638118,-1.192938 7.280707,-2.470364 11.157722,-2.672398 3.935181,-0.619775 7.835215,0.218759 11.696257,0.768602 5.358096,1.804619 10.67455,3.899445 15.489056,6.892715 1.355705,0.221642 6.122645,4.51464 2.488685,4.164056 z M 25.298985,25.461849 c 0.414347,-2.594307 5.139934,-0.335905 1.219422,-0.384484 -0.472829,-0.209261 -0.843804,0.975437 -1.219422,0.384484 z m -8.098266,-0.314766 c -0.917591,-3.225396 5.620995,-1.049483 1.183649,-0.447108 -0.350844,0.200781 -0.724503,0.794193 -1.183649,0.447108 z m 9.272258,-1.701519 c 1.715937,-2.19545 5.596871,-3.050683 8.163102,-3.394886 -0.206988,2.009449 -4.601497,1.525955 -6.244218,3.317769 -0.615019,0.206385 -1.28973,0.248171 -1.918884,0.07712 z M 66.081555,22.409869 C 61.65405,20.082301 57.090079,18.050443 52.325613,16.508706 49.047389,15.21193 45.336147,15.269584 41.847397,15.081922 c -3.477323,0.607293 -7.093908,-0.01741 -10.454539,1.108193 -1.954197,0.312639 -7.09123,3.694239 -7.34688,1.448614 3.28373,-0.61654 5.954663,-3.117214 9.41658,-3.127087 3.757252,-0.380353 7.530377,-0.453666 11.26646,-0.753758 3.215704,0.246371 6.240866,0.679968 9.136977,2.126932 3.62024,1.217506 7.026294,3.026067 10.71097,4.056956 0.328024,0.614407 4.77436,3.518765 1.50459,2.468097 z M 17.906151,22.028573 c 0.178389,-2.535828 7.536075,-4.336803 3.396614,-1.41549 -1.068627,0.612639 -2.236354,1.017148 -3.396614,1.41549 z m 35.286305,-0.423499 c -4.565783,-1.030139 -9.209955,-1.690645 -13.899272,-1.328887 -1.670671,0.319287 -4.546382,-0.732618 -1.274956,-1.020946 3.853736,-0.180488 7.81181,-0.352549 11.618402,0.351264 0.627219,-0.0956 6.087384,2.144578 3.555826,1.998569 z m 9.292131,-3.876415 c -3.697651,-2.02064 -7.793252,-3.066272 -11.708544,-4.547511 -1.594811,-0.236856 -8.194059,-0.803547 -3.464103,-1.477145 4.154799,0.08281 7.842763,2.349082 11.822895,3.312171 0.931449,-0.03236 7.719009,3.802126 3.349752,2.712485 z M 22.106638,16.866098 c 1.673476,-2.541324 5.147922,-2.81147 7.64893,-4.194721 3.365392,-0.486735 6.999237,-2.322731 10.136919,-1.639966 -3.714967,1.921597 -7.842035,1.819286 -11.592664,3.365641 -2.032371,0.902184 -4.029394,1.905317 -6.193185,2.469046 z m 16.962348,-3.382184 c 0.836066,-2.349276 2.775139,0.957292 0,0 z m 4.396983,-1.554311 c -0.234158,-0.938933 0.778471,0.226721 0,0 z m -1.779402,-0.418817 c 0.507625,-1.6983271 0.556839,1.370576 0,0 z M 41.196526,10.22615 c 0.09185,-0.7848244 0.751444,0.47211 0,0 z"
       id="path2830" /><path
       style="fill:#000000;fill-opacity:0.49;stroke-width:0.141741"
       d="m 341.90618,524.08559 c -1.58935,-1.22506 -2.58903,-5.09728 -0.28316,-1.87432 0.47885,0.44767 2.24367,2.18181 0.28316,1.87432 z m 3.44432,-0.39687 c -2.98331,-1.60585 -4.48082,-5.04032 -5.72714,-8.01422 -1.16905,-3.81949 -0.93978,-7.75004 -1.97238,-11.61318 -0.83097,-1.26614 -0.18662,-6.74822 1.05941,-5.22771 -0.95522,4.77622 0.98946,9.47376 1.3645,14.21156 1.03567,3.33164 2.236,6.74187 4.78921,9.25729 0.67068,0.52238 2.15218,2.88267 0.4864,1.38626 z m 6.37181,-0.1786 c -0.54786,-1.60123 1.00982,-0.0828 0,0 z m -5.48593,-1.67914 c -2.7359,-2.80618 -4.10258,-6.73467 -5.15133,-10.41398 -0.77332,-3.75698 -1.68854,-7.50185 -1.39258,-11.35638 0.14476,-3.21903 1.02094,-7.38468 3.4102,-9.3664 -0.93714,3.22856 -3.06632,7.09223 -2.601,10.93865 0.17386,3.48643 0.68827,6.75847 1.7874,10.11764 1.05069,3.42144 2.40523,6.80211 4.57798,9.67958 2.99776,0.88349 0.26646,2.74789 -0.63067,0.40089 z m 4.28769,1.00729 c -2.90167,-1.65941 3.00783,-0.5916 0,0 z m 2.72598,-0.56697 c -3.71006,-1.95778 -4.80382,-6.42286 -6.5144,-9.79767 1.30862,-3.51027 3.68909,4.25875 4.14349,5.95751 0.47014,2.01475 3.611,3.44944 4.13047,4.12968 -0.58689,0.0822 -1.26067,0.0841 -1.75956,-0.28952 z m 4.43802,-0.41543 c 0.0919,-0.78483 0.75144,0.47211 0,0 z m -9.53817,-0.80519 c -2.35466,-2.72872 -3.27188,-6.26179 -4.40631,-9.53171 -0.54667,-3.35104 1.93334,-0.96897 1.49428,0.97365 0.41203,3.08795 3.98395,6.11279 3.27926,8.82412 -0.12241,-0.0887 -0.24482,-0.17737 -0.36723,-0.26606 z m 7.79324,0.0867 c -1.79399,-0.47125 -5.86451,-4.14018 -3.89149,-4.70552 0.43458,1.91471 4.37028,3.11845 3.89149,4.70552 z m 3.865,0 c -3.37551,-1.02782 -5.40585,-4.24231 -8.06672,-6.30745 2.63314,-0.15005 5.12653,3.94197 7.90074,5.29796 0.41677,0.2958 1.44542,1.91251 0.16598,1.00949 z m -20.88783,-1.13706 c -1.54174,-4.57166 3.56636,1.51428 0,0 z m 22.6267,-0.42211 c -1.70901,-0.42366 -6.323,-3.60357 -4.22803,-4.09882 1.72983,1.18154 4.59204,3.38807 5.3151,4.35516 -0.36807,0.0923 -0.82649,0.0613 -1.08707,-0.25634 z m -24.69495,0.01 c 0.21203,-0.84105 0.80982,0.6311 0,0 z m -0.96281,-0.97983 c -1.889,-2.83517 -2.33139,-6.37628 -1.87899,-9.62899 -0.27354,-3.14405 1.34439,-5.98707 1.30058,-9.13408 1.11851,-3.26688 1.14485,-6.90095 2.98571,-9.9409 1.04487,-1.87008 2.62045,-4.04562 4.84807,-3.76768 -0.38892,-2.42235 2.04581,-0.26509 3.04117,-2.55014 3.5459,-2.1739 7.66008,-3.0476 11.7003,-3.78518 5.76137,1.3606 9.99879,5.77108 13.33416,10.4099 2.70348,2.79182 4.12908,6.57097 6.96399,9.24378 1.16041,1.59228 0.0839,4.09163 -1.01277,1.20084 -1.97518,-2.82006 -4.84539,-5.15002 -6.15197,-8.31481 -2.00851,-3.30551 -4.42164,-6.07298 -7.22316,-8.68359 -3.23606,-2.22858 -7.50579,-3.56202 -11.28789,-1.78236 -4.64618,1.18358 -8.7464,4.11926 -11.10047,8.32372 -2.23677,0.99372 2.88927,-5.17908 -0.71554,-2.11418 -2.52708,2.57522 -2.76783,6.45244 -3.9011,9.71313 -0.4013,3.83134 -1.69833,7.17103 -1.82797,10.93143 -0.15864,3.49137 0.75938,7.02763 1.90479,10.19741 l -0.30251,0.0335 -0.67633,-0.35185 z m 28.92329,0.41184 c -3.31026,-1.67011 -6.135,-4.16712 -8.61882,-6.82326 -1.61727,-1.8893 1.2172,-4.59245 1.62581,-1.37845 1.63369,3.82625 6.03532,4.95355 8.13239,8.19395 l -0.31198,0.11448 z m 3.38848,-0.94721 c -0.72963,-2.42257 2.54221,0.30021 0,0 z m -29.63049,-1.14043 c -0.31332,-0.90669 0.89672,0.30315 0,0 z m 26.48204,-0.97346 c -2.99814,-1.77333 -5.48389,-4.25353 -6.88323,-7.45267 -2.03552,-3.79198 -3.29093,-8.29661 -3.19064,-12.70516 1.52559,-1.1306 1.04427,3.80448 1.89725,4.79378 0.32318,3.6416 2.12852,5.80715 3.32671,9.223 1.95542,2.18774 5.0384,4.9536 7.50489,6.89723 -0.78477,0.99587 -2.09264,0.0137 -2.65498,-0.75618 z m -27.88764,0.0954 c -1.33133,-3.36833 -0.58185,-7.09351 -0.81839,-10.61563 1.56953,-0.57047 0.24319,4.68381 1.28402,6.35796 -0.34926,0.98284 2.2763,6.1043 -0.46563,4.25767 z m 32.63598,0.14106 c -2.93972,-1.90356 -5.66834,-3.89276 -7.55067,-6.54904 -1.79263,-3.23802 -3.76813,-6.6208 -4.4328,-10.30419 2.81611,-0.59349 1.56077,5.63866 4.34883,6.42697 0.82167,3.89594 4.58983,7.54987 8.2985,9.34795 1.36944,0.79007 0.81608,1.87056 -0.66386,1.07831 z m -14.31342,-1.00659 c -2.53006,-1.13975 -5.24675,-6.43945 -3.06918,-8.00809 1.62993,2.23882 1.00402,5.62743 3.87149,7.21166 -0.0109,0.22942 -0.54044,1.48158 -0.80231,0.79643 z m -23.44092,-0.38643 c -1.04636,-3.07162 0.4964,-6.34894 0.15261,-9.44765 -0.13393,-3.83865 1.33138,-7.57751 2.49542,-11.32701 1.07163,-2.61056 -0.51085,-2.70101 -1.14171,-0.29346 -0.95701,2.9857 -2.04177,5.87781 -2.50152,9.05601 -1.71086,2.14684 2.16003,5.26884 -1.11025,6.96757 -3.47738,-3.4401 1.38171,-8.10646 1.59771,-12.12621 0.70432,-3.25972 1.74812,-6.66718 4.73503,-8.53475 1.24747,-1.40609 4.1577,-5.19262 5.04118,-4.34593 -2.77222,2.98257 -5.92534,5.85083 -6.08397,10.22284 -0.91503,3.94985 -2.22531,7.7345 -2.23708,11.99355 -0.20174,2.62143 -0.0769,5.3293 -0.94742,7.83504 z m -1.67652,-6.89031 c 0.90867,-2.72472 -2.88527,1.23325 0,0 z m 20.26032,5.70995 c -2.07927,-2.71699 -2.29482,-6.09756 -2.15588,-9.34217 -0.40115,-1.80434 0.21593,-7.93509 0.70363,-3.0444 0.26045,3.54973 0.38075,7.59879 2.22635,10.5604 0.59274,0.58537 0.40711,3.91628 -0.7741,1.82617 z m 20.79464,0.56038 c 1.01126,-3.13184 -3.96632,-5.07489 -4.8974,-8.07283 -1.78921,-2.89471 -3.6036,-5.62847 -4.45652,-8.93224 -1.56561,-2.58049 -4.11151,-7.65435 -7.72627,-5.25636 -3.66494,2.29532 -2.69719,7.14171 -2.5367,10.78258 0.84578,1.44425 0.61772,5.22119 -1.05304,2.52407 -0.0703,-3.43999 -0.59899,-6.96561 0.15002,-10.36955 0.88758,-2.7619 4.24302,-5.80213 7.27547,-4.463 3.53692,2.81724 5.14259,7.18298 7.04148,11.1481 1.87687,3.4141 3.84844,6.72592 6.55365,9.57861 1.38423,0.71728 1.73768,3.5031 -0.35069,3.06062 z m -1.69497,-0.6991 c -5.10793,-3.34999 -7.36996,-9.39661 -9.72643,-14.75551 -0.40393,-2.87892 -4.33248,-7.65544 -6.04548,-3.04098 -0.94428,3.79648 1.16519,7.31988 1.12818,10.9064 -1.89719,0.66674 -1.31929,-4.64317 -2.18939,-6.20997 -0.65263,-3.13893 0.69498,-9.5274 4.99787,-7.16057 3.17481,2.63735 3.35049,7.05563 5.60999,10.31777 1.7997,3.82202 4.41588,7.29864 7.59356,10.04584 -0.25318,0.42875 -1.02078,-0.12242 -1.3683,-0.10298 z m 4.03917,-2.52529 c -2.16223,-2.8962 -5.14444,-5.16509 -6.51651,-8.61587 -2.40402,-3.63628 -3.51845,-8.09631 -6.52307,-11.31048 -2.45167,-1.64269 -6.00914,-5.26627 -8.86852,-2.41159 -2.469,1.03551 -4.79935,5.81981 -6.03286,5.85547 0.80743,-3.60489 4.11029,-6.40368 7.38316,-7.80142 3.40714,-0.78189 5.89112,2.23795 8.60155,3.71068 4.74077,5.26776 5.90287,12.97607 11.25852,17.8225 0.35362,0.66911 3.68726,4.83155 0.69773,2.75071 z m -43.51418,0.31648 c 0.42519,-0.62095 0.36187,0.81136 0,0 z m -0.4961,-0.34254 c -0.0922,-1.22526 0.85595,0.66907 0,0 z m 16.45718,-0.0825 c -1.61104,-3.37679 -2.37165,-7.0364 -2.21086,-10.82865 -1.00343,-1.92788 2.75412,-6.71395 1.41087,-2.46855 -0.70167,2.96863 -0.64504,6.30836 -0.0636,9.24335 3.14962,1.12621 -1.18081,-6.38392 1.73598,-5.35973 0.006,2.56061 0.3886,6.005 0.13411,8.1059 0.88942,0.76571 -0.29799,1.32524 -1.00651,1.30768 z m -3.53218,-1.87424 c -0.69988,-3.92803 -1.50394,-7.98552 -0.63049,-12.02333 1.25787,-4.38125 4.10685,-8.41591 7.86196,-10.97318 3.0018,-1.51831 6.74088,-3.07547 9.8489,-0.86404 1.85939,0.94121 5.36684,4.24253 4.07425,5.70608 -1.65059,-2.00305 -4.34986,-3.44084 -6.30268,-4.35505 1.35371,-0.0645 3.90279,0.65527 1.18583,-0.78146 -2.59396,-1.1949 -5.64576,-0.3835 -8.00333,1.08545 -2.66284,1.22599 -4.44819,3.91502 -5.92116,6.39165 -2.45575,2.9316 -2.09465,7.50811 -1.61379,11.22018 -0.38666,1.01504 1.95528,6.25246 -0.49949,4.5937 z m 12.05695,-0.0255 c -1.07287,-3.13316 3.84076,0.24846 0.35402,0.29031 -0.11801,-0.0968 -0.23602,-0.19354 -0.35402,-0.29031 z m 19.97374,-0.80542 c -2.30206,-3.07727 -4.55252,-6.21385 -6.58462,-9.41296 -0.82086,-1.90685 -4.02783,-6.30371 -2.71231,-7.18057 2.30296,2.53556 3.52997,5.8591 5.36282,8.89201 1.46494,2.77895 3.83722,4.9889 5.46684,7.62582 -0.37467,0.38318 -1.06561,0.0691 -1.53273,0.0757 z m 2.24567,-1.03712 c -0.17814,-1.22902 0.89201,0.3262 0,0 z m -49.86432,-1.08251 c -0.87045,-2.53298 3.14466,-7.27284 1.40676,-8.08361 -0.54186,1.80151 -2.83592,4.25515 -1.51034,0.7701 2.48564,-2.00126 3.33012,-5.40036 5.29652,-7.51917 -1.29199,4.26485 -2.87695,8.48201 -3.90889,12.84194 -0.27105,0.73718 -0.54944,1.582 -1.28405,1.99074 z m 49.32605,-0.56697 c -1.43839,-3.04838 -4.32388,-5.20502 -5.53779,-8.23579 -2.92324,-2.4627 -3.30477,-6.55341 -6.12842,-9.11253 -2.45152,-2.6203 -5.34099,-5.6394 -9.29251,-5.19406 -3.72327,0.65522 -7.88051,2.46574 -9.90219,5.76312 -1.30453,2.20628 -2.87007,0.74394 -0.854,-0.77449 2.83086,-3.74137 7.63473,-5.44965 12.16634,-5.87669 4.28917,0.63838 7.75827,3.45236 10.23645,6.87399 2.23839,2.8197 3.5173,6.25695 5.92065,8.97518 0.30427,2.31222 5.7102,5.71073 3.39147,7.58127 z m -49.91551,-3.30146 c -0.23416,-0.93894 0.77847,0.22672 0,0 z m 20.00419,-2.55346 c -0.31292,-1.24858 0.82924,-6.71397 0.98315,-2.71449 -0.13061,0.53881 -0.0685,3.35946 -0.98315,2.71449 z m 32.75146,-1.29362 c -3.66356,-4.80027 -7.46253,-9.50293 -11.35164,-14.11297 -2.85277,-2.47775 -6.05627,-5.18596 -10.04923,-5.23497 -3.29095,-1.19795 -6.80647,-0.97252 -9.98728,0.33958 -3.43101,1.30652 -6.6093,3.09293 -9.29493,5.62919 -2.06186,1.19274 -4.3614,6.00542 -5.76452,5.02691 3.24877,-4.31995 7.37825,-8.10791 12.25246,-10.49165 5.70988,-2.25822 12.26545,-2.72288 18.00117,-0.28348 2.89992,1.2495 5.12569,3.75317 7.34789,5.88681 2.76161,2.72615 4.70865,6.04172 7.21891,8.91067 0.0381,1.35532 5.13099,4.96788 1.62717,4.32991 z m -21.75732,-0.33363 c -1.3218,-1.80579 -0.29447,-3.69409 0.54851,-0.97276 0.32059,0.34939 0.1725,1.92104 -0.54851,0.97276 z m -31.57846,-0.80153 c 3.67382,-4.39718 5.19852,-10.5635 10.25494,-13.76967 0.54762,1.82082 -4.75352,4.73136 -5.515,7.68876 -1.24031,2.18737 -1.80505,5.57483 -4.73994,6.08091 z m 12.07718,0.0562 c -0.5355,-2.55793 2.73151,0.47741 0,0 z m 11.01088,-0.64734 c -1.21559,-1.57528 2.10651,-7.3515 2.07739,-4.44242 -0.8749,1.39195 -1.01633,3.16261 -2.07739,4.44242 z m -10.44391,-1.05363 c 0.0874,-1.79921 2.66741,-6.66462 1.46588,-2.23596 -0.26229,0.74294 -0.30412,2.38123 -1.46588,2.23596 z m 41.39142,-0.87002 c -3.98445,-5.55097 -8.29329,-11.11514 -13.89693,-15.11648 -4.68715,-2.91532 -10.56138,-3.9164 -15.88392,-2.42183 -1.94747,0.42979 -4.12172,-0.17824 -1.10267,-0.69558 3.26981,-0.2591 6.46234,-1.34621 9.75216,-0.76002 5.43857,0.97219 10.62856,3.94812 14.00975,8.35934 2.87645,3.20497 5.89262,6.35125 8.22986,9.97366 0.73316,1.05797 -0.57589,1.04527 -1.10825,0.66091 z m -53.78199,-0.18348 c 0.0181,-3.58525 3.13957,-6.29781 4.94142,-9.16429 3.3292,-4.29024 7.61596,-7.89137 12.52878,-10.21068 2.35311,0.20933 -3.08995,2.79501 -4.3968,3.62799 -2.82564,1.78202 -4.61307,4.73322 -7.28965,6.69178 -1.5403,2.77019 -3.76346,5.16311 -4.80294,8.17969 -0.0946,0.40185 -0.46516,1.00256 -0.98081,0.87551 z m 21.40297,-0.33473 c -0.75549,-2.08456 1.64496,1.17356 0,0 z m 33.80004,-2.43229 c -3.61638,-4.92703 -7.85076,-9.50389 -12.69143,-13.24285 -3.14572,-1.52042 -6.18802,-3.72484 -9.82908,-3.82153 -2.31832,-1.51043 -5.44873,1.3353 -6.95914,-0.17999 2.88998,-2.23468 6.87582,-0.83782 10.28509,-0.12372 4.13542,1.46747 8.31421,3.31015 11.29415,6.67727 3.53853,2.52102 5.42052,6.68051 8.49714,9.65964 0.44494,0.4805 0.24034,1.43548 -0.59673,1.03118 z m -55.98768,-1.13372 c -0.56943,-1.82316 4.45569,-6.18608 2.31097,-2.73361 -0.93596,0.7284 -0.77748,2.88405 -2.31097,2.73361 z m 26.28916,-0.37288 c 0.91628,-1.81207 6.17953,-1.74749 2.16247,-0.2465 -0.51553,0.17671 -2.12278,1.5545 -2.16247,0.2465 z m 30.27079,-1.22819 c -1.24248,-2.50467 -4.54203,-5.70421 -5.17694,-7.25032 2.71141,0.80416 5.57589,3.52869 7.14888,5.32545 -1.17776,-0.98331 -4.4401,-1.97237 -1.97506,0.26959 0.71905,0.75181 2.38938,3.451 0.003,1.65528 z m -56.85048,-1.98888 c -1.59512,-2.00467 4.62334,-4.76918 1.7223,-1.69554 -0.39083,0.54822 -0.65295,2.80862 -1.7223,1.69554 z m 3.76829,-1.24151 c -0.87999,-1.81808 3.37391,-3.285 1.1148,-0.68993 -0.18828,0.36347 -0.61813,1.0336 -1.1148,0.68993 z m 54.32243,-1.60087 c -4.14669,-2.47779 -6.37682,-7.0623 -10.56038,-9.49476 -2.47485,-2.32383 -5.3204,-3.84284 -8.56757,-4.81571 -3.72785,-1.4189 -7.69758,-1.77016 -11.6641,-1.54823 -3.23494,0.0207 -6.59861,0.57096 -9.64523,1.22311 -4.91245,1.71976 -8.58513,5.53993 -12.73543,8.51184 -3.01931,0.63259 1.9078,-3.05551 3.02213,-3.56754 2.69629,-2.75511 6.3442,-4.33786 9.72921,-6.01368 3.37424,-0.22843 6.6739,-0.86818 10.02884,-1.28187 3.28777,-0.50343 6.33643,0.63298 9.53931,1.04071 2.91058,0.85053 5.89153,1.64354 8.28157,3.69395 3.31007,1.68192 5.79938,4.47083 8.63973,6.78471 -0.18577,2.24011 6.83842,4.81901 3.93192,5.46747 z m -41.36834,-0.0979 c 1.76715,-2.37508 5.02257,-2.71682 7.46909,-4.10493 1.56047,-1.40169 8.15418,-1.00014 3.40923,0.002 -3.79507,0.4174 -6.88116,2.84201 -10.41936,4.01634 l -0.45896,0.0866 v 0 z m -17.52281,-0.63726 c 0.93066,-2.43814 1.62713,0.81387 0,0 z m 3.57653,-0.20076 c 1.27925,-4.26229 5.76521,-6.20069 8.9924,-8.78678 3.02053,-3.02611 7.26072,-4.507 11.49373,-4.53514 4.3158,-1.23275 8.91724,-0.74544 13.18418,0.40806 1.44819,0.56809 6.82862,1.48641 5.66455,2.74615 -3.02978,-0.76694 -5.8759,-2.27054 -9.01036,-2.54023 -3.72971,-1.37643 -7.63528,-0.47044 -11.33783,0.42628 -5.83728,0.56122 -10.24548,4.72676 -14.71396,8.06358 -1.44644,1.33088 -2.20565,3.73834 -4.27271,4.21808 z m 2.94113,-0.58162 c 1.88333,-3.40716 5.55826,-5.17334 8.39744,-7.65523 4.35659,-2.752 9.56357,-3.89239 14.66043,-4.05094 3.253,-0.1078 6.36279,0.94018 9.4006,1.77572 1.98101,0.22862 4.98783,2.9689 6.04532,2.30237 -2.7704,-3.94727 3.90267,1.82173 4.97079,2.89511 1.85156,0.75131 3.89399,4.30667 0.66655,2.73319 -2.08046,-3.00108 -5.16791,-4.59719 -8.55586,-5.69961 -5.3143,-2.93833 -11.6178,-3.16994 -17.53468,-2.66762 -5.06469,0.65782 -9.55799,3.4245 -13.17397,6.92351 -2.18966,0.0883 -2.81213,3.71646 -4.87662,3.4435 z m 6.04764,0.28911 c 1.37179,-3.17999 5.82632,-4.19092 7.85093,-6.15519 0.14836,1.86201 2.80082,0.51257 0.21649,1.57821 -3.15197,0.73654 -5.23591,3.77275 -8.06742,4.57698 z m -11.57556,-0.83772 c 1.23131,-3.52531 2.85482,2.0208 0,0 z m 58.18489,-1.47738 c -3.26548,-2.79143 -7.5037,-6.38174 -9.87889,-9.03326 3.76737,-0.14863 5.75199,4.22447 8.40907,6.43985 1.13055,0.26576 4.69727,4.86705 1.46982,2.59341 z m -58.65736,0.0472 c -1.19453,-2.04346 3.76083,-2.38479 0.73439,-0.492 l -0.33849,0.23575 z m 2.84134,-0.41872 c -0.63747,-2.32009 2.22391,0.24739 0,0 z m -1.23493,-2.04258 c -2.23171,-1.98426 3.91964,-3.56811 4.60084,-5.74542 1.5567,-1.82518 4.36361,-1.14242 1.44607,0.74703 -2.39654,0.95143 -4.94502,4.49091 -6.04691,4.99839 z m 58.12655,-0.34991 c -2.69978,-2.12786 -4.73904,-4.97966 -7.58647,-6.94311 -1.97204,-2.94088 -5.30839,-3.74565 -8.2027,-5.36114 -1.84888,-2.05219 -6.53644,-1.50967 -7.18681,-3.71743 3.40215,0.45662 6.53338,1.97664 9.5322,3.57964 4.23564,2.05764 7.64144,5.42678 11.15703,8.48199 0.67643,0.30484 5.1397,6.43961 2.28675,3.9601 z m -39.41667,-1.51597 c 1.0527,-1.67874 6.7886,-1.66182 5.50241,-1.14051 -1.87328,0.19824 -3.55804,1.55296 -5.50241,1.14051 z m -20.19817,-1.10625 c 0.3863,-1.20056 1.2913,0.61052 0,0 z m 0.92132,-0.81882 c -0.0839,-2.10069 6.43661,-4.33262 2.86657,-1.61602 -0.8913,0.27469 -2.01806,2.18551 -2.86657,1.61602 z m 19.27685,0.25915 c 1.6077,-1.32157 7.26478,-2.64165 6.59212,-1.32918 -2.12591,0.7395 -4.37994,0.9827 -6.59212,1.32918 z m 39.22696,-0.83807 c -2.88134,-3.76322 -6.99917,-6.37817 -11.03822,-8.74299 -4.96392,-2.61273 -10.54749,-5.52511 -16.3143,-3.87867 -3.42131,0.84248 -7.16442,0.14557 -10.38616,1.82962 -1.41057,0.22751 -6.25148,2.79418 -5.54954,1.02126 3.53804,-1.39169 6.99349,-3.28928 10.89922,-3.27278 3.51288,-0.28347 6.99756,-1.28757 10.5218,-0.95932 3.74888,0.74297 7.37257,2.00098 10.67902,3.94214 3.75252,1.50855 6.65629,4.46827 9.93373,6.73055 0.67852,0.32331 3.44115,4.11748 1.25445,3.33019 z m -58.97333,-1.38684 c 0.68788,-3.60643 4.96168,-4.67264 7.64829,-6.48512 4.35551,-2.67934 9.04099,-4.79856 13.81828,-6.59741 3.21956,-0.83483 6.6722,-1.32433 9.95586,-0.7587 -1.33867,1.28431 -5.74375,0.50366 -8.24713,1.40101 -6.15168,1.72483 -11.81633,4.8761 -17.30299,8.06032 -1.8083,1.59603 -4.43877,2.94036 -5.87231,4.3799 z m 45.29528,-1.85094 c -2.05285,-3.10572 4.73634,2.58204 0.35415,0.35509 -0.11805,-0.11836 -0.2361,-0.23673 -0.35415,-0.35509 z m -40.43177,0.2547 c 2.12574,-2.63654 5.40341,-3.8984 8.30089,-5.3974 3.45298,0.11041 -2.50513,2.16685 -3.51889,3.01747 -1.51363,0.769 -3.07823,2.5208 -4.782,2.37993 z m 3.90355,-0.004 c 2.29491,-2.18014 5.4695,-3.04763 8.02628,-4.86392 3.5585,-1.58482 7.20338,-3.05985 11.16552,-3.13113 3.23467,-1.10238 6.28881,-0.0337 9.3651,1.0958 1.44842,0.33008 6.67832,2.45663 2.57708,1.60282 -5.8425,-2.21814 -12.33844,-2.11449 -18.33699,-0.60739 -3.84109,1.50147 -7.34923,3.66713 -10.96255,5.59509 -0.58477,0.21491 -1.20925,0.34138 -1.83444,0.30873 z m 40.53544,-0.1475 c -2.4502,-1.66554 -5.32077,-2.16615 -8.15954,-2.5914 -4.53927,-1.29129 -9.2899,-2.38128 -14.03039,-2.05313 -2.67828,-0.12109 -5.66094,1.87071 -8.05421,1.12509 3.12273,-1.29531 6.57244,-1.90074 9.91399,-2.15806 5.02613,-0.35465 9.79108,1.45729 14.63563,2.46944 1.08222,0.27063 7.27514,2.40175 5.69452,3.20806 z m -49.30545,-1.51525 c 1.10343,-3.84795 5.91286,-4.54036 8.87609,-6.49877 5.06607,-2.06477 9.63414,-5.48565 15.20894,-6.14024 1.48134,-0.61319 7.60067,-0.14997 3.00137,0.62617 -3.28097,0.30931 -6.50899,0.92302 -9.49805,2.42807 -4.01143,1.13244 -7.20348,4.01648 -11.09096,5.46148 -2.27564,1.21033 -4.30967,2.73823 -6.49739,4.12329 z m 58.76158,-0.48309 c -3.91513,-2.52175 -7.8902,-4.91451 -12.03829,-7.02751 -2.88803,-1.59451 -6.20522,-2.09196 -9.21847,-3.34711 -2.51389,0.57102 -6.24691,-0.70994 -7.4929,-1.66918 3.32707,-0.68641 7.035,0.79081 10.38826,1.50181 2.95766,1.14331 6.07806,2.12172 8.76993,3.73708 0.80338,1.16946 5.31694,2.76898 2.72182,0.23605 -5.16386,-3.02685 -10.66965,-5.70881 -16.66792,-6.6155 -6.24884,-0.89129 -12.87448,-0.78404 -18.63039,2.08435 -1.56588,0.35264 -5.46332,3.64035 -5.71796,1.26363 2.59502,-1.29261 5.93629,-2.4577 9.09823,-3.38496 5.80759,-1.95367 12.26269,-2.2959 18.10749,-0.31578 5.61488,1.19849 10.81052,3.76866 15.41221,7.16711 1.11392,2.82118 6.55209,4.1825 6.08369,6.91914 l -0.29671,-0.14247 z m 0.12881,-3.75333 c -2.94478,-2.28394 -5.74908,-4.74136 -8.99505,-6.59875 -4.20222,-3.01126 -9.40126,-3.77526 -14.2622,-5.15964 -3.764,-0.64115 -7.74779,-1.18544 -11.50487,-0.18099 -3.49515,0.59824 -6.85192,2.08358 -10.38048,2.7167 -2.69591,1.1461 -5.92825,3.88714 -8.42769,3.8394 3.32797,-2.57132 7.03728,-4.78851 11.22849,-5.82789 3.48586,-1.17879 7.14675,-1.166 10.63212,-2.37712 3.28678,0.35 6.74316,0.34503 9.97782,1.17371 6.48096,1.35397 12.83446,3.99733 18.14281,8.05497 1.58026,0.17664 6.23579,5.84867 3.62965,4.39975 l -0.0406,-0.0401 c 0,0 0,10e-6 0,10e-6 z m -58.90231,0.38109 c 1.71116,-2.88472 5.77394,-2.94006 8.21796,-4.99687 2.419,-1.77372 2.75334,0.78436 0.18659,1.1534 -2.68193,1.66894 -5.68684,2.23183 -8.40455,3.84347 z m 1.71282,-3.23175 c -0.0882,-2.27415 2.53796,1.08893 0,0 z m 2.12417,-1.14612 c 0.5883,-1.9866 1.82801,0.44582 0,0 z m -2.69114,-0.55478 c 0.34953,-1.93662 6.96313,-4.22708 3.23502,-1.38012 -0.88676,0.76735 -2.00191,1.51245 -3.23502,1.38012 z m 56.84761,-0.18899 c -3.16514,-1.08357 -5.25332,-4.03009 -8.4535,-5.11395 -5.59916,-2.94433 -11.92039,-3.98235 -18.14979,-4.58142 -4.06446,-1.13246 -7.83878,0.59694 -11.86427,0.68579 -3.50885,0.91082 -6.80705,2.51477 -10.26996,3.57123 -0.17681,-2.44249 5.08725,-2.03224 6.93023,-3.72376 2.83445,-1.30649 6.23745,-0.15299 9.08591,-1.64013 3.04038,-0.70619 6.07805,0.0969 9.0847,0.27916 2.99219,1.51381 6.26217,1.03062 9.42104,1.7209 4.64737,1.4123 8.99691,3.81585 12.62617,7.01164 4.32605,1.99927 -2.56102,-3.45413 -3.79759,-4.5564 -3.44869,-3.0703 -8.12302,-3.85293 -12.41565,-4.95191 -4.80554,0.32568 -9.60362,-2.27653 -14.32668,-0.51253 -1.56901,-0.91524 -6.51491,2.49752 -5.78325,0.20126 3.401,-1.33159 7.1644,-1.68974 10.79035,-1.76436 3.57728,0.1685 6.87943,1.71189 10.50784,1.47006 5.07444,0.0422 9.64635,2.60044 13.29418,5.95191 1.22077,0.40405 7.71395,7.25991 3.32027,5.95251 z m -55.71368,-3.07128 c 1.47706,-3.26473 8.84984,-3.26053 2.8627,-0.88999 -0.94153,0.33719 -1.91564,0.57021 -2.8627,0.88999 z m 3.73498,-0.0765 c 1.99448,-2.4417 3.21587,1.24162 0,0 z m -4.39644,-1.64516 c 0.99247,-2.20097 1.71114,0.83753 0,0 z m 55.98943,-0.52077 c -0.49794,-2.66116 2.56518,0.76945 0,0 z m -54.26018,-0.52629 c 1.87309,-3.11298 6.44782,-3.44685 9.14358,-5.62964 0.33012,0.4936 -0.56905,2.39038 -1.26709,2.81173 -2.3064,-0.42518 -5.62936,2.21227 -7.87649,2.81791 z M 381.383,453.8637 c -1.05683,-3.39356 -5.22708,-3.92444 -7.69174,-5.97366 -3.0287,-0.88955 -5.89509,-2.13745 -8.7279,-3.51359 -3.16575,-1.19022 -6.6075,-0.98265 -9.90324,-1.57582 -3.24801,0.41381 -6.49098,0.61946 -9.70718,1.4995 -3.78744,0.94576 -7.48275,2.56546 -10.69761,4.66024 -2.31539,-1.88954 4.2692,-3.09833 5.89595,-4.24965 3.63812,-1.19293 7.28071,-2.47036 11.15773,-2.67239 3.93518,-0.61978 7.83521,0.21875 11.69625,0.7686 5.3581,1.80462 10.67455,3.89944 15.48906,6.89271 1.3557,0.22164 6.12264,4.51464 2.48868,4.16406 z m -42.85253,-2.95121 c 0.41435,-2.5943 5.13993,-0.3359 1.21942,-0.38448 -0.47283,-0.20926 -0.8438,0.97544 -1.21942,0.38448 z m -8.09827,-0.31476 c -0.91759,-3.2254 5.621,-1.04949 1.18365,-0.44711 -0.35084,0.20078 -0.7245,0.79419 -1.18365,0.44711 z m 9.27226,-1.70152 c 1.71594,-2.19545 5.59687,-3.05068 8.1631,-3.39489 -0.20698,2.00945 -4.60149,1.52596 -6.24421,3.31777 -0.61502,0.20639 -1.28973,0.24817 -1.91889,0.0771 z m 39.60858,-1.0357 c -4.4275,-2.32756 -8.99148,-4.35942 -13.75594,-5.90116 -3.27823,-1.29678 -6.98947,-1.23912 -10.47822,-1.42678 -3.47732,0.60729 -7.09391,-0.0174 -10.45454,1.10819 -1.95419,0.31264 -7.09123,3.69424 -7.34688,1.44861 3.28373,-0.61654 5.95467,-3.11721 9.41658,-3.12708 3.75726,-0.38036 7.53038,-0.45367 11.26646,-0.75376 3.21571,0.24637 6.24087,0.67997 9.13698,2.12693 3.62024,1.21751 7.02629,3.02607 10.71097,4.05696 0.32802,0.6144 4.77436,3.51876 1.50459,2.46809 z m -48.1754,-0.38129 c 0.17839,-2.53583 7.53607,-4.33681 3.39661,-1.41549 -1.06863,0.61264 -2.23635,1.01715 -3.39661,1.41549 z m 35.2863,-0.4235 c -4.56578,-1.03014 -9.20995,-1.69065 -13.89927,-1.32889 -1.67067,0.31929 -4.54638,-0.73262 -1.27496,-1.02094 3.85374,-0.18049 7.81181,-0.35255 11.61841,0.35126 0.62721,-0.0956 6.08738,2.14458 3.55582,1.99857 z m 9.29213,-3.87642 c -3.69765,-2.02064 -7.79325,-3.06627 -11.70854,-4.54751 -1.59481,-0.23685 -8.19406,-0.80354 -3.4641,-1.47714 4.15479,0.0828 7.84276,2.34908 11.82289,3.31217 0.93145,-0.0324 7.71901,3.80212 3.34975,2.71248 z m -40.37795,-0.86256 c 1.67348,-2.54132 5.14793,-2.81147 7.64893,-4.19472 3.3654,-0.48673 6.99924,-2.32273 10.13692,-1.63996 -3.71496,1.92159 -7.84203,1.81928 -11.59266,3.36564 -2.03237,0.90218 -4.0294,1.90531 -6.19319,2.46904 z m 16.96235,-3.38218 c 0.83607,-2.34928 2.77514,0.95729 0,0 z m 4.39698,-1.55431 c -0.23415,-0.93894 0.77848,0.22672 0,0 z m -1.7794,-0.41882 c 0.50763,-1.69833 0.55684,1.37058 0,0 z m -0.49004,-1.28464 c 0.0919,-0.78482 0.75145,0.47211 0,0 z"
       id="path2830-5" /><path
       d="m 299.68669,48.538017 c -0.88746,1.131027 -3.74048,5.214336 -6.33953,9.074431 -7.24164,10.753066 -9.702,14.268941 -23.86819,34.117747 -17.14771,24.026755 -20.25254,28.477725 -21.11131,30.268675 -0.39277,0.81833 -1.92671,2.91766 -3.41016,4.66385 -1.48273,1.74684 -4.00101,5.17394 -5.59602,7.61596 -4.87446,7.46255 -13.76907,20.25032 -27.09922,38.9607 -17.0523,23.93423 -31.64493,44.84222 -32.2835,46.25445 -0.37723,0.83386 -1.71242,2.80165 -2.96683,4.37315 -1.25455,1.57136 -3.75588,5.01542 -5.55932,7.65266 -3.37787,4.94129 -51.28894,73.29279 -60.49475,86.30513 -9.9802,14.10673 -11.291856,16.39169 -10.34058,18.0241 0.80299,1.37845 0.74206,1.41735 -0.50433,0.32068 -0.965976,-0.84995 -1.710236,-0.71932 -2.329006,0.41029 -0.50128,0.9124 -2.33631,3.53569 -4.07884,5.83015 -1.74246,2.29454 -3.26408,4.73651 -3.38079,5.4272 -0.11744,0.68997 -1.60524,2.78849 -3.30591,4.66237 -1.70074,1.87385 -3.20026,3.86524 -3.33162,4.42382 -0.13294,0.5585 -1.31681,2.3943 -2.632875,4.07883 -1.315272,1.68533 -6.199365,8.50558 -10.852184,15.15635 -4.653564,6.65002 -11.893,16.91648 -16.089277,22.8127 -4.539043,6.37993 -7.543312,11.48929 -7.417782,12.61892 0.135048,1.21991 -0.173969,1.70508 -0.86539,1.35863 -0.758957,-0.37873 -2.672492,1.7594 -6.484155,7.24312 -2.974902,4.27993 -6.668393,9.49426 -8.207562,11.58839 -2.462583,3.3507 -2.584425,4.07737 -1.01733,6.05256 0.979867,1.2353 2.061821,1.96489 2.404582,1.62214 0.80813,-0.80814 34.216836,-48.32141 38.050512,-54.11486 1.607473,-2.42952 9.50163,-13.69275 17.542601,-25.02937 8.04096,-11.33663 19.624186,-27.82886 25.740616,-36.64934 6.11714,-8.81972 15.21655,-21.85042 20.22168,-28.95627 13.01526,-18.47771 35.83312,-51.10177 43.15624,-61.70439 3.44026,-4.98165 6.11346,-9.65724 5.94024,-10.39124 -0.1791,-0.75896 0.15634,-1.22211 0.77945,-1.07462 0.63784,0.15047 4.30649,-4.37527 8.78967,-10.84483 4.2337,-6.10688 8.68099,-12.43029 9.88404,-14.05316 1.20377,-1.62213 5.02788,-7.0464 8.49748,-12.05447 3.46963,-5.00808 7.45965,-10.67602 8.86527,-12.59542 1.89223,-2.58223 2.30401,-4.16692 1.58471,-6.09147 -0.53511,-1.43056 -0.38023,-3.1782 0.34422,-3.88507 1.08921,-1.06138 1.25943,-0.70625 0.98725,2.05741 l -0.32885,3.34115 2.93308,-3.67294 c 1.61329,-2.01998 4.41056,-5.82867 6.21697,-8.46299 1.80561,-2.63506 6.4247,-9.2462 10.26498,-14.69102 7.82221,-11.0944 19.03625,-27.14253 26.26764,-37.59029 2.64236,-3.816793 7.0038,-10.024943 9.69392,-13.794037 27.46844,-38.5005 28.36248,-39.899485 26.6251,-41.636862 -1.94289,-1.942892 -2.72462,-1.786566 -4.89505,0.976971 m 5.72663,4.992652 c -0.80664,2.02362 -0.77728,2.0427 0.82274,0.542541 0.91252,-0.856395 1.53332,-2.091197 1.37916,-2.74443 -0.33176,-1.404894 -1.05031,-0.686328 -2.202,2.201996 M 295.55698,66.4285 c -3.08058,4.589679 -7.61155,11.114222 -10.06828,14.498687 -2.45742,3.38521 -4.07881,6.245607 -3.60393,6.357899 1.07605,0.253952 21.88272,-29.009842 21.94292,-30.862488 0.0617,-1.9025 -1.75423,0.295087 -8.27071,10.005902 m -19.06417,27.177783 c -0.27081,0.536588 -4.4583,6.588377 -9.30489,13.449067 -4.84661,6.86072 -11.25956,15.97183 -14.25206,20.24593 -2.9918,4.2748 -7.8971,11.26027 -10.90063,15.52334 -3.00354,4.26307 -5.46831,8.01823 -5.47858,8.34557 -0.0448,1.54656 1.48269,0.24074 3.90122,-3.33605 1.4614,-2.16161 5.9373,-8.57677 9.94642,-14.25643 16.74839,-23.72727 28.44247,-40.582849 28.45275,-41.008555 0.0176,-0.797127 -1.85261,0.02351 -2.36423,1.037128 M 302.49623,74.1634 c 0.16526,0.697892 -0.32445,1.547232 -1.08782,1.886374 -2.15355,0.96006 -8.78301,10.935116 -7.87211,11.846012 0.44625,0.446255 2.27465,0.6951 4.06193,0.55196 3.08058,-0.245888 8.66047,2.976343 21.43866,12.381084 2.56902,1.8908 11.56931,8.21641 14.50309,10.19454 0.88091,0.59295 1.60014,2.35027 1.60012,3.90489 -1e-5,3.33821 1.05549,4.70786 2.50807,3.25526 0.57178,-0.57177 0.49178,-2.30769 -0.17908,-3.8579 l -1.21916,-2.81781 1.67719,2.47726 c 1.40263,2.07206 1.83125,2.20134 2.61889,0.79272 0.5189,-0.92561 1.8247,-3.01234 2.90444,-4.63671 1.88342,-2.83615 1.8372,-3.04094 -1.16485,-5.18422 -1.71892,-1.22735 -4.02454,-3.14814 -5.12404,-4.26968 -1.57324,-1.606468 -2.3701,-1.70362 -3.74636,-0.46095 -1.37855,1.24477 -1.53998,1.22427 -0.76333,-0.0954 0.7458,-1.266793 0.41176,-2.050038 -1.37626,-3.224451 -1.29852,-0.853552 -6.02541,-4.162497 -10.50575,-7.35246 -4.47958,-3.190719 -8.44979,-5.663532 -8.82124,-5.494723 -1.21987,0.551972 -6.70333,-6.70827 -6.52375,-8.639188 0.19818,-2.12855 -1.48782,-4.265258 -2.53743,-3.215656 -0.38023,0.38023 -0.55563,1.261779 -0.39121,1.959078 m -26.2683,36.05978 c -1.03202,3.12391 -0.85435,4.28362 0.92633,6.06431 1.65957,1.65956 2.62478,1.88491 3.91882,0.91528 1.29982,-0.97411 5.97914,0.14533 19.24912,4.60587 9.64254,3.24061 17.74958,5.6753 18.0153,5.40958 0.2666,-0.2666 1.57292,0.24293 2.90516,1.1318 1.81298,1.20966 2.3312,2.3312 2.06402,4.46274 -0.50574,4.03919 2.09702,3.83514 4.55737,-0.35746 1.0364,-1.766 3.39622,-5.16664 5.24519,-7.55578 3.61056,-4.66752 3.23326,-6.81079 -0.92411,-5.2562 -1.60527,0.60113 -7.23578,-0.59159 -16.24417,-3.44169 -7.58366,-2.39875 -18.80432,-5.95054 -24.93468,-7.89418 -6.13036,-1.94364 -11.67646,-3.17672 -12.32456,-2.74002 -0.64814,0.43675 -1.75209,2.53156 -2.45379,4.65575 m -51.85266,57.51325 c -4.27552,6.22066 -11.54506,16.7271 -16.1553,23.34852 -7.86701,11.30065 -10.22094,15.38538 -6.98034,12.11393 0.77191,-0.77684 5.17835,-6.88419 9.79669,-13.56946 4.61833,-6.68525 10.08809,-14.42749 12.15502,-17.20493 5.59164,-7.51615 13.10338,-18.78157 13.10338,-19.6521 0,-1.51936 -4.29969,3.87857 -11.91945,14.96404 m 35.45513,-33.82857 c -3.70816,5.47419 -4.34014,7.02364 -3.18628,7.80904 0.79278,0.53866 2.24089,0.38091 3.21709,-0.3516 1.50703,-1.12806 2.52278,-0.73621 6.67793,2.57488 3.25969,2.59615 5.42207,3.67366 6.45409,3.21418 1.05179,-0.46901 1.45108,-0.26352 1.23825,0.6393 -0.2261,0.95715 2.99764,3.65828 11.48488,9.62496 11.5025,8.08646 11.80345,8.36832 12.00602,11.21918 0.1152,1.60818 0.53068,3.24645 0.92482,3.64061 0.82723,0.82723 6.98103,-6.82403 7.88316,-9.80033 0.31857,-1.05405 1.41736,-2.48314 2.44128,-3.17677 1.02467,-0.69286 1.5446,-1.57784 1.15681,-1.96564 -0.38831,-0.3883 0.32662,-1.32488 1.5892,-2.08078 2.51979,-1.50838 1.95905,-2.92501 -1.04669,-2.64535 -1.15236,0.10717 -1.79022,0.62025 -1.62713,1.31033 0.43013,1.82032 -3.39252,3.47184 -5.80596,2.50736 -1.97883,-0.7898 -12.77011,-8.07107 -27.20787,-18.35589 -2.79508,-1.99058 -5.42572,-3.7008 -5.84704,-3.80065 -0.42056,-0.0992 -1.20973,-1.58091 -1.75206,-3.29344 -1.06721,-3.36906 -2.73341,-5.52406 -3.49678,-4.5229 -0.2629,0.34338 -2.5587,3.69789 -5.10348,7.45376 m -10.18055,14.32912 c -2.86703,4.8121 -1.92018,7.53525 1.94729,5.60116 1.61698,-0.80814 4.62418,-0.6782 8.13859,0.35233 7.57781,2.2196 9.54932,1.1553 4.56472,-2.46698 -2.05005,-1.48928 -5.3325,-3.92473 -7.29524,-5.41179 -1.96209,-1.4877 -3.86447,-2.59468 -4.22855,-2.45962 -0.36342,0.13427 -1.77112,2.10733 -3.12681,4.3849 m -7.78554,11.01515 c -1.17064,1.49966 -1.85702,3.33678 -1.52451,4.08324 0.33254,0.74645 4.05609,3.74927 8.27435,6.67278 28.1746,19.52367 30.93884,21.76237 31.10983,25.19379 0.12407,2.48755 0.2826,2.66367 1.79168,1.99142 0.91084,-0.40595 3.7655,-3.7433 6.34539,-7.41561 3.58192,-5.10128 4.44363,-7.03904 3.65091,-8.20905 -0.71424,-1.05323 -1.50477,-1.06423 -2.53376,-0.0353 -0.82282,0.82282 -2.39208,1.22505 -3.48721,0.89325 -1.09585,-0.331 -10.13729,-6.31897 -20.09178,-13.3052 -20.22315,-14.19109 -20.31563,-14.24985 -20.95125,-13.28683 -0.25023,0.37958 -1.41355,1.91734 -2.58369,3.41749 m -7.66002,10.60631 c -3.62961,4.25058 -3.8732,3.75455 5.08734,10.34865 8.65604,6.36892 11.04449,4.03185 3.57613,-3.4996 -1.4549,-1.46642 -2.39136,-3.76398 -2.47945,-6.07899 -0.0777,-2.0464 -0.79053,-4.00984 -1.58396,-4.36291 -0.79426,-0.35371 -1.43056,-0.53654 -1.41588,-0.40591 0.0147,0.13066 -1.41747,1.92957 -3.18409,3.99885 m -50.27382,55.78909 c -5.9197,8.61348 -14.99927,21.664 -20.1769,29.00105 -5.17692,7.33778 -15.25472,21.70216 -22.39507,31.92091 -7.14035,10.21873 -14.15957,20.2092 -15.59894,22.20202 -1.4395,1.99267 -2.29229,3.9467 -1.89738,4.3416 0.39562,0.39563 1.12521,-0.0301 1.62211,-0.94689 0.49628,-0.9174 8.11364,-11.96123 16.9275,-24.54344 8.81387,-12.58224 18.18412,-26.00266 20.8221,-29.82389 2.638,-3.82118 5.62244,-8.10332 6.6317,-9.51628 11.81591,-16.54875 29.72402,-42.3415 29.72622,-42.81786 0.008,-1.63021 -5.91524,6.00344 -15.66134,20.18278 m 41.09001,-42.21892 c -1.57232,2.01841 -1.7271,3.04389 -0.62463,4.14636 0.80593,0.80593 1.5605,1.05844 1.67866,0.56151 0.62168,-2.6358 4.89798,-1.2089 12.53744,4.18159 4.47153,3.15474 8.76397,5.73696 9.53758,5.73697 0.77365,0 1.94951,0.54313 2.61379,1.2074 0.66427,0.66428 2.55358,1.11937 4.19994,1.01146 1.64563,-0.10717 2.38844,-0.35526 1.65004,-0.55048 -0.73844,-0.19525 -3.30007,-1.92752 -5.69219,-3.84985 -2.39219,-1.92225 -6.79461,-5.01394 -9.78272,-6.87024 -7.46186,-4.63447 -9.24032,-6.59792 -8.5768,-9.46785 0.30902,-1.33664 0.0448,-2.55358 -0.5872,-2.70257 -1.13915,-0.26863 -2.92425,1.42542 -6.95401,6.59558 m 64.3174,-59.48768 c 1.16784,1.64777 6.08339,7.95362 10.92338,14.01352 4.84002,6.05988 9.18162,11.75206 9.64843,12.64898 1.19347,2.29305 4.68291,0.97479 7.40093,-2.79726 3.05931,-4.24398 2.55282,-5.13652 -2.21523,-3.90781 -3.70886,0.9564 -4.23591,0.78462 -6.47167,-2.11316 -3.89241,-5.04774 -14.14123,-17.6586 -15.37728,-18.92251 -0.62329,-0.6348 -2.23505,-1.32783 -3.58192,-1.53702 -2.30771,-0.35818 -2.32679,-0.20549 -0.32664,2.61526 m -75.91606,77.61602 c 0.47268,0.4727 1.81077,0.98431 2.97196,1.13697 1.16263,0.15266 0.6327,0.2466 -1.17588,0.20698 -2.83028,-0.0602 -3.69568,0.46609 -6.20743,3.77642 -2.50661,3.30373 -2.66955,4.03334 -1.15163,5.17253 1.38503,1.03858 2.28198,0.8081 4.14562,-1.06725 1.30993,-1.31486 2.58802,-2.18299 2.84499,-1.92602 0.25605,0.25605 5.50058,1.0408 11.65296,1.74397 6.15239,0.70318 17.77895,2.06108 25.83678,3.01968 8.05713,0.95789 14.771,1.2302 14.91779,0.60482 0.1475,-0.62466 0.78399,-0.62092 1.41297,0.008 1.2089,1.2089 2.75469,0.21655 3.25676,-2.09117 0.20989,-0.96447 -1.04522,-2.35613 -4.17561,-4.62945 -4.07519,-2.958 -6.66179,-3.49971 -28.83079,-6.03421 -21.96639,-2.511 -28.06885,-2.49191 -25.49838,0.0786 m -15.79422,21.27276 c -3.71035,5.40886 -4.37096,7.00603 -3.3272,8.04979 1.04594,1.04594 1.84822,0.71051 4.0781,-1.70435 3.21991,-3.48736 6.67792,-4.01058 12.99251,-1.96347 2.28642,0.74209 4.64989,0.85512 5.25177,0.25324 1.17293,-1.17293 -1.55388,-3.5298 -10.25176,-8.86157 l -4.11408,-2.52129 -4.62934,6.74765 M 341.97402,87.067136 c 3.79257,5.033061 6.50766,10.207004 5.49472,10.472733 -0.42888,0.111476 -1.24215,1.225532 -1.80637,2.478661 -1.41663,3.13862 0.72447,5.02279 3.057,2.69026 1.00924,-1.00924 1.587,-2.08302 1.2845,-2.38551 -0.30242,-0.30242 0.90795,-2.008963 2.69155,-3.792565 1.7829,-1.782903 3.24131,-3.627479 3.24137,-4.098636 7.2e-4,-0.730335 -5.30683,-4.602201 -10.11379,-7.37891 -0.76702,-0.444091 -2.16384,-1.525262 -3.10261,-2.402412 -3.29135,-3.073856 -3.85866,0.287023 -0.74648,4.416484 M 186.45792,238.81785 c -3.23695,4.69905 -2.8751,7.44788 0.73252,5.57839 2.282,-1.18247 2.59909,-1.01953 15.036,7.74151 5.4477,3.83732 12.02875,8.41161 14.62419,10.16441 6.71901,4.53757 9.83338,7.88241 9.02526,9.69466 -0.3728,0.83832 -0.18059,2.02143 0.4279,2.62992 0.89989,0.89987 1.65957,0.36479 4.08914,-2.88387 4.81576,-6.43939 5.56369,-8.0153 4.37388,-9.20511 -1.15384,-1.15383 -25.70759,-18.32943 -35.19967,-24.62273 -2.91325,-1.93116 -5.80006,-3.98854 -6.41515,-4.57134 -1.41222,-1.34031 -2.7613,-0.23634 -6.69407,5.47416 m 32.64902,-24.84661 c 1.0129,0.60189 4.1515,2.74809 6.97592,4.76805 2.82444,2.01997 7.45891,5.31269 10.29948,7.31649 2.84059,2.00384 5.41471,3.88947 5.71933,4.18968 0.30488,0.29995 1.30797,-0.18644 2.2299,-1.08191 1.55188,-1.50743 1.65225,-1.46136 1.36523,0.63124 -0.17469,1.27864 0.65768,3.22667 1.91649,4.48548 1.30211,1.30211 1.94434,2.85891 1.54799,3.75 -0.37364,0.83747 -0.13066,2.07136 0.53948,2.74148 1.03862,1.03862 1.69113,0.60188 4.40989,-2.94774 1.75509,-2.29218 3.49381,-4.84733 3.86375,-5.67822 1.03713,-2.32751 -0.96006,-3.54815 -3.40722,-2.08309 -2.77891,1.66324 -2.8068,1.65004 -16.81739,-8.31327 -10.08883,-7.17484 -12.32826,-8.37055 -16.10103,-8.60396 -3.30957,-0.2033 -3.93127,-10e-4 -2.54182,0.82577 m -50.96745,51.66915 c -0.9925,1.4297 -1.4768,2.7613 -1.07752,2.95947 0.39931,0.19819 1.09515,0.72814 1.54654,1.17952 0.47197,0.47197 1.30359,-0.007 1.96124,-1.13182 0.62823,-1.0732 2.18881,-2.42072 3.4666,-2.99554 2.84718,-1.2779 10.71713,-0.33397 13.36906,1.60452 1.07164,0.78246 5.81109,4.16694 10.53218,7.51984 6.3366,4.5016 9.1082,7.00016 10.58646,9.5486 1.35131,2.32752 2.33045,3.28758 3.00575,2.94996 0.55112,-0.27538 0.389,0.9806 -0.36114,2.79213 -0.75089,1.81075 -1.05181,3.60466 -0.66942,3.98706 0.3817,0.38169 -0.17614,1.14505 -1.23969,1.69631 -1.5333,0.79494 -1.60004,1.33595 -0.32073,2.61525 1.44598,1.44599 1.84598,1.29111 3.85202,-1.49148 5.97401,-8.28761 4.13827,-19.83708 -4.53466,-28.53645 -4.13536,-4.14852 -4.74749,-4.47445 -5.45435,-2.90002 -0.63783,1.42176 -0.79639,1.40854 -0.80227,-0.0683 -0.0105,-2.72314 -1.57368,-3.8623 -8.90047,-6.48268 -10.34351,-3.69935 -19.40547,-1.2478 -24.95964,6.75353 M 304.2479,130.53602 c -0.30009,0.70843 0.11229,1.94729 0.91823,2.75321 1.26835,1.26836 1.7161,1.07606 3.33971,-1.43131 2.3018,-3.55695 2.29667,-3.48429 0.25466,-4.39444 -1.63019,-0.72592 -3.41453,0.48883 -4.5126,3.07254 M 161.58557,274.50043 c -0.4771,0.734 -1.90399,2.77452 -3.17088,4.5361 -2.62624,3.64946 -1.63094,5.56078 2.15869,4.14344 2.15943,-0.8074 3.54157,-0.24882 8.78963,3.5562 3.42486,2.48387 6.89889,4.83489 7.71949,5.22537 0.81987,0.39121 3.12757,2.02068 5.12699,3.62229 2.00012,1.60231 6.4144,4.78493 9.80842,7.07352 5.8287,3.92912 6.20451,4.35633 6.73371,7.66002 0.73913,4.61026 2.43321,3.89829 6.42178,-2.69889 l 2.969,-4.91121 -3.86741,-3.45639 c -2.12716,-1.90106 -7.78627,-6.14356 -12.57635,-9.42749 -4.78935,-3.28465 -12.84279,-8.93938 -17.89566,-12.56535 -9.47079,-6.79611 -9.57354,-6.81957 -12.2174,-2.75763 m -48.35663,52.20129 c -3.2619,4.81211 -7.00823,10.31417 -8.32575,12.22623 -1.31679,1.91282 -1.87756,3.33385 -1.24559,3.15841 1.28228,-0.35599 18.86745,-25.45289 18.86745,-26.92676 7.5e-4,-1.49075 -2.91472,2.12786 -9.29611,11.54212 m 36.20013,-34.99779 c -1.09514,1.73076 -3.01235,4.60217 -4.26088,6.38211 -2.55139,3.6377 -1.59499,5.5938 2.06401,4.22637 2.20053,-0.82353 3.99221,0.1857 18.69788,10.52995 8.94528,6.2926 16.97448,11.83502 17.8428,12.31577 0.88004,0.48813 1.52893,2.27907 1.46655,4.0473 -0.19085,5.3846 2.2042,4.06708 8.03509,-4.41942 4.31736,-6.28452 4.89501,-7.62113 3.35365,-7.76351 -1.02319,-0.0954 -2.50073,0.46609 -3.28244,1.2478 -0.78246,0.78246 -1.51857,1.02254 -1.63609,0.53508 -0.11745,-0.48739 -7.43471,-5.88743 -16.25957,-11.99942 -18.21125,-12.61083 -21.01001,-15.01177 -20.03817,-17.19319 0.94463,-2.12055 -1.30213,-4.07078 -2.78042,-2.4134 -0.66578,0.7479 -2.10656,2.77453 -3.20243,4.50457 m -56.157566,63.48433 c -2.92866,4.33794 -7.36493,10.80153 -9.85833,14.36364 -2.492667,3.56284 -3.835877,6.03348 -2.98371,5.49106 1.83131,-1.16634 20.462416,-27.05817 21.668376,-30.11235 1.39756,-3.53933 -2.826626,1.36892 -8.826336,10.25765 m 41.924596,-43.21936 c -1.25295,1.97666 -2.84059,4.495 -3.52688,5.59674 -2.06178,3.30961 1.34177,3.78746 4.49724,0.632 3.01966,-3.01968 6.15237,-3.48945 12.80166,-1.91944 4.42382,1.04447 7.81929,-0.43232 4.77248,-2.07574 -0.91824,-0.49544 -4.27704,-2.7503 -7.46479,-5.01322 -6.41515,-4.55227 -6.43203,-4.54858 -11.07971,2.77966 m -8.72945,12.55653 c -5.8096,8.22447 -6.40857,11.54506 -1.70437,9.43188 2.83253,-1.27199 3.90708,-0.75529 14.41061,6.92381 0.93293,0.68193 6.86438,4.91782 13.18045,9.41357 10.67309,7.59615 11.46141,8.32283 11.15531,10.29213 -0.69731,4.4906 1.33075,4.19335 5.22754,-0.76483 5.50795,-7.00822 6.35278,-8.68248 5.08662,-10.07635 -0.72518,-0.79857 -0.67307,-1.06207 0.14022,-0.71564 1.76157,0.74866 2.87579,-0.55637 1.58098,-1.85119 -0.59969,-0.59969 -2.01339,-0.28995 -3.28981,0.72076 -2.42673,1.92296 -3.28463,1.49813 -17.97709,-8.91072 -3.30815,-2.34367 -7.62407,-5.29436 -9.59192,-6.5561 -1.96711,-1.26247 -6.35717,-4.3049 -9.75411,-6.76086 -3.3977,-2.45524 -6.35056,-4.20287 -6.56196,-3.88139 -0.21075,0.32067 -1.06728,1.55163 -1.90253,2.73487 m 87.15509,-85.64598 c -2.47213,3.04609 -2.46624,3.09014 0.68702,5.59308 4.36144,3.46301 4.79082,3.44759 7.87217,-0.28258 2.56834,-3.10987 2.58218,-3.3999 0.27377,-5.70832 -2.67985,-2.67984 -5.45288,-4.19186 -5.99386,-3.26777 -0.19161,0.32804 -1.46931,1.97754 -2.8391,3.66559 m -98.93798,102.4641 c -2.7312,4.40183 -2.92938,6.733 -0.52335,6.16486 0.94247,-0.22312 1.82911,-0.89106 1.96927,-1.48491 0.33987,-1.43936 3.15547,-0.73767 5.22242,1.30139 0.91373,0.9022 1.98475,1.31828 2.37818,0.92485 0.39635,-0.39636 1.46653,0.41104 2.39944,1.80931 2.08162,3.12391 11.30726,9.2873 13.89974,9.28728 1.05108,0 2.48018,0.26937 3.17455,0.59821 5.90281,2.798 -7.68057,-7.97418 -20.00297,-15.86467 -1.77847,-1.13842 -2.35976,-2.29231 -2.19904,-4.3658 0.12037,-1.55024 -0.20334,-3.24063 -0.71934,-3.75664 -1.06427,-1.06427 -2.38182,0.20333 -5.59904,5.38598 m -50.714202,55.74069 c -6.114942,8.82193 -14.72331,21.02245 -19.130249,27.1117 -8.014521,11.07681 -11.497372,17.06402 -8.035824,13.81682 0.880636,-0.82519 6.186881,-8.07032 11.793175,-16.09881 5.604818,-8.02849 14.27703,-20.42058 19.271901,-27.53672 4.994847,-7.11614 9.106738,-13.54007 9.139739,-14.27483 0.08145,-1.87095 -0.467539,-1.15601 -13.038742,16.98184 M 346.5679,119.64104 c -8.92176,12.87801 -20.32077,29.2242 -25.33106,36.32487 -12.10588,17.1602 -17.16896,24.76444 -17.16898,25.78468 -7.3e-4,1.41151 1.18395,-0.15485 13.55038,-17.92646 6.5656,-9.43555 14.1258,-20.25179 16.80122,-24.03553 2.67542,-3.78378 8.93426,-12.71874 13.90782,-19.85615 4.97431,-7.13668 10.68632,-15.21067 12.69455,-17.94263 2.00747,-2.731199 4.38489,-6.29917 5.28257,-7.929404 l 1.63095,-2.963868 -2.57146,2.56652 c -1.41541,1.41047 -9.87304,13.101162 -18.79551,25.978432 M 99.654644,363.03938 c -4.23003,5.43673 -4.55739,6.45258 -2.68277,8.32722 1.46359,1.46359 2.18955,1.45259 3.694966,-0.0528 1.82106,-1.82106 10.35819,-3.51 11.57736,-2.29083 0.6929,0.6929 13.0263,2.47139 23.95847,3.45494 4.07369,0.36698 10.75456,1.13327 14.84515,1.70362 6.08559,0.84923 7.63359,0.66939 8.51145,-0.98651 1.51425,-2.85451 1.60893,-2.68497 -3.47108,-6.27055 -4.16767,-2.94335 -6.88271,-3.51365 -28.54522,-5.99824 -13.23475,-1.51717 -24.39156,-2.21303 -24.95014,-1.55463 -0.5556,0.6555 -1.87828,2.30552 -2.938186,3.66781 M 365.63761,97.606801 c -2.7951,4.260129 -15.46903,22.427359 -20.2092,28.968739 -4.57356,6.31169 -17.22477,24.34164 -20.88376,29.76224 -1.62654,2.41044 -3.92982,5.72225 -5.11816,7.35979 -4.28731,5.90942 -29.61689,41.97598 -36.64053,52.17338 -3.95183,5.73696 -7.04123,10.78321 -6.86438,11.21406 0.17683,0.43094 -0.28915,1.0555 -1.03723,1.3879 -1.16557,0.51967 -35.01249,47.93529 -42.51542,59.55892 -2.57416,3.98781 -5.68264,8.4263 -35.97479,51.37116 -8.68247,12.30988 -17.26441,24.53685 -19.06929,27.17265 -11.64857,17.00383 -27.30992,39.45908 -30.7612,44.10674 -5.6819,7.65194 -47.141086,66.66405 -50.126996,71.34992 -1.34397,2.10729 -0.59087,3.5474 2.17922,4.16833 1.37187,0.30758 2.599826,-1.00555 7.613716,-8.14523 3.28686,-4.68145 6.45258,-9.85395 7.03319,-11.49295 0.61509,-1.7352 1.36011,-2.6769 1.78352,-2.25348 0.40005,0.40004 1.12303,-0.0337 1.60601,-0.96299 0.90282,-1.73519 12.55358,-18.83371 15.91457,-23.3544 1.03271,-1.38948 3.36391,-4.67339 5.17981,-7.29818 1.81593,-2.62477 6.73005,-9.60143 10.91973,-15.50425 4.18894,-5.90356 11.25807,-16.01001 15.70831,-22.45966 4.44952,-6.45037 9.62786,-13.82341 11.50619,-16.38579 4.03918,-5.51016 22.56459,-31.88641 31.49444,-44.84149 3.45934,-5.01836 7.43907,-10.61732 8.84396,-12.44203 1.40561,-1.82398 3.72136,-5.12334 5.1468,-7.33119 1.42543,-2.20787 6.84968,-9.9956 12.05447,-17.30549 5.20478,-7.30993 9.36731,-13.71698 9.25061,-14.23739 -0.11671,-0.52041 1.16045,-2.35246 2.83689,-4.07151 4.69103,-4.80985 20.18792,-27.75398 19.82974,-29.35996 -0.19305,-0.8698 -0.007,-1.12451 0.47631,-0.65553 0.54614,0.53134 2.26586,-1.2955 5.52833,-5.87067 6.93775,-9.73283 7.37225,-10.60188 6.02465,-12.04492 -1.08329,-1.15981 -1.00269,-1.27125 0.68561,-0.95415 1.70727,0.32002 3.14594,-1.37847 13.32135,-15.73622 6.27351,-8.85132 14.29466,-20.40593 17.82374,-25.67602 3.5283,-5.27087 7.57485,-11.06575 8.99148,-12.87877 1.41726,-1.8123 5.42132,-7.38697 8.899,-12.38697 3.47771,-5.00001 8.30081,-11.87831 10.7186,-15.28555 2.41705,-3.40793 3.99296,-6.29034 3.50117,-6.40634 -0.49241,-0.11679 -0.14758,-0.64804 0.76643,-1.18309 0.91391,-0.53497 5.60333,-6.58103 10.42203,-13.43439 4.81945,-6.85408 11.08196,-15.7575 13.91738,-19.78492 5.69876,-8.093096 7.03169,-10.584306 6.14209,-11.473896 -1.08191,-1.081927 -3.8021,-2.036122 -4.19995,-1.473876 -0.21583,0.304036 -1.43863,2.147704 -2.71872,4.097194 M 232.34819,238.02573 c 0.36846,1.21549 1.59863,3.14298 2.73341,4.28069 3.4435,3.45171 4.17646,9.14416 1.72782,13.3984 -1.27934,2.22184 -1.73001,4.20952 -1.0973,4.84222 1.29989,1.29989 1.63533,0.97914 7.69378,-7.34146 4.76656,-6.54583 4.78346,-6.60527 2.56459,-8.80359 -3.48444,-3.45333 -6.30581,-4.73651 -7.67838,-3.49017 -0.79704,0.72381 -1.05626,0.67009 -0.70903,-0.14679 0.63784,-1.5025 -3.11951,-5.60777 -4.77616,-5.21653 -0.62033,0.14596 -0.82652,1.26096 -0.45874,2.47724 M 82.445674,389.55624 c 1.02614,0.60041 3.25309,0.74282 4.94936,0.31636 1.69701,-0.42717 4.85249,-0.12402 7.01264,0.67236 11.125926,4.10304 30.057276,20.66061 29.287286,25.61582 -0.35746,2.30549 2.41999,4.57209 3.85056,3.14152 2.29522,-2.29522 2.59544,-11.70288 0.44335,-13.93569 -0.66928,-0.69594 -1.10761,-1.72859 -0.97475,-2.29596 0.13419,-0.5675 -1.44672,-3.154 -3.51365,-5.74796 -8.08427,-10.14681 -23.15843,-16.91353 -32.781886,-14.7152 -6.675,1.52375 -11.136957,5.27232 -8.27291,6.94875 m -5.77291,7.91619 c -0.615797,5.20333 3.085736,15.11598 5.447002,14.58676 1.197898,-0.26865 1.374048,-0.12478 0.697318,0.56961 -0.631002,0.64762 0.54682,2.38182 3.88283,5.71784 10.98506,10.98505 28.842526,14.42678 36.277946,6.99136 1.7359,-1.7359 1.91501,-2.56239 0.79638,-3.68102 -0.79273,-0.79271 -2.56239,-1.10318 -3.93131,-0.68848 -4.22416,1.27934 -7.84276,0.36478 -15.10347,-3.81607 -9.461256,-5.44921 -18.647996,-13.25015 -20.922666,-17.76794 -0.98574,-1.95609 -1.48782,-3.86155 -1.11494,-4.23443 0.37214,-0.37213 -0.149,-1.5025 -1.158252,-2.51175 -2.390636,-2.39064 -4.232233,-0.56369 -4.871897,4.83306 m 73.003585,-73.66125 c 1.34982,0.79051 1.73958,2.3121 1.38947,5.4294 -0.56591,5.02717 1.86729,7.42219 4.6807,4.60878 1.03788,-1.03787 2.94993,-1.47902 4.76953,-1.09952 3.90929,0.81475 6.03786,-1.06872 3.17443,-2.80767 -1.13037,-0.68556 -4.66824,-3.09307 -7.86188,-5.35013 -4.17205,-2.94774 -6.12009,-3.78891 -6.91795,-2.99105 -0.75528,0.75528 -0.50939,1.4636 0.76556,2.21007 m -91.642021,97.36282 c 0.422773,1.79095 3.467398,2.43247 6.575161,1.38726 1.461391,-0.49104 5.077094,-0.1754 8.034352,0.70317 6.032755,1.79168 8.777173,2.01702 8.777184,0.7208 -1.1e-5,-1.22433 -12.867756,-10.26793 -13.115111,-9.21757 -0.111592,0.47116 -0.6907,0.0227 -1.287437,-0.99675 -0.75455,-1.28892 -1.44603,-1.49145 -2.270992,-0.66649 -0.653255,0.65326 -0.81841,1.55534 -0.367,2.00676 0.807403,0.80739 -1.463612,2.70111 -4.922213,4.10451 -0.94684,0.38462 -1.587528,1.26627 -1.42399,1.95828 m -4.367274,6.5018 c -0.858777,2.99766 0.712705,12.56385 2.386226,14.52804 0.594573,0.69726 1.790234,2.21007 2.65782,3.36097 2.788461,3.70156 7.557981,8.40649 10.518196,10.37437 5.433062,3.61129 6.290372,3.88728 7.015552,2.25778 0.577653,-1.2955 0.734779,-1.21915 0.888146,0.43307 0.151192,1.628 0.922638,2.18071 4.082486,2.92424 7.955839,1.87245 15.327379,0.49473 19.459795,-3.63769 1.23165,-1.23165 1.37698,-2.1976 0.46608,-3.1085 -1.618436,-1.61844 -4.428196,-1.72268 -5.140176,-0.19009 -0.59453,1.27863 -11.06577,-2.16675 -16.644914,-5.47638 -2.026569,-1.20302 -7.136675,-5.20773 -11.35569,-8.89826 -7.066973,-6.1847 -7.714328,-7.00382 -8.226666,-10.43014 -0.613633,-4.09131 -3.046836,-7.24972 -4.44511,-5.77071 -0.490439,0.51809 -1.237529,2.15356 -1.661757,3.63331 m 53.959983,-54.46934 c 0.61556,0.6205 6.20081,4.61391 12.41046,8.87552 18.44319,12.65634 17.44789,11.79611 17.29081,14.94056 -0.25176,5.06092 1.54948,5.38535 4.89872,0.88227 1.63535,-2.19905 3.48136,-5.14314 4.10087,-6.54214 1.07162,-2.42074 1.01657,-2.51689 -1.12009,-1.98327 -4.64329,1.15973 -7.238,0.60114 -11.1891,-2.41044 -13.02261,-9.92221 -19.73723,-14.04728 -23.53863,-14.45906 -2.5213,-0.2738 -3.5643,-0.0191 -2.85304,0.69656 m -8.467456,14.29383 c -0.80667,2.02365 -0.77731,2.04272 0.82282,0.54241 0.912506,-0.85641 1.533326,-2.09115 1.379176,-2.74441 -0.33175,-1.40488 -1.05036,-0.68628 -2.201986,2.20199 M 298.82558,187.87066 c -2.55066,3.84543 -17.50664,25.2929 -33.77352,48.43441 -5.66573,8.06006 -13.41677,19.13611 -17.22477,24.61321 -7.9705,11.4658 -10.26791,14.75414 -20.22533,28.95261 -8.22155,11.7227 -11.33882,16.87906 -8.78525,14.53539 0.88894,-0.81686 3.05329,-3.60702 4.80989,-6.2001 4.42456,-6.53553 18.69276,-26.94586 27.11174,-38.78084 3.85938,-5.42573 12.44131,-17.65269 19.07003,-27.17194 20.8911,-29.99855 25.22022,-36.18175 29.32257,-41.8754 2.19758,-3.05049 3.99806,-6.1722 4.00026,-6.93629 0.005,-1.62139 -0.92834,-0.66147 -4.30566,4.42892 m -84.03118,120.02065 c -0.24723,0.56017 -5.36407,7.99472 -11.36964,16.52234 -6.00632,8.52686 -16.22801,23.07766 -22.7158,32.33414 -6.48783,9.25645 -17.26075,24.57722 -23.94014,34.04582 -15.48225,21.9473 -18.5878,26.52821 -18.58706,27.42002 -7.3e-4,2.17924 0.0954,2.04638 58.00431,-80.89481 11.04667,-15.8221 20.40663,-29.0884 20.79859,-29.48036 0.39269,-0.39269 0.38315,-1.04375 -0.0206,-1.44744 -0.74723,-0.74723 -1.36377,-0.3215 -2.16972,1.50029 M 234.947,288.408 c 2.88828,-1.15164 3.60686,-1.87023 2.202,-2.20199 -0.65326,-0.15415 -1.88786,0.46682 -2.74443,1.37918 -1.50025,1.60015 -1.48128,1.62941 0.54241,0.82283 M 94.385864,434.84062 c 0.4037,0.4037 1.22945,0.23855 1.835,-0.36701 0.60555,-0.60555 0.77071,-1.4313 0.36701,-1.83499 -0.40373,-0.40372 -1.22947,-0.23857 -1.83503,0.36698 -0.60555,0.60555 -0.77071,1.4313 -0.36698,1.83502 m 3.48281,3.12316 c 1.2023,0.8162 1.93703,1.73297 1.63314,2.03685 -0.30387,0.30388 0.0741,1.59937 0.840426,2.87947 0.76631,1.28009 0.94834,3.51587 0.40518,4.96918 -0.986496,2.638 1.59792,6.92382 3.20611,5.31564 1.64123,-1.64123 2.00674,-7.25193 0.68188,-10.47639 -1.98914,-4.8444 -6.255126,-8.90634 -7.766436,-7.39503 -0.8698,0.86978 -0.60335,1.5825 0.9997,2.67028 m 29.580926,-5.29139 c -10.21069,14.46932 -25.33695,36.19717 -31.029106,44.57284 -1.96052,2.88387 -2.9081,4.81505 -2.10658,4.29096 0.80307,-0.524 3.86371,-4.39967 6.801976,-8.61202 7.67541,-11.00193 28.90638,-41.27129 33.18412,-47.31064 3.48503,-4.91928 4.26454,-6.51939 3.09965,-6.3572 -0.29514,0.0411 -4.77317,6.07826 -9.95006,13.41606"
       stroke="none"
       fill="#c02123"
       fill-rule="evenodd"
       id="path1"
       style="fill:#c02123;fill-opacity:0.594231;stroke-width:1.03803" /></g></svg>
