<?xml version="1.0" encoding="UTF-8" standalone="no"?>
<!-- Created with Inkscape (http://www.inkscape.org/) -->

<svg
   width="103.02838mm"
   height="108.62301mm"
   viewBox="0 0 103.02838 108.62301"
   version="1.1"
   id="svg1"
   xml:space="preserve"
   xmlns="http://www.w3.org/2000/svg"
   xmlns:svg="http://www.w3.org/2000/svg"><defs
     id="defs1" /><g
     id="layer1"
     transform="translate(-4.0862833,-2.9187521)"><path
       d="m 55.073457,3.1618058 c -0.146579,0.186795 -0.892175,1.411022 -1.656556,2.72071 -0.764116,1.309687 -1.423194,2.418027 -1.463939,2.463006 -0.04101,0.04498 -1.426898,0.259027 -3.07975,0.475192 C 36.258937,10.472243 24.261935,17.025178 16.242943,26.643578 3.8824039,41.469508 0.69338087,61.454538 7.8474499,79.257558 l 1.310216,3.26046 -1.245658,2.1635 c -0.685271,1.18983 -1.411552,2.42834 -1.614223,2.75219 -0.260614,0.41699 -0.286014,0.67099 -0.08625,0.87075 0.15531,0.15531 1.726406,0.3548 3.491706,0.4437 l 3.2096611,0.16114 1.848114,2.42675 c 10.125604,13.296112 26.351971,20.877222 43.145868,20.158872 4.312705,-0.18468 7.256455,-0.64479 11.499585,-1.79731 3.41709,-0.92842 7.82267,-2.60403 9.79937,-3.72692 0.29104,-0.16537 1.12448,-0.61516 1.85208,-0.99986 1.62613,-0.85937 3.67348,-2.18149 3.79228,-2.44925 0.0487,-0.10927 0.24421,-0.19844 0.43471,-0.19844 0.19076,0 0.42174,-0.19553 0.51355,-0.43471 0.0915,-0.23918 0.23336,-0.36803 0.31486,-0.28654 0.0815,0.0812 0.36115,-0.0505 0.62177,-0.2929 0.26035,-0.24262 0.86571,-0.73818 1.34487,-1.10119 2.50323,-1.896802 6.30159,-5.794642 8.2513,-8.467992 0.68977,-0.94589 1.4515,-1.98755 1.69254,-2.31511 0.40402,-0.54874 0.6477,-0.59557 3.113351,-0.59901 2.92682,-0.004 3.86556,-0.15796 3.86556,-0.63447 0,-0.17145 -0.65563,-1.49702 -1.45679,-2.94561 -0.80116,-1.44859 -1.40415,-2.75299 -1.33959,-2.89851 3.51949,-7.94782 4.91781,-14.37746 4.90829,-22.56922 -0.0124,-10.54973 -3.01043,-20.22475 -8.984721,-28.99516 -8.22114,-12.06844 -21.29579,-20.07235 -35.92645,-21.9929602 -1.53273,-0.201084 -2.91306,-0.491861 -3.06731,-0.646113 -0.15426,-0.154252 -0.940594,-1.373717 -1.747044,-2.709862 -1.516063,-2.511161 -1.861079,-2.850092 -2.315634,-2.271977 m 0.147638,2.866495 c -0.240506,0.136525 -0.793221,0.873919 -1.22846,1.63883 -0.43524,0.764645 -1.653646,2.8786662 -2.707482,4.6976772 -1.0541,1.81901 -3.254904,5.62901 -4.891087,8.46667 -7.782983,13.49904 -10.390188,18.01415 -17.658292,30.57974 -4.299214,7.43268 -8.527256,14.75502 -9.395883,16.27188 -0.868627,1.51685 -2.922852,5.07947 -4.565121,7.91713 -5.4448601,9.40805 -6.0602811,10.48781 -6.2317311,10.93417 -0.158485,0.41301 3.0014341,0.44291 46.9542811,0.44291 25.918315,0 47.124136,-0.0537 47.124136,-0.11959 0,-0.0656 -0.81518,-1.52427 -1.81186,-3.24115 -0.996421,-1.71688 -3.216011,-5.56233 -4.932631,-8.54551 -1.71635,-2.98318 -3.75867,-6.52516 -4.53813,-7.87136 -3.60574,-6.22617 -4.41087,-7.6192 -6.76699,-11.70781 -1.3835,-2.40109 -3.68061,-6.38969 -5.1046,-8.86354 -1.42399,-2.47385 -4.31033,-7.47448 -6.41377,-11.1125 -2.10343,-3.63802 -5.19774,-8.99583 -6.87572,-11.90625 C 57.799195,9.0789468 56.227834,6.3870758 55.95452,6.0960348 55.757141,5.8859558 55.511607,5.8632008 55.221095,6.0283008 M 48.96026,11.25197 c -0.83529,0.08625 -0.868628,0.130704 -0.697442,0.932392 0.338931,1.586706 0.527314,1.638829 1.250156,0.345281 0.374121,-0.669396 0.600075,-1.25095 0.502179,-1.29249 -0.0979,-0.0418 -0.572823,-0.03493 -1.054893,0.01482 m 12.425629,1.137708 c 2.98847,5.221817 3.80391,6.589707 3.92747,6.589707 0.16431,0 2.3831,-5.851519 2.3831,-6.284377 0,-0.337609 -3.15462,-1.108869 -5.40702,-1.322123 l -1.57083,-0.148961 0.66728,1.165754 M 45.471464,11.882737 c -1.98464,0.425185 -6.732588,1.822979 -6.962246,2.049727 -0.201877,0.199231 4.283604,9.549074 4.577556,9.541144 0.07461,-0.002 1.173427,-1.81743 2.441575,-4.0349 l 2.306109,-4.031192 -0.161661,-1.918229 c -0.178329,-2.119048 -0.09446,-2.057929 -2.201333,-1.60655 m 8.953764,1.871133 c -1.034521,1.830387 -5.287962,9.210938 -10.331185,17.925518 -3.94679,6.82017 -5.929048,10.25287 -16.958469,29.36875 -4.660106,8.07641 -9.465468,16.38644 -10.678847,18.46686 -1.21338,2.08042 -2.206096,3.89625 -2.206096,4.0349 0,0.15901 15.27175,0.25241 41.274999,0.25241 22.701249,0 41.274999,-0.0699 41.274999,-0.15505 0,-0.13758 -1.46262,-2.69398 -7.93512,-13.86787 -0.96917,-1.67349 -2.72468,-4.70958 -3.90101,-6.74687 -1.17634,-2.03729 -4.54502,-7.87136 -7.48586,-12.96459 -10.09412,-17.48181 -14.06631,-24.38294 -18.53644,-32.20534 -1.806315,-3.16098 -3.351481,-5.750458 -3.433502,-5.754691 -0.08202,-0.0042 -0.569648,0.7366 -1.083469,1.645973 m 13.946451,-0.79375 c -0.0561,0.182033 -0.18071,0.86651 -0.27702,1.521354 -0.096,0.654844 -0.39952,2.613025 -0.67416,4.351604 l -0.49953,3.16071 1.50627,2.59398 c 0.82868,1.42636 1.58618,2.59371 1.68381,2.59371 0.16034,0 1.54676,-2.07328 5.92561,-8.8609 l 1.46844,-2.27621 -1.66794,-0.756179 c -1.4306,-0.648759 -6.91065,-2.658798 -7.24852,-2.658798 -0.0632,0 -0.16087,0.14896 -0.21696,0.330729 m -34.424671,2.950104 c -1.883569,0.931333 -3.759994,1.958444 -4.169834,2.282294 l -0.745331,0.5887 0.646906,0.69427 c 0.3556,0.38205 2.517511,3.01625 4.80404,5.8539 2.286529,2.83766 4.256087,5.19589 4.376737,5.24034 0.281517,0.10425 2.114021,-3.15912 2.114021,-3.76449 0,-0.70168 -3.242204,-12.588347 -3.433762,-12.588347 -0.0926,0 -1.709209,0.762 -3.592777,1.693333 m 43.936971,0.686065 c -0.0775,0.125677 -1.38853,3.462069 -2.91306,7.414149 l -2.77178,7.18582 0.68422,1.16761 c 0.37623,0.64188 0.76967,1.22026 0.87444,1.28508 0.10451,0.0646 2.91756,-2.6117 6.25079,-5.9473 5.80866,-5.81263 6.03911,-6.08224 5.53931,-6.47594 -2.63498,-2.07698 -7.44537,-4.982638 -7.66392,-4.629419 M 52.44297,23.014288 c -3.423973,5.95286 -4.132527,7.1792 -12.342548,21.3651 -3.411008,5.8936 -6.163204,10.75981 -6.116108,10.81379 0.04736,0.054 0.775758,-0.51806 1.61925,-1.27106 1.740694,-1.55443 5.325798,-4.05315 7.48665,-5.21811 7.507287,-4.0476 15.518875,-4.36748 22.889105,-0.91361 3.21627,1.50707 5.15514,2.73526 8.26558,5.2361 1.49146,1.19936 2.71198,2.11905 2.71198,2.04418 0,-0.12092 -1.92246,-3.4798 -7.93591,-13.86629 -0.96891,-1.67349 -2.72256,-4.70958 -3.89678,-6.74687 -1.17449,-2.03729 -3.63961,-6.29576 -5.47794,-9.46362 -1.838323,-3.16759 -3.477152,-6.05472 -3.641723,-6.41614 -0.164571,-0.36116 -0.374121,-0.6567 -0.465667,-0.6567 -0.09128,0 -1.484577,2.29182 -3.095889,5.09323 m -26.286089,-2.32225 c -2.640807,1.9976 -5.215202,4.26905 -5.027084,4.43521 0.07276,0.0646 2.334948,1.88966 5.027084,4.05606 2.692135,2.16668 5.897562,4.75589 7.123112,5.75416 l 2.228585,1.81478 0.604044,-1.00066 0.604044,-1.00091 -4.023254,-7.88088 c -2.212711,-4.33441 -4.082521,-7.88035 -4.155281,-7.87982 -0.07276,5.3e-4 -1.144323,0.76649 -2.38125,1.70206 m 55.165358,9.17416 c -2.76463,4.24154 -5.05566,7.84305 -5.09085,8.00365 -0.0354,0.1606 0.14976,0.56779 0.4117,0.9054 l 0.47572,0.61331 7.79039,-5.07233 c 4.28466,-2.7895 7.89199,-5.16758 8.01634,-5.28426 0.12409,-0.11668 0.10478,-0.42783 -0.0429,-0.69188 -0.39608,-0.70776 -5.93937,-6.1857 -6.25951,-6.1857 -0.15081,0 -2.53603,3.47028 -5.30093,7.71181 m -62.360967,-2.61858 c -2.059781,2.36617 -4.207933,5.27817 -4.110302,5.5716 0.114565,0.34316 0.786342,0.70511 9.716823,5.23478 7.109619,3.60627 7.83299,3.91795 8.135938,3.50388 0.182827,-0.25004 0.329141,-0.58076 0.325437,-0.73475 -0.0061,-0.24712 -3.229769,-4.29128 -10.083271,-12.64947 -1.163373,-1.41869 -2.211916,-2.57968 -2.330185,-2.57968 -0.118269,0 -0.862806,0.74427 -1.65444,1.65364 m 67.405517,9.17681 c -6.53468,6.52992 -7.0956,7.16148 -6.75561,7.60439 0.20399,0.26564 0.38682,0.51461 0.40614,0.55351 0.0381,0.0759 18.70657,-7.07152 18.85976,-7.22075 0.27146,-0.26431 -4.79875,-8.04042 -5.25145,-8.05418 -0.0728,-0.002 -3.33931,3.2004 -7.25884,7.11703 m -73.165496,-1.25439 c -1.430866,2.26272 -3.3279291,6.52886 -3.028685,6.81064 0.132821,0.12515 4.349221,1.32001 9.369689,2.65509 5.020469,1.33536 9.332648,2.4855 9.582415,2.55588 0.321469,0.0907 0.50456,-0.073 0.627062,-0.56065 0.09499,-0.37889 0.128852,-0.7202 0.07488,-0.75883 -0.389731,-0.27887 -10.181166,-8.14996 -12.460551,-10.01659 -1.560778,-1.27821 -2.903273,-2.3241 -2.983442,-2.3241 -0.0799,0 -0.611717,0.73739 -1.181365,1.63856 m 82.474593,4.92257 c -1.71027,1.12078 -5.37131,3.50758 -8.13594,5.30384 -2.7649,1.79626 -5.02682,3.35121 -5.02682,3.45519 0,0.10399 0.15743,0.40429 0.34978,0.66728 0.33576,0.45932 0.52943,0.4498 4.82865,-0.23574 2.46327,-0.39291 5.13371,-0.81412 5.93407,-0.93636 5.99996,-0.91625 8.879681,-1.3925 8.977311,-1.48511 0.16299,-0.15478 -1.48272,-4.93077 -2.42702,-7.04268 -0.440271,-0.98425 -0.933191,-1.78382 -1.095641,-1.77694 -0.16245,0.007 -1.69439,0.92975 -3.40439,2.05052 m -86.3369801,3.36074 c -0.457729,1.09511 -1.87616,6.51325 -2.008981,7.67292 l -0.09075,0.79375 8.0697911,0.44291 c 11.367558,0.62415 10.959835,0.63182 11.347185,-0.21855 0.175948,-0.38602 0.224896,-0.78501 0.108744,-0.88661 -0.116152,-0.10187 -3.996266,-2.11085 -8.622241,-4.46458 l -8.4113691,-4.27937 -0.392377,0.93953 m 84.7806981,7.2599 c -4.45744,1.71688 -8.23172,3.20014 -8.38703,3.29592 -0.18653,0.11536 -0.10239,0.47995 0.24818,1.07368 0.49001,0.83079 0.65511,0.91122 2.16932,1.05674 2.29341,0.2204 15.894051,0.8853 16.076081,0.78608 0.20691,-0.11298 -0.19156,-3.77243 -0.68871,-6.32857 -0.54054,-2.7776 -0.62944,-3.04615 -0.99986,-3.02392 -0.17224,0.0103 -3.960281,1.42319 -8.417981,3.14007 m -43.88564,-1.73461 c -2.869936,0.77259 -5.22605,1.8595 -8.136202,3.75365 -2.156354,1.40335 -3.969544,2.7596 -3.68935,2.7596 0.06667,0 1.724819,-0.53578 3.684587,-1.19062 8.6868,-2.90275 15.036271,-3.23215 23.089915,-1.19777 1.60073,0.40428 3.85657,1.10358 5.01306,1.55363 1.1565,0.45032 2.14472,0.77655 2.19604,0.72522 0.0513,-0.0511 -0.71622,-0.70458 -1.70576,-1.45176 -2.36829,-1.78832 -7.6163,-4.37171 -10.24943,-5.04534 -2.97365,-0.76042 -7.172852,-0.72205 -10.20286,0.0934 m -43.2498501,4.06586 c -0.09869,0.25479 -0.249502,2.41644 -0.334962,4.80404 l -0.155575,4.34101 0.769673,-0.15372 c 0.423333,-0.0844 3.9153041,-0.64426 7.7602291,-1.24433 3.84466,-0.60008 7.077868,-1.14486 7.18476,-1.211 0.288396,-0.17807 1.630627,-2.52598 1.512094,-2.64451 -0.138642,-0.13891 -15.8744711,-4.35425 -16.2544121,-4.35425 -0.166423,-2.6e-4 -0.383117,0.20796 -0.481807,0.46276 m 43.7896001,1.27502 c -1.958711,0.35666 -3.685117,0.77259 -3.836459,0.92419 -0.154781,0.15531 -0.273843,1.45495 -0.272256,2.97392 0.0024,2.41512 0.07752,2.84057 0.715963,4.05553 2.174875,4.13994 6.580452,5.97297 11.073862,4.60825 1.67164,-0.50773 2.14075,-0.8001 3.55627,-2.21694 2.01242,-2.01401 2.77495,-3.8055 2.77495,-6.51934 0,-2.71859 -0.19183,-3.04138 -2.02856,-3.41286 -5.440889,-1.1004 -7.766841,-1.18057 -11.98377,-0.41275 m -9.932458,2.735 c -2.958571,1.12818 -7.549621,3.36471 -7.523957,3.66554 0.02884,0.34184 3.61659,3.30544 5.909734,4.88209 10.786268,7.41521 20.719251,7.61656 31.587011,0.64056 1.94363,-1.24751 5.38215,-3.95579 6.3709,-5.01756 l 0.62495,-0.67098 -2.4519,-1.23164 c -2.61567,-1.31366 -7.51654,-3.30147 -8.13964,-3.30147 -0.2913,0 -0.33893,0.25241 -0.21166,1.12448 0.42545,2.91968 -1.22423,7.18608 -3.61395,9.34614 -0.76173,0.68845 -2.15873,1.62057 -3.10462,2.07142 -1.59993,0.76227 -1.92273,0.81942 -4.630202,0.81942 -2.713567,0 -3.02895,-0.0561 -4.662752,-0.83027 -2.151327,-1.01943 -3.712633,-2.39103 -5.02576,-4.4151 -1.198563,-1.84785 -1.966119,-4.86701 -1.734344,-6.82334 0.1905,-1.60866 0.152929,-1.61157 -3.39381,-0.25929 m 60.192699,0.95038 c -1.091401,0.19183 -4.008431,0.66173 -6.482291,1.04458 -2.47385,0.38259 -4.75906,0.75115 -5.07815,0.81915 -0.57123,0.12171 -0.56567,0.14975 0.34846,1.77615 0.51065,0.90884 1.06945,1.79096 1.24169,1.96056 0.17198,0.1696 1.68222,0.66596 3.35571,1.10305 1.67349,0.43709 4.45426,1.16893 6.179081,1.62639 1.72508,0.45747 3.18241,0.78581 3.2385,0.72972 0.1995,-0.19949 0.62759,-5.12551 0.63209,-7.27313 l 0.005,-2.18281 -0.72761,0.0238 c -0.40005,0.013 -1.62057,0.18071 -2.71198,0.37253 m -74.115074,9.19639 c -1.690952,2.94587 -4.1021,7.13105 -5.357813,9.30011 -1.255977,2.16905 -2.283354,4.04442 -2.283354,4.16718 0,0.12277 16.311562,0.22331 36.247916,0.22331 19.936354,0 36.247914,-0.0646 36.247914,-0.1434 0,-0.15478 -3.60892,-6.44737 -9.40726,-16.40311 l -1.46976,-2.5236 -1.77139,1.6301 c -5.43613,5.00248 -11.75094,8.64791 -17.51409,10.11079 -3.30967,0.84032 -9.280787,0.82576 -12.435414,-0.0299 -5.786966,-1.56951 -12.102835,-5.21044 -16.952383,-9.77265 -1.121568,-1.05516 -2.082006,-1.91743 -2.134658,-1.91664 -0.05239,7.9e-4 -1.478756,2.41168 -3.169708,5.35781 M 6.5781789,62.804448 c 0,1.63248 1.226873,8.8048 1.567921,9.16622 0.167217,0.17727 2.3545271,-0.58711 7.6909081,-2.68737 1.082146,-0.42598 1.323711,-0.703 2.692136,-3.08584 0.826823,-1.43986 1.456796,-2.69319 1.39991,-2.78527 -0.05689,-0.0921 -2.220912,-0.24738 -4.809067,-0.34528 -2.587889,-0.0979 -5.5684201,-0.25135 -6.6235791,-0.34104 -1.101195,-0.0937 -1.918229,-0.0603 -1.918229,0.0786 m 86.5515501,4.49871 c 0.0548,0.13097 1.0967,1.98278 2.31564,4.11533 l 2.21588,3.8772 1.71106,0.84217 c 0.940861,0.46328 1.804201,0.7403 1.918231,0.61542 0.52679,-0.57679 2.3704,-7.21757 2.38522,-8.59181 0.004,-0.36222 -0.50853,-0.45324 -3.36894,-0.59902 -1.855261,-0.0947 -4.251591,-0.24527 -5.325001,-0.3347 -1.12263,-0.0937 -1.9095,-0.0614 -1.85209,0.0754 m -80.863008,4.74451 c -4.2423291,0.70458 -3.9166271,0.57229 -3.7285081,1.51235 0.305858,1.52929 2.0769791,6.04653 2.2849411,5.82772 0.237067,-0.24951 4.486275,-7.4983 4.486275,-7.65308 0,-0.15028 -0.666485,-0.0817 -3.042708,0.31301 m 86.651038,5.14111 c 0,0.11536 0.28628,0.71385 0.63658,1.33006 l 0.636331,1.12051 0.42201,-0.81571 c 0.59743,-1.15543 0.54927,-1.27449 -0.636591,-1.57559 -0.58208,-0.14764 -1.05833,-0.17436 -1.05833,-0.0593 M 16.11191,88.697078 c 0.01217,0.36089 0.945357,1.45521 1.240896,1.45521 0.242359,0 1.856581,-1.57427 1.644121,-1.60338 -1.074208,-0.1479 -2.89216,-0.0545 -2.885017,0.14817 m 9.433454,-0.19209 -4.448439,0.0728 -1.703917,1.07606 -1.703916,1.07606 0.59055,0.82921 c 0.736335,1.03425 5.757333,6.00154 6.066366,6.00154 0.19685,0 1.65444,-2.1455 5.158052,-7.59195 0.48604,-0.75592 0.795338,-1.41076 0.686859,-1.45521 -0.10848,-0.0445 -2.198952,-0.0482 -4.645555,-0.008 m 17.502188,0.45562 c -0.465138,0.5416 -9.481873,14.368722 -9.481873,14.540702 0,0.18891 3.603096,1.77483 5.765535,2.53815 2.679171,0.94562 3.177911,0.9734 3.351213,0.18627 0.411427,-1.86902 2.774156,-17.500072 2.661973,-17.611992 -0.369094,-0.36936 -1.877219,-0.14156 -2.296848,0.34687 m 19.454277,-0.33788 c -0.14314,0.23151 0.57335,15.458022 0.85275,18.122112 l 0.14447,1.37874 0.84216,-0.15055 c 2.12355,-0.37941 8.02773,-2.04099 8.34152,-2.34764 0.0503,-0.0489 -1.85473,-3.89785 -4.23333,-8.552922 -3.96637,-7.76314 -4.38547,-8.47302 -5.0636,-8.57383 -0.40666,-0.0606 -0.80433,-0.005 -0.88397,0.12409 m 6.37011,-0.0333 c -0.0529,0.0863 0.73528,3.24142 1.75154,7.01146 2.52148,9.351172 2.60668,9.632692 2.91888,9.632692 0.82815,0 8.17748,-3.8489 8.17748,-4.28255 0,-0.12065 -2.20742,-2.946132 -4.90564,-6.279092 l -4.90564,-6.05949 -1.47002,-0.0899 c -0.80857,-0.0495 -1.51342,-0.0193 -1.5666,0.0669 m 7.43029,-0.0352 c -0.14393,0.23309 5.82322,11.743262 6.14336,11.850152 0.51673,0.17225 7.21175,-5.180542 7.21175,-5.766062 0,-0.12515 -1.61634,-1.54305 -3.59198,-3.15066 l -3.59172,-2.92285 -2.42755,-0.022 c -1.33509,-0.0122 -2.70034,-0.0521 -3.03372,-0.0889 -0.33364,-0.0368 -0.65325,0.008 -0.71014,0.10028 m 9.52447,0.0106 c -0.0418,0.0728 0.93716,1.35916 2.17567,2.85856 l 2.25161,2.72653 0.66119,-0.60987 c 0.80089,-0.73845 4.03384,-4.69423 4.03384,-4.93553 0,-0.19924 -9.00827,-0.23839 -9.12231,-0.0397 m -56.166535,4.56671 c -2.508514,2.51195 -4.561152,4.70138 -4.561152,4.86595 0,0.67072 7.529777,5.372892 7.936177,4.956172 0.202671,-0.20743 4.939771,-12.290692 5.407819,-13.793522 0.182033,-0.58446 0.145521,-0.59531 -2.017977,-0.59531 h -2.20345 l -4.561417,4.56671 m 20.472929,-4.3524 c -0.117739,0.1905 -2.169583,5.54091 -5.599906,14.602362 -0.633412,1.67348 -1.18745,3.2086 -1.230842,3.41127 -0.10107,0.4699 1.6383,0.9443 5.419725,1.4777 4.41325,0.62282 4.002088,0.88609 3.812382,-2.44158 -0.0889,-1.56448 -0.28919,-5.58271 -0.444765,-8.929692 -0.378619,-8.14467 -0.405606,-8.33437 -1.194329,-8.33437 -0.34634,0 -0.68924,0.0966 -0.762265,0.21431 m 6.186752,-0.1188 c 0,0.15187 -2.878137,18.474802 -3.0353,19.324112 l -0.142081,0.76623 4.468283,-0.14049 c 2.457442,-0.0775 4.641312,-0.24368 4.852982,-0.36962 0.32306,-0.19209 0.0108,-1.63169 -1.94204,-8.960122 -3.141394,-11.78904 -2.785794,-10.71562 -3.550969,-10.71562 -0.357981,0 -0.650875,0.0429 -0.650875,0.0955"
       stroke="none"
       fill="#0f0f0f"
       fill-rule="evenodd"
       id="path1"
       style="stroke-width:0.264583" /><path
       d="m 54.836417,54.685438 c -0.909283,0.0458 -1.711793,0.51413 -2.232293,1.30269 -0.180942,0.27411 -0.340409,0.62712 -0.427098,0.94546 -0.02195,0.0806 -0.04259,0.15502 -0.04587,0.16532 -0.0039,0.0131 -0.09274,-0.0259 -0.273744,-0.11938 -0.147286,-0.076 -0.614108,-0.31437 -1.037365,-0.52982 -0.423257,-0.21546 -0.772813,-0.39478 -0.776785,-0.3985 -0.0039,-0.004 0.05209,-0.12113 0.1246,-0.2609 0.0725,-0.13979 0.128521,-0.2572 0.124498,-0.2609 -0.0041,-0.004 -0.469065,-0.0306 -1.033408,-0.0598 -0.564343,-0.0291 -1.054648,-0.0563 -1.089564,-0.0604 -0.04005,-0.004 -0.06163,-0.002 -0.05843,0.007 0.0064,0.0194 1.365372,1.69788 1.375429,1.69892 0.0041,3.3e-4 0.05854,-0.10146 0.120868,-0.22645 0.06233,-0.12492 0.11855,-0.2272 0.124963,-0.2272 0.01327,0 2.276649,1.14167 2.293462,1.15685 0.006,0.006 0.01428,0.10188 0.01831,0.2144 0.02613,0.72694 0.167809,1.22855 0.477934,1.69221 0.103143,0.15419 0.344983,0.4126 0.480262,0.51316 0.0488,0.0363 0.08901,0.0694 0.08933,0.0736 3.23e-4,0.004 -0.07535,0.0455 -0.168144,0.0915 l -0.168732,0.084 h -0.211775 -0.211767 l -0.0043,0.11151 -0.0043,0.1115 -0.454405,0.23291 c -0.249924,0.12813 -0.462688,0.23293 -0.472817,0.23296 -0.01006,3e-5 -0.180987,-0.0635 -0.379694,-0.1411 l -0.361312,-0.14124 -0.0747,0.0369 c -0.143563,0.071 -2.418745,1.28642 -2.431043,1.2987 -0.0069,0.007 0.162707,0.14359 0.376746,0.30393 l 0.389178,0.29148 v 0.51082 c 0,0.28093 0.0056,0.50861 0.01224,0.50592 0.02727,-0.0102 2.575825,-1.39515 2.587287,-1.40532 0.0069,-0.006 0.05004,-0.16154 0.09607,-0.34553 l 0.0837,-0.33454 0.307032,-0.15775 c 0.168863,-0.0867 0.311972,-0.15791 0.318025,-0.15807 0.0061,-1.6e-4 0.01094,0.64613 0.01094,1.43621 v 1.43651 h 1.311914 1.311916 v -0.088 -0.0881 l 0.157578,0.0789 c 0.304993,0.15268 0.625612,0.24956 0.97552,0.29478 0.201478,0.0261 0.689907,0.0299 0.875466,0.007 1.126376,-0.1392 2.00557,-0.8473 2.41032,-1.94116 0.0921,-0.24891 0.19845,-0.72236 0.19847,-0.88353 0,-0.0287 0.007,-0.0474 0.0183,-0.0469 0.0101,3.5e-4 0.087,0.0357 0.17101,0.0783 l 0.15266,0.0775 0.0999,0.38562 c 0.055,0.21209 0.10266,0.38836 0.106,0.3917 0.003,0.003 0.57898,0.285 1.27919,0.62591 l 1.27311,0.61983 0.009,-0.14805 c 0.006,-0.0813 0.0102,-0.29794 0.0117,-0.48117 l 0.002,-0.33311 0.0707,-0.0554 c 0.0389,-0.0305 0.2265,-0.16745 0.41688,-0.30451 0.1904,-0.13701 0.34162,-0.25346 0.33605,-0.2587 -0.0146,-0.0131 -2.65746,-1.27309 -2.67144,-1.27309 -0.006,0 -0.14956,0.0561 -0.31825,0.12463 -0.16869,0.0685 -0.31468,0.12463 -0.32443,0.12463 -0.0187,0 -0.50453,-0.24304 -0.58182,-0.29109 -0.0425,-0.0265 -0.0459,-0.0352 -0.0549,-0.14125 -0.0251,-0.2965 -0.1378,-0.69912 -0.27885,-0.99584 -0.21674,-0.456 -0.59853,-0.89608 -1.00912,-1.16318 -0.04603,-0.03 -0.08396,-0.0593 -0.08431,-0.0654 -3.31e-4,-0.006 0.230105,-0.0117 0.512115,-0.0117 h 0.51276 l 0.004,-0.31715 0.004,-0.31717 1.30458,-0.66476 c 0.71753,-0.36562 1.31119,-0.66479 1.31925,-0.66481 0.007,-10e-6 0.0733,0.11588 0.14488,0.25751 0.10598,0.20942 0.13367,0.25387 0.14862,0.23805 0.0464,-0.0491 1.37033,-1.68796 1.36667,-1.69163 -0.003,-0.003 -0.479,0.0216 -1.05936,0.0532 -0.58038,0.0315 -1.07339,0.0574 -1.09563,0.0576 l -0.0404,3.1e-4 0.11705,0.23372 0.11705,0.23371 -0.16459,0.087 c -0.29762,0.15731 -2.14553,1.10198 -2.1556,1.10198 -0.005,0 -0.01,-0.50791 -0.01,-1.12869 v -1.12868 H 57.88581 56.551901 v 0.0806 c 0,0.0443 -0.0035,0.0806 -0.0078,0.0806 -0.0044,0 -0.07177,-0.0322 -0.150248,-0.0714 -0.476859,-0.23879 -0.974366,-0.33714 -1.557178,-0.30777 m 0.0073,0.11763 c -0.486212,0.0246 -1.013207,0.20828 -1.414023,0.49285 -0.157986,0.11223 -0.417481,0.35582 -0.545288,0.51204 -0.227774,0.2784 -0.419827,0.63293 -0.538265,0.99365 -0.132326,0.40295 -0.179725,0.70238 -0.179872,1.13602 -2.78e-4,0.88785 0.230061,1.5452 0.709416,2.02456 0.236746,0.23674 0.483561,0.39663 0.905309,0.58648 l 0.1246,0.0561 -0.729249,3.4e-4 -0.729249,3.3e-4 v 1.79563 1.79564 h 1.194649 1.194649 v -0.13876 -0.13877 l 0.128259,0.0781 c 0.255683,0.15568 0.476803,0.24837 0.772329,0.32382 0.484236,0.12361 1.087993,0.12973 1.554673,0.0159 0.488909,-0.11925 0.890178,-0.33922 1.244091,-0.68186 0.25816,-0.24995 0.44009,-0.50198 0.59476,-0.82388 0.25684,-0.5345 0.37398,-1.1559 0.33672,-1.786 -0.069,-1.16574 -0.60184,-1.98978 -1.655205,-2.5596 -0.05115,-0.0277 -0.04906,-0.0278 0.615645,-0.0351 l 0.66695,-0.007 0.003,-1.71137 0.003,-1.71135 h -1.216689 -1.216693 v 0.13119 0.13133 l -0.142418,-0.0822 c -0.528055,-0.30485 -1.055447,-0.42954 -1.682528,-0.39781 m -0.180898,0.41565 c -0.50914,0.0775 -0.937235,0.29552 -1.307766,0.66594 -0.521117,0.52098 -0.790697,1.22246 -0.790697,2.05746 0,1.04917 0.353513,1.71951 1.118941,2.12181 0.391212,0.2056 0.86683,0.33351 1.768738,0.47566 0.902762,0.14227 1.176193,0.22984 1.393644,0.4463 0.14682,0.14612 0.205628,0.29295 0.208682,0.52102 0.0043,0.30972 -0.150779,0.55945 -0.429882,0.69297 -0.178025,0.0851 -0.315146,0.11166 -0.525872,0.10174 -0.543026,-0.0257 -0.963396,-0.33904 -1.444671,-1.07685 l -0.145805,-0.22355 h -0.833087 -0.832634 v 1.39987 1.39986 h 0.798626 0.798626 l 0.0039,-0.37579 0.0039,-0.37579 0.18487,0.17564 c 0.387038,0.36771 0.646474,0.5338 1.038564,0.66491 0.418582,0.13993 0.99852,0.17107 1.45102,0.0778 1.050743,-0.21647 1.789679,-1.0881 1.928489,-2.27477 0.0254,-0.217 0.0284,-0.60274 0.006,-0.80591 -0.10149,-0.93163 -0.59018,-1.62461 -1.448628,-2.05426 -0.414328,-0.20736 -0.726577,-0.28553 -1.584792,-0.39665 -0.761799,-0.0987 -1.028448,-0.17578 -1.223271,-0.35383 -0.127865,-0.11691 -0.187098,-0.23607 -0.214245,-0.43121 -0.04395,-0.31575 0.117457,-0.62186 0.401388,-0.76125 0.174887,-0.0859 0.319799,-0.11472 0.53652,-0.10671 0.15579,0.006 0.206272,0.0146 0.324828,0.0528 0.401426,0.13177 0.778294,0.48703 1.093213,1.03052 l 0.100313,0.17315 0.824532,3.2e-4 0.824522,3.3e-4 v -1.3119 -1.31191 H 57.883413 57.07721 v 0.30782 c 0,0.21003 -0.0052,0.30782 -0.01575,0.30782 -0.0088,0 -0.115885,-0.0717 -0.238198,-0.15942 -0.538442,-0.38592 -0.86996,-0.54796 -1.295426,-0.63318 -0.205553,-0.0411 -0.661043,-0.052 -0.866889,-0.0207 m 7.680127,0.30923 c -0.48692,0.027 -0.88805,0.0519 -0.89137,0.0551 -0.003,0.003 0.041,0.0999 0.0982,0.21441 0.0574,0.11457 0.10175,0.21099 0.0985,0.21421 -0.003,0.003 -0.54946,0.2849 -1.21385,0.62594 l -1.20797,0.62006 -0.004,0.28787 -0.004,0.28789 0.25316,-0.12974 c 0.9272,-0.47512 2.41967,-1.23226 2.42224,-1.22881 0.002,0.003 0.0582,0.11137 0.12565,0.24252 0.0955,0.18575 0.12637,0.2343 0.13964,0.21988 0.0285,-0.0308 1.1586,-1.42663 1.17004,-1.44515 0.0131,-0.0213 0.0937,-0.0242 -0.98636,0.0358 m -14.056202,-0.0233 c 0.0063,0.0186 1.175226,1.46353 1.184959,1.46465 0.0043,3.5e-4 0.05532,-0.0949 0.113711,-0.21201 l 0.106131,-0.21287 0.04022,0.0207 c 0.255331,0.13104 2.306067,1.16733 2.310098,1.16733 0.003,0 0.0099,-0.0577 0.01542,-0.12828 0.0056,-0.0705 0.01974,-0.19019 0.03169,-0.26591 0.01195,-0.0758 0.01991,-0.13921 0.0177,-0.14111 -0.0022,-0.002 -0.493294,-0.25269 -1.091278,-0.55735 l -1.087248,-0.55394 0.12355,-0.24675 c 0.114951,-0.22961 0.121233,-0.24678 0.0904,-0.24678 -0.05384,0 -1.666236,-0.0859 -1.767392,-0.0942 -0.05616,-0.004 -0.09083,-0.002 -0.08796,0.006 m 6.989399,1.69165 c -0.126699,0.0352 -0.217295,0.10553 -0.269537,0.2092 -0.05336,0.10597 -0.02124,0.31672 0.0591,0.38752 0.100242,0.0883 0.325179,0.15321 0.723471,0.20865 0.656554,0.0914 0.824853,0.11267 0.83196,0.10568 0.01253,-0.0131 -0.235554,-0.37386 -0.339721,-0.49484 -0.177051,-0.20565 -0.407498,-0.36378 -0.605271,-0.41529 -0.09975,-0.0259 -0.307892,-0.0264 -0.400004,-6.8e-4 m 0.03407,0.11646 c -0.157868,0.0518 -0.218114,0.13061 -0.206533,0.27015 0.0056,0.0673 0.01428,0.0877 0.05133,0.12083 0.06135,0.0548 0.178553,0.0958 0.397318,0.13906 0.181156,0.0358 0.837867,0.12478 0.837867,0.11341 0,-0.0229 -0.187612,-0.25306 -0.284375,-0.34884 -0.135885,-0.13455 -0.265298,-0.22552 -0.386455,-0.27168 -0.106098,-0.0404 -0.319546,-0.0525 -0.409139,-0.0231 m -2.254792,3.11375 -0.102604,0.0542 0.0983,0.004 c 0.05408,0.003 0.146319,0.003 0.204995,0 l 0.1067,-0.004 -0.09244,-0.055 c -0.05083,-0.0302 -0.09692,-0.0546 -0.102385,-0.0542 -0.0056,3.5e-4 -0.0561,0.0252 -0.112545,0.055 m -1.194648,0.61149 c -0.237832,0.1239 -0.443604,0.2257 -0.457266,0.22615 -0.0137,3.5e-4 -0.188211,-0.063 -0.387888,-0.14095 l -0.363039,-0.14183 -0.161799,0.0851 c -0.08899,0.0468 -0.183654,0.0983 -0.210361,0.11428 l -0.04857,0.029 0.464536,0.2121 0.464535,0.21208 0.07213,-0.0392 c 0.03966,-0.0216 0.08169,-0.0356 0.09341,-0.031 0.04297,0.0164 0.01914,0.0487 -0.06613,0.0895 -0.08467,0.0405 -0.0879,0.0442 -0.102765,0.11632 -0.124963,0.60629 -0.173495,0.85171 -0.169302,0.85592 0.0028,0.003 0.109119,-0.0512 0.236246,-0.11996 l 0.231147,-0.12506 0.08391,-0.34102 c 0.04615,-0.18755 0.08947,-0.34319 0.09629,-0.34586 0.0069,-0.003 0.164114,-0.082 0.349541,-0.17638 l 0.33714,-0.17149 0.0039,-0.26751 c 0.0032,-0.20929 -7.2e-5,-0.26728 -0.01467,-0.26648 -0.0102,7e-4 -0.213249,0.10247 -0.451079,0.22639 m 3.034262,-0.17544 c 0,0.0205 0.245862,0.38189 0.336699,0.4948 0.115592,0.14372 0.327641,0.34279 0.43012,0.40388 0.188342,0.11223 0.357311,0.15683 0.545097,0.14387 0.147255,-0.0102 0.20675,-0.0277 0.295728,-0.0872 0.10475,-0.07 0.150657,-0.16258 0.150691,-0.30377 5.2e-5,-0.32547 -0.201835,-0.41834 -1.274613,-0.58632 -0.205582,-0.0322 -0.398513,-0.0627 -0.428753,-0.0678 -0.03023,-0.006 -0.05497,-0.004 -0.05497,0.003 m 0.249189,0.16451 c 0,0.0271 0.251757,0.34316 0.354057,0.44448 0.268299,0.2658 0.545428,0.36778 0.811282,0.29854 0.156468,-0.0408 0.227412,-0.12405 0.226977,-0.26643 -2.87e-4,-0.0892 -0.02166,-0.1306 -0.09729,-0.18832 -0.113466,-0.0866 -0.383696,-0.15678 -0.957883,-0.24896 -0.35193,-0.0565 -0.337141,-0.0548 -0.337141,-0.0394 m 4.446222,0.25761 -8.7e-4,0.26888 0.19,0.0939 c 0.10452,0.0516 0.19379,0.1 0.19843,0.10728 0.004,0.007 0.0522,0.18219 0.10566,0.38845 l 0.0972,0.375 0.21018,0.10669 c 0.11561,0.0587 0.21306,0.10379 0.21657,0.10029 0.003,-0.003 -0.038,-0.22857 -0.0924,-0.50016 l -0.0987,-0.49383 -0.0782,-0.0384 c -0.0742,-0.0365 -0.0954,-0.0639 -0.0641,-0.0832 0.008,-0.004 0.0523,0.0102 0.0989,0.0339 l 0.0849,0.0427 0.43143,-0.19626 c 0.23727,-0.10787 0.43328,-0.19814 0.43557,-0.20042 0.003,-0.003 -0.10467,-0.0559 -0.23756,-0.11937 l -0.2417,-0.11516 -0.32259,0.13016 -0.32262,0.13017 -0.30011,-0.14983 c -0.16506,-0.0824 -0.30205,-0.14984 -0.30442,-0.14984 -0.003,0 -0.005,0.12098 -0.005,0.26886 m -9.603368,0.0491 c -0.08325,0.0447 -0.145909,0.0865 -0.139249,0.0927 0.01646,0.0155 0.882514,0.41006 0.90009,0.41006 0.01905,0 0.34038,-0.16176 0.333842,-0.16808 -0.01414,-0.0131 -0.91277,-0.41811 -0.926929,-0.4172 -0.009,6.9e-4 -0.0845,0.0378 -0.16775,0.0825 m 11.057104,0.15261 c -0.19349,0.0885 -0.38809,0.17772 -0.43243,0.19822 l -0.0807,0.0373 0.17038,0.0859 0.17042,0.0859 0.44335,-0.2006 0.44338,-0.20062 -0.174,-0.0844 c -0.0958,-0.0464 -0.17733,-0.0839 -0.18136,-0.0835 -0.004,3.3e-4 -0.16563,0.0733 -0.35913,0.16178 m -11.432949,0.0498 -0.143957,0.0775 0.04242,0.0217 c 0.08087,0.0414 0.854181,0.39166 0.864708,0.39166 0.01783,0 0.284267,-0.13863 0.284326,-0.148 6e-5,-0.007 -0.215492,-0.10801 -0.792529,-0.37014 l -0.111,-0.0504 -0.143957,0.0775 m 11.779288,0.19041 c -0.2368,0.10815 -0.43306,0.19916 -0.43611,0.20223 -0.003,0.003 0.0598,0.0397 0.13964,0.0815 l 0.14518,0.076 0.4203,-0.19085 c 0.23116,-0.10495 0.43326,-0.1978 0.44911,-0.20628 0.0251,-0.0131 0.0102,-0.0248 -0.11924,-0.0879 -0.0815,-0.0398 -0.15266,-0.0721 -0.1582,-0.0719 -0.006,3.4e-4 -0.20382,0.0891 -0.44063,0.19724 m -12.18038,0.0236 c -0.09134,0.049 -0.163893,0.0907 -0.16124,0.0927 0.0026,0.002 0.205025,0.0949 0.449716,0.20638 l 0.444878,0.20263 0.174434,-0.0863 c 0.09593,-0.0474 0.174418,-0.0901 0.174418,-0.0948 0,-0.0102 -0.875539,-0.41033 -0.898698,-0.40998 -0.0096,1.2e-4 -0.09217,0.0403 -0.183508,0.0892 m 12.5604,0.16271 c -0.24529,0.11151 -0.44777,0.20459 -0.44995,0.20675 -0.002,0.002 0.0772,0.0445 0.17656,0.0939 l 0.18051,0.0899 0.4427,-0.20221 c 0.24348,-0.11121 0.44289,-0.20758 0.44314,-0.21419 2.2e-4,-0.007 -0.0777,-0.0492 -0.17325,-0.0945 l -0.17371,-0.0825 -0.446,0.20279 m -10.836688,-0.0959 c -0.103056,0.0518 -0.162809,0.0908 -0.171692,0.1121 -0.01239,0.0295 -0.190616,0.88882 -0.190616,0.91875 0,0.009 0.286363,-0.13527 0.33374,-0.16811 0.0061,-0.004 0.195042,-0.93439 0.190602,-0.93852 -0.0022,-0.002 -0.0751,0.0321 -0.162034,0.0758 m 9.566368,0.0164 c 0.005,0.0302 0.0494,0.25341 0.0991,0.49595 l 0.0902,0.44098 0.16669,0.0829 c 0.0917,0.0456 0.16669,0.0781 0.16669,0.072 1e-5,-0.006 -0.0436,-0.2286 -0.0966,-0.49464 l -0.0968,-0.48373 -0.15883,-0.0842 c -0.0873,-0.0464 -0.16343,-0.0842 -0.16906,-0.0842 -0.006,0 -0.006,0.0248 -0.002,0.055 m -11.705993,0.13891 c -0.09473,0.0499 -0.172235,0.0943 -0.172235,0.0988 0,0.004 0.198459,0.0987 0.441024,0.20933 l 0.441024,0.20111 0.184973,-0.0978 0.184957,-0.0978 -0.04332,-0.0179 c -0.02383,-0.0102 -0.224257,-0.10087 -0.445391,-0.20237 -0.221121,-0.10145 -0.405815,-0.18431 -0.410432,-0.18414 -0.0047,1.7e-4 -0.08587,0.0411 -0.180605,0.0908 m 13.413118,0.1564 c -0.23943,0.11021 -0.43934,0.20439 -0.44426,0.20931 -0.0146,0.0146 0.34443,0.19153 0.37165,0.18413 0.0131,-0.003 0.22455,-0.0982 0.46948,-0.21021 l 0.44529,-0.20362 -0.18877,-0.0913 c -0.10379,-0.0501 -0.19539,-0.0907 -0.20345,-0.0899 -0.007,6.8e-4 -0.21054,0.0914 -0.44994,0.20161 m -11.679689,-0.10204 -0.139176,0.0708 -0.09744,0.47889 c -0.0603,0.29629 -0.09107,0.4772 -0.08071,0.47446 0.0092,-0.003 0.07692,-0.0369 0.150467,-0.0766 l 0.13371,-0.0721 0.09091,-0.44827 c 0.05,-0.24655 0.09416,-0.45983 0.09814,-0.47393 0.01006,-0.0358 8.28e-4,-0.0331 -0.155891,0.0466 m 10.377959,-0.0218 c 0,0.0117 0.0429,0.23058 0.0953,0.48623 0.0523,0.25563 0.0953,0.46695 0.0953,0.46961 0,0.003 0.0659,0.0379 0.14661,0.0784 0.0928,0.0466 0.14657,0.0665 0.14657,0.0544 0,-0.0172 -0.16389,-0.84912 -0.18325,-0.93027 -0.0102,-0.041 -0.30048,-0.19422 -0.30048,-0.15837 m -12.507113,0.17505 c -0.06248,0.0331 -0.11323,0.0635 -0.112822,0.0676 4.14e-4,0.004 0.158704,0.12579 0.351769,0.27065 l 0.351006,0.26332 v 0.46714 c 0,0.25693 0.005,0.46491 0.01094,0.46215 0.07884,-0.0358 0.223803,-0.11792 0.232084,-0.13133 0.01253,-0.0203 0.209848,-0.98494 0.203045,-0.99267 -0.0024,-0.003 -0.07772,0.0334 -0.167103,0.0806 -0.136815,0.0723 -0.164759,0.0824 -0.176589,0.0639 -0.0077,-0.0117 -0.01414,-0.0253 -0.01428,-0.0296 -1.17e-4,-0.004 0.07976,-0.0474 0.177511,-0.0961 l 0.177746,-0.0885 -0.439908,-0.2007 c -0.24195,-0.11035 -0.448911,-0.19981 -0.459919,-0.19871 -0.01094,8.7e-4 -0.07109,0.0292 -0.13355,0.0623 m 1.728577,0.0479 c -0.101132,0.0522 -0.162897,0.0933 -0.170373,0.11311 -0.01974,0.0525 -0.19434,0.93456 -0.186512,0.94237 0.0041,0.004 0.08391,-0.0339 0.177511,-0.0844 0.116379,-0.0627 0.17247,-0.1013 0.17741,-0.12215 0.02293,-0.0965 0.182582,-0.89262 0.182582,-0.91045 0,-0.0117 -0.005,-0.0211 -0.01094,-0.0209 -0.006,2.8e-4 -0.08238,0.0375 -0.169627,0.0825 m 12.533865,0.12521 c -0.24792,0.1137 -0.45074,0.21102 -0.45074,0.21609 0,0.004 0.0725,0.0451 0.16124,0.0888 0.0886,0.0438 0.16114,0.0831 0.16103,0.0875 -1.8e-4,0.004 -0.007,0.0178 -0.0146,0.0299 -0.0117,0.0185 -0.0418,0.007 -0.19032,-0.0679 -0.0968,-0.0494 -0.17605,-0.0854 -0.17605,-0.0799 0,0.0102 0.16978,0.86448 0.18234,0.9175 0.004,0.0194 0.0498,0.0507 0.13382,0.0924 0.0699,0.0345 0.12914,0.0608 0.13192,0.058 0.003,-0.003 0.0102,-0.20384 0.0153,-0.44694 l 0.0102,-0.44198 0.36052,-0.25955 c 0.19828,-0.1427 0.36629,-0.26471 0.37334,-0.27097 0.0117,-0.0102 -0.20879,-0.13177 -0.23605,-0.13017 -0.006,3.4e-4 -0.21415,0.0937 -0.46206,0.20752 m -1.38123,-0.13119 c 0.004,0.0263 0.0497,0.24553 0.0996,0.4874 l 0.0907,0.43974 0.174,0.085 c 0.0958,0.0468 0.17557,0.0829 0.17751,0.0806 0.002,-0.003 -0.0401,-0.21869 -0.0934,-0.48066 l -0.0969,-0.47632 -0.16858,-0.0913 c -0.0927,-0.0501 -0.1738,-0.0914 -0.18022,-0.0917 -0.006,-2.2e-4 -0.007,0.021 -0.003,0.0472 m -11.594339,0.23514 -0.175269,0.0909 -0.09931,0.49011 c -0.05461,0.26956 -0.09689,0.49252 -0.09393,0.49546 0.003,0.003 0.08693,-0.0397 0.186615,-0.0945 l 0.181249,-0.0998 0.09002,-0.43616 c 0.113565,-0.55007 0.111422,-0.53834 0.09752,-0.53763 -0.0064,3.4e-4 -0.09052,0.0416 -0.186908,0.0916 m 12.113012,0.41716 0.0972,0.48006 0.18194,0.0914 c 0.10014,0.0503 0.18416,0.0891 0.18689,0.0865 0.006,-0.007 -0.1823,-0.92916 -0.19408,-0.94821 -0.007,-0.0131 -0.3475,-0.18972 -0.36376,-0.18972 -0.003,0 0.0382,0.21603 0.0917,0.48006"
       stroke="none"
       fill="#251e25"
       fill-rule="evenodd"
       id="path1-9"
       style="stroke-width:0.0146583" /><path
       style="fill:#ffffff;stroke-width:0.252576"
       d="m 191.99372,215.67139 c -2.34175,-1.18169 -4.28737,-2.11336 -4.32361,-2.07038 -0.0362,0.043 -0.22295,0.37868 -0.41493,0.74598 l -0.34905,0.66782 -2.06394,-2.56089 c -1.13517,-1.40849 -2.04445,-2.56894 -2.02061,-2.57878 0.18457,-0.0762 6.29921,0.37783 6.39629,0.47491 0.0687,0.0687 -0.0523,0.46789 -0.26907,0.88701 l -0.39406,0.76202 2.83805,1.50475 c 1.56092,0.82761 3.41617,1.79484 4.12277,2.1494 1.18841,0.59632 1.27621,0.70271 1.17107,1.41905 -0.0625,0.42592 -0.186,0.76838 -0.27442,0.76102 -0.0884,-0.007 -2.07674,-0.98021 -4.41849,-2.16191 z"
       id="path2"
       transform="scale(0.26458333)" /><path
       style="fill:#ffffff;stroke-width:0.0693065"
       d="m 212.43261,243.36315 c -1.73042,-0.18251 -3.32533,-0.70092 -4.6355,-1.50674 -0.25798,-0.15866 -0.49968,-0.28847 -0.53713,-0.28847 -0.0385,0 -0.0681,0.22568 -0.0681,0.5198 v 0.51979 h -4.47027 -4.47027 v -6.7566 -6.7566 l 2.78336,-0.0181 2.78337,-0.0181 -1.03338,-0.50825 c -1.36911,-0.67337 -2.07471,-1.15239 -2.87222,-1.94991 -1.49581,-1.49581 -2.31758,-3.33066 -2.60791,-5.82295 -0.14925,-1.28121 -0.0969,-3.26885 0.11416,-4.33268 0.32764,-1.65163 1.03281,-3.3719 1.94717,-4.75014 0.48675,-0.73368 1.73526,-2.02635 2.52404,-2.61329 1.05249,-0.78317 2.66192,-1.4682 4.14261,-1.76322 0.62657,-0.12484 1.00767,-0.15459 1.95637,-0.15269 2.09855,0.004 3.71615,0.4261 5.50987,1.43707 l 0.65841,0.37109 0.0202,-0.50944 0.0203,-0.50943 h 4.57131 4.57132 v 6.4455 6.44551 l -0.84901,1.6e-4 c -1.45646,2.8e-4 -4.07176,0.089 -4.07176,0.13818 0,0.0258 0.27881,0.21193 0.61957,0.41363 2.00279,1.18551 3.59716,2.83224 4.52077,4.6692 0.37738,0.75056 0.78308,1.99734 0.96221,2.957 0.18811,1.00776 0.25799,3.05287 0.13987,4.09377 -0.47595,4.1943 -2.65185,7.54717 -5.98566,9.22338 -1.73915,0.87443 -4.05386,1.25351 -6.2437,1.02255 z m 3.4226,-1.55353 c 3.77481,-0.821 6.38757,-3.62608 7.22565,-7.7575 0.13723,-0.67649 0.15531,-0.97347 0.15426,-2.53363 -0.001,-1.69374 -0.009,-1.80194 -0.19668,-2.599 -0.4733,-2.01359 -1.25215,-3.40436 -2.66412,-4.75719 -0.80332,-0.76968 -1.57941,-1.30502 -2.6953,-1.8592 -1.47829,-0.73415 -2.53154,-1.00533 -5.53171,-1.42424 -2.15653,-0.30112 -3.06306,-0.46919 -3.70845,-0.68754 -1.24895,-0.42255 -1.90283,-1.13188 -2.08476,-2.26156 -0.22314,-1.3856 0.626,-2.66009 2.08031,-3.12236 0.70258,-0.22333 1.86956,-0.20588 2.59859,0.0388 1.56411,0.52505 3.00095,1.88544 4.17847,3.95613 l 0.33186,0.58358 3.17078,0.002 3.17077,0.002 v -4.99007 -4.99007 h -3.08414 -3.08414 l -0.006,0.81436 c -0.003,0.44789 -0.0267,0.96475 -0.052,1.14857 l -0.0459,0.33422 -0.73413,-0.5144 c -2.59581,-1.81884 -3.88781,-2.37505 -5.92984,-2.55281 -3.0578,-0.26619 -5.45681,0.60963 -7.48713,2.73339 -1.51077,1.5803 -2.37864,3.46917 -2.72812,5.93762 -0.11097,0.78382 -0.0916,2.83022 0.0347,3.67527 0.58265,3.89669 2.70683,6.03024 7.10333,7.13462 0.91124,0.2289 2.01965,0.44212 4.162,0.80062 2.91826,0.48833 4.02358,0.85942 4.76335,1.5992 0.20635,0.20635 0.45522,0.54977 0.55918,0.77162 0.17005,0.36287 0.18717,0.47336 0.18551,1.1968 -0.002,0.6805 -0.025,0.84736 -0.15994,1.14129 -0.34745,0.7566 -0.97067,1.28723 -1.89103,1.61007 -0.42119,0.14775 -0.63396,0.17914 -1.20461,0.17772 -2.1668,-0.005 -3.71008,-1.09693 -5.63558,-3.986 l -0.58893,-0.88366 h -3.17731 -3.17731 v 5.30195 5.30195 h 3.04949 3.04948 v -1.39106 -1.39105 l 0.74505,0.69869 c 1.95274,1.83124 3.34605,2.50503 5.94303,2.87399 0.49257,0.07 2.85845,-0.0237 3.36137,-0.13305 z m -2.62643,-7.9537 c 0.33831,-0.14175 0.68978,-0.45864 0.79923,-0.72059 0.052,-0.12444 0.0945,-0.41539 0.0945,-0.64655 0,-1.2482 -0.66285,-1.56795 -4.58865,-2.21346 -1.82428,-0.29996 -2.06478,-0.32414 -2.06478,-0.20755 0,0.0407 0.255,0.45395 0.56666,0.91831 0.74989,1.11729 1.89188,2.27648 2.571,2.60974 0.25814,0.12668 0.6324,0.27193 0.83167,0.32278 0.44116,0.11257 1.45693,0.077 1.79033,-0.0627 z m 0.79694,-14.29921 c -0.11962,-0.31174 -1.11168,-1.65091 -1.56653,-2.11467 -0.93098,-0.94921 -1.80452,-1.37891 -2.8032,-1.37891 -1.24909,0 -1.98714,0.61527 -1.88818,1.57408 0.10658,1.03267 0.64958,1.26465 4.10228,1.75251 2.22285,0.3141 2.21175,0.31324 2.15563,0.16699 z"
       id="path3"
       transform="scale(0.26458333)" /><path
       style="fill:#ffffff;stroke-width:0.0307445"
       d="m 192.73924,236.5405 c 0.11442,-0.65537 0.66367,-3.25372 0.69928,-3.30806 0.0256,-0.0391 0.14808,-0.12369 0.27217,-0.18804 0.12409,-0.0644 0.25675,-0.14522 0.29479,-0.1797 0.1159,-0.10502 0.0773,-0.20569 -0.0789,-0.20569 -0.0279,0 -0.17136,0.0573 -0.31871,0.12732 l -0.26792,0.12732 -1.50038,-0.68565 c -0.82521,-0.37711 -1.6036,-0.73283 -1.72975,-0.7905 l -0.22937,-0.10485 0.35234,-0.19644 c 0.19379,-0.10804 0.54604,-0.29596 0.78277,-0.41761 l 0.43043,-0.22117 1.02994,0.40054 c 1.20386,0.46817 1.62782,0.6227 1.7624,0.64238 0.0804,0.0118 0.27432,-0.0757 1.09683,-0.49442 1.86426,-0.9491 2.36431,-1.19794 2.37842,-1.18361 0.0228,0.0232 0.0357,0.67383 0.0267,1.3517 l -0.008,0.63026 -1.30257,0.65692 -1.30256,0.65691 -0.0701,0.23468 c -0.0386,0.12907 -0.18957,0.71198 -0.33554,1.29536 l -0.26541,1.06068 -0.24434,0.13273 c -0.61003,0.33138 -1.4513,0.77423 -1.47079,0.77423 -0.0118,0 -0.0124,-0.0519 -0.001,-0.11529 z"
       id="path4"
       transform="scale(0.26458333)" /><path
       style="fill:#ffffff;stroke-width:0.0307445"
       d="m 191.15393,237.47396 c 0,-0.007 0.0818,-0.41816 0.18187,-0.91465 0.32255,-1.60102 0.52316,-2.49427 0.57239,-2.54867 0.0602,-0.0666 0.49117,-0.30922 0.88311,-0.4973 l 0.30188,-0.14486 -0.02,0.11412 c -0.0434,0.24771 -0.57504,2.86681 -0.63369,3.12186 -0.073,0.31746 -0.0197,0.27147 -0.73798,0.63639 -0.43664,0.22182 -0.54759,0.26906 -0.54759,0.23311 z"
       id="path5"
       transform="scale(0.26458333)" /><path
       style="fill:#ffffff;stroke-width:0.0307445"
       d="m 191.07707,233.37845 c -0.3551,-0.16003 -1.10059,-0.50057 -1.65665,-0.75675 l -1.01101,-0.46579 0.0718,-0.0582 c 0.15343,-0.12424 0.9966,-0.57628 1.07491,-0.57628 0.0521,0 3.23023,1.41907 3.43578,1.5341 0.0566,0.0316 -1.08669,0.61922 -1.19841,0.61593 -0.0389,-0.001 -0.36135,-0.13301 -0.71645,-0.29304 z"
       id="path6"
       transform="scale(0.26458333)" /><path
       style="fill:#ffffff;stroke-width:0.0307445"
       d="m 189.9549,234.22241 c -1.45947,-0.65233 -2.96359,-1.34708 -2.94712,-1.36126 0.0534,-0.046 1.01067,-0.54033 1.04633,-0.54033 0.0432,0 2.39528,1.0689 3.07837,1.39895 0.28221,0.13635 0.29742,0.14837 0.23934,0.18905 -0.0834,0.0584 -0.95419,0.50309 -0.98082,0.50086 -0.0116,-9.6e-4 -0.20783,-0.0852 -0.4361,-0.18727 z"
       id="path7"
       transform="scale(0.26458333)" /><path
       style="fill:#ffffff;stroke-width:0.0307445"
       d="m 188.17172,234.99154 c -0.29592,-0.1359 -1.02226,-0.46841 -1.61409,-0.7389 -0.59183,-0.27048 -1.08771,-0.50302 -1.10195,-0.51674 -0.0281,-0.0271 0.38914,-0.26925 0.90322,-0.5241 l 0.32393,-0.16059 0.67527,0.29966 c 1.41727,0.62893 2.65829,1.21245 2.65829,1.2499 0,0.029 -1.21301,0.64127 -1.26665,0.63933 -0.022,-8e-4 -0.28211,-0.11265 -0.57802,-0.24856 z"
       id="path8"
       transform="scale(0.26458333)" /><path
       style="fill:#ffffff;stroke-width:0.0307445"
       d="m 185.78902,235.5317 c -0.67638,-0.31096 -1.40149,-0.64931 -1.61135,-0.75191 -0.3453,-0.1688 -0.37598,-0.19035 -0.32282,-0.22672 0.089,-0.0609 0.70226,-0.39459 0.9877,-0.53747 l 0.25257,-0.12642 1.66896,0.75717 c 0.91793,0.41645 1.67123,0.75878 1.67399,0.76073 0.0206,0.0145 -1.31649,0.69473 -1.36153,0.69265 -0.0318,-0.001 -0.61114,-0.25708 -1.28752,-0.56803 z"
       id="path9"
       transform="scale(0.26458333)" /><path
       style="fill:#ffffff;stroke-width:0.0307445"
       d="m 185.1788,240.41721 c -0.011,-0.18018 -0.0206,-0.96532 -0.0213,-1.74475 l -0.001,-1.41715 -0.5587,-0.41505 c -0.30728,-0.22828 -0.90257,-0.67666 -1.32285,-0.99642 l -0.76415,-0.58136 0.14808,-0.0922 c 0.0814,-0.0507 0.2874,-0.16001 0.45768,-0.24283 l 0.3096,-0.15059 0.56662,0.24498 c 0.54876,0.23727 2.73853,1.22849 2.75888,1.24885 0.006,0.006 -0.28139,0.15893 -0.63762,0.34088 -0.35622,0.18196 -0.64768,0.34335 -0.64768,0.35866 0,0.0153 0.0143,0.0546 0.0318,0.0873 0.0584,0.10907 0.1943,0.0699 0.75689,-0.21793 0.29818,-0.15257 0.54637,-0.27317 0.55155,-0.268 0.0211,0.0211 -0.6238,3.21187 -0.72566,3.59016 -0.0273,0.10148 -0.0633,0.14347 -0.19343,0.22568 -0.22101,0.13964 -0.62228,0.35741 -0.65856,0.35741 -0.0165,0 -0.039,-0.14742 -0.05,-0.3276 z"
       id="path10"
       transform="scale(0.26458333)" /><path
       style="fill:#ffffff;stroke-width:0.0307445"
       d="m 186.43188,239.94245 c 0.0377,-0.28795 0.69087,-3.51059 0.71634,-3.53446 0.0322,-0.0302 1.28402,-0.67453 1.31044,-0.67453 0.0113,0 0.0205,0.0349 0.0205,0.0777 0,0.0801 -0.70034,3.51434 -0.72471,3.55378 -0.008,0.0121 -0.21069,0.12876 -0.45151,0.25914 -0.24083,0.13039 -0.54023,0.29274 -0.66535,0.36078 l -0.22747,0.12372 z"
       id="path11"
       transform="scale(0.26458333)" /><path
       style="fill:#ffffff;stroke-width:0.0307445"
       d="m 188.12391,239.07692 c 0.008,-0.038 0.0649,-0.33896 0.12601,-0.66869 0.15227,-0.82122 0.49548,-2.50577 0.54488,-2.67443 0.0313,-0.10669 0.0747,-0.16391 0.19148,-0.25217 0.19457,-0.14706 1.0789,-0.60104 1.11014,-0.5699 0.024,0.0239 -0.0984,0.67754 -0.46753,2.4973 -0.22699,1.11907 -0.18926,1.03816 -0.59448,1.27482 -0.27197,0.15884 -0.86153,0.46225 -0.8982,0.46225 -0.0149,0 -0.0205,-0.0311 -0.0123,-0.0692 z"
       id="path12"
       transform="scale(0.26458333)" /><path
       style="fill:#ffffff;stroke-width:0.0307445"
       d="m 189.77043,238.22565 c 0,-0.11619 0.65898,-3.50296 0.68602,-3.52574 0.0418,-0.0353 1.01601,-0.50368 1.04749,-0.50368 0.0355,0 0.0305,0.0595 -0.0278,0.33051 -0.0391,0.18177 -0.19702,0.95308 -0.35096,1.714 -0.15394,0.76093 -0.29187,1.41118 -0.30652,1.44499 -0.0161,0.0372 -0.22054,0.16169 -0.51751,0.31514 -0.26998,0.1395 -0.49985,0.25364 -0.51081,0.25364 -0.011,0 -0.0199,-0.013 -0.0199,-0.0289 z"
       id="path13"
       transform="scale(0.26458333)" /><path
       style="fill:#ffffff;stroke-width:0.0307445"
       d="m 228.22631,236.65274 c -0.41126,-0.2046 -0.75186,-0.37588 -0.75687,-0.38062 -0.005,-0.005 -0.12002,-0.43572 -0.25556,-0.95771 -0.40884,-1.57452 -0.5086,-1.91817 -0.57037,-1.96485 -0.0311,-0.0235 -0.36433,-0.19886 -0.74052,-0.38969 l -0.68398,-0.34698 -8e-5,-0.34092 c -5e-5,-0.1875 0.009,-0.63264 0.0201,-0.98918 l 0.0202,-0.64827 1.10182,0.55108 c 0.606,0.30309 1.12727,0.55107 1.15837,0.55107 0.0311,0 0.58688,-0.21444 1.23505,-0.47654 0.64817,-0.26209 1.18887,-0.47654 1.20156,-0.47654 0.0127,0 0.41924,0.18957 0.90344,0.42126 l 0.88037,0.42126 -0.11687,0.0604 c -0.0643,0.0332 -0.79168,0.36834 -1.61644,0.74467 l -1.49958,0.68425 -0.26765,-0.12543 c -0.29624,-0.13882 -0.47483,-0.16631 -0.49323,-0.0759 -0.0172,0.0846 0.0453,0.13886 0.31493,0.27377 0.13622,0.0681 0.25127,0.12703 0.25566,0.13087 0.023,0.0201 0.71451,3.56263 0.71451,3.66053 0,0.025 -0.0128,0.0454 -0.0285,0.0454 -0.0157,0 -0.36504,-0.1674 -0.7763,-0.37199 z"
       id="path14"
       transform="scale(0.26458333)" /><path
       style="fill:#ffffff;stroke-width:0.0307445"
       d="m 229.96886,237.50647 -0.58414,-0.28667 -0.32995,-1.62707 c -0.37958,-1.87177 -0.40999,-2.03494 -0.38409,-2.06084 0.0172,-0.0172 1.14145,0.54604 1.19972,0.60106 0.0135,0.0127 0.17445,0.78272 0.35771,1.7111 0.38453,1.948 0.38477,1.94932 0.35066,1.94919 -0.0142,-6e-5 -0.28863,-0.12911 -0.60991,-0.28677 z"
       id="path15"
       transform="scale(0.26458333)" /><path
       style="fill:#ffffff;stroke-width:0.0307445"
       d="m 231.40939,238.19728 -0.48745,-0.24169 -0.3472,-1.73364 c -0.19096,-0.9535 -0.35378,-1.76477 -0.36183,-1.80282 -0.0113,-0.0534 -7.4e-4,-0.0692 0.0465,-0.0692 0.0976,0 0.78752,0.36385 0.92378,0.48716 0.12108,0.10957 0.12638,0.12301 0.21415,0.54278 0.13584,0.64962 0.58532,2.96506 0.58532,3.01518 0,0.0241 -0.0193,0.0439 -0.0429,0.0439 -0.0236,0 -0.26225,-0.10876 -0.53034,-0.24169 z"
       id="path16"
       transform="scale(0.26458333)" /><path
       style="fill:#ffffff;stroke-width:0.0307445"
       d="m 232.96645,238.96074 -0.63026,-0.30411 -0.25082,-1.20794 c -0.3861,-1.85938 -0.48666,-2.38688 -0.46011,-2.41337 0.0134,-0.0134 0.10279,0.0178 0.19858,0.0694 0.0958,0.0515 0.37844,0.20302 0.6281,0.33661 0.42348,0.2266 0.45584,0.25023 0.48219,0.35208 0.0671,0.25937 0.68094,3.39068 0.67222,3.42907 -0.007,0.0301 -0.19229,-0.0457 -0.6399,-0.26171 z"
       id="path17"
       transform="scale(0.26458333)" /><path
       style="fill:#ffffff;stroke-width:0.0307445"
       d="m 234.62741,239.77316 c -0.36268,-0.17695 -0.66777,-0.33521 -0.67796,-0.3517 -0.0354,-0.0573 -0.71971,-3.53112 -0.69954,-3.55128 0.0239,-0.0239 1.15608,0.55323 1.26644,0.64557 0.0662,0.0554 0.0964,0.16169 0.24449,0.86254 0.2248,1.06359 0.54758,2.695 0.53559,2.707 -0.005,0.005 -0.30633,-0.13519 -0.66902,-0.31213 z"
       id="path18"
       transform="scale(0.26458333)" /><path
       style="fill:#ffffff;stroke-width:0.0307445"
       d="m 236.14198,240.51286 c -0.22974,-0.11366 -0.43591,-0.23751 -0.47735,-0.28677 -0.0625,-0.0743 -0.12018,-0.32443 -0.40383,-1.75252 -0.18198,-0.9162 -0.32647,-1.6856 -0.3211,-1.70979 0.007,-0.0322 0.17011,0.0337 0.60929,0.24649 0.32974,0.15975 0.62831,0.29062 0.6635,0.29081 0.0747,4.1e-4 0.1633,-0.13823 0.11755,-0.18398 -0.0161,-0.0161 -0.27694,-0.15784 -0.57954,-0.31487 -0.30261,-0.15704 -0.55522,-0.30061 -0.56137,-0.31905 -0.0168,-0.0503 3.26782,-1.57982 3.39259,-1.57982 0.0563,0 0.66406,0.31105 0.77913,0.39874 0.042,0.032 0.0697,0.0639 0.0615,0.0708 -0.0255,0.0214 -1.55178,1.12481 -2.17472,1.57209 l -0.59183,0.42495 1.5e-4,0.38849 c 2.5e-4,0.66479 -0.0672,2.8768 -0.0889,2.91666 -0.0147,0.027 -0.13623,-0.0193 -0.42505,-0.16221 z"
       id="path19"
       transform="scale(0.26458333)" /><path
       style="fill:#ffffff;stroke-width:0.0307445"
       d="m 232.46543,235.12866 c -0.35009,-0.1763 -0.63652,-0.33171 -0.63652,-0.34535 0,-0.0136 0.74708,-0.36571 1.66017,-0.78237 l 1.66018,-0.75756 0.63029,0.30942 c 0.34666,0.17019 0.63029,0.31993 0.63029,0.33276 0,0.0388 -2.17866,1.07186 -3.18348,1.50946 l -0.1244,0.0542 z"
       id="path20"
       transform="scale(0.26458333)" /><path
       style="fill:#ffffff;stroke-width:0.0307445"
       d="m 230.99422,234.3879 c -0.2477,-0.13078 -0.48133,-0.25918 -0.51917,-0.28533 -0.0661,-0.0457 -0.0293,-0.0657 0.94229,-0.5129 0.5561,-0.25594 1.29351,-0.59191 1.63869,-0.74659 l 0.62761,-0.28125 0.18712,0.0808 c 0.31559,0.13622 0.86353,0.42969 0.863,0.46221 -4e-4,0.024 -3.21147,1.51454 -3.27379,1.51962 -0.008,7e-4 -0.21804,-0.10574 -0.46575,-0.23652 z"
       id="path21"
       transform="scale(0.26458333)" /><path
       style="fill:#ffffff;stroke-width:0.0307445"
       d="m 229.43852,233.58764 c -0.32551,-0.16369 -0.59183,-0.30549 -0.59183,-0.3151 0,-0.01 0.14181,-0.0812 0.31513,-0.15913 0.17332,-0.0779 0.89303,-0.40571 1.59936,-0.72845 0.70632,-0.32274 1.29773,-0.5868 1.31423,-0.5868 0.0165,0 0.31602,0.13781 0.66557,0.30623 0.56383,0.27168 0.62715,0.3095 0.56117,0.33519 -0.0409,0.0159 -0.77948,0.34851 -1.64129,0.73908 -0.86181,0.39057 -1.58123,0.70934 -1.59872,0.70837 -0.0175,-9.6e-4 -0.29811,-0.13569 -0.62362,-0.29939 z"
       id="path22"
       transform="scale(0.26458333)" /><path
       style="fill:#ffffff;stroke-width:0.0307445"
       d="m 234.48412,236.15229 c -0.29273,-0.12485 -0.84783,-0.40771 -0.97561,-0.49714 -0.0524,-0.0367 -0.0388,-0.0496 0.15372,-0.14655 0.26779,-0.13484 1.26694,-0.59745 2.31718,-1.07288 0.79085,-0.358 0.81789,-0.36769 0.92234,-0.3306 0.0592,0.021 0.38647,0.17021 0.7273,0.33155 l 0.61969,0.29335 -0.15853,0.074 c -0.52091,0.24333 -3.18192,1.44715 -3.23297,1.46257 -0.038,0.0115 -0.18061,-0.0322 -0.37312,-0.11434 z"
       id="path23"
       transform="scale(0.26458333)" /><path
       style="fill:#ffffff;stroke-width:0.162741"
       d="m 223.88427,217.44993 0.0478,-0.97693 4.58595,-2.36533 4.58595,-2.36532 -0.2474,-0.57756 c -0.13607,-0.31765 -0.28315,-0.66374 -0.32684,-0.76908 -0.0508,-0.12251 0.17442,-0.2253 0.62506,-0.28525 0.69963,-0.0931 5.87298,-0.38084 5.95513,-0.33125 0.091,0.0549 -4.07956,5.12067 -4.21576,5.12067 -0.0792,0 -0.30414,-0.32955 -0.49982,-0.73233 -0.19569,-0.40279 -0.43275,-0.72933 -0.5268,-0.72565 -0.0941,0.004 -2.38949,1.1268 -5.10099,2.49582 l -4.93,2.48914 z"
       id="path24"
       transform="scale(0.26458333)" /><path
       style="fill:#ffffff;stroke-width:0.162741"
       d="m 207.0883,254.26174 c -12.10653,-0.9847 -22.3823,-8.11874 -28.25158,-19.61388 -1.16476,-2.28122 -1.72783,-3.91113 -2.04469,-5.91882 -0.33535,-2.12473 -0.28357,-14.91807 0.0703,-17.36316 0.30136,-2.08241 0.42397,-2.38437 1.11287,-2.74062 0.72291,-0.37383 5.55454,-1.57175 9.75832,-2.41941 15.97495,-3.22123 24.58002,-3.49309 38.72103,-1.22331 4.06541,0.65255 10.45702,1.87054 12.44365,2.37129 3.47882,0.87685 4.73433,1.96279 5.37873,4.65227 0.63397,2.64594 0.63176,10.68287 -0.004,14.36705 -1.06956,6.19848 -3.67576,11.22424 -8.48397,16.36038 -2.31479,2.47267 -5.07556,5.06304 -6.60359,6.19601 -3.64195,2.70033 -10.57558,4.88441 -16.99758,5.35419 -2.36414,0.17294 -2.72197,0.1714 -5.09951,-0.022 z m 9.79052,-10.64476 c 2.70597,-0.70119 5.1639,-2.55982 6.62282,-5.00803 0.6905,-1.15871 1.44828,-3.33012 1.58658,-4.54628 0.0585,-0.51467 0.13108,-0.93576 0.16124,-0.93576 0.0301,0 0.30398,0.11881 0.6085,0.26403 0.47241,0.22528 0.58151,0.38842 0.74334,1.11153 0.50621,2.26198 -0.0618,1.79038 5.32368,4.42038 2.63666,1.28762 4.86453,2.34112 4.95082,2.34112 0.0911,0 0.1592,-0.768 0.16239,-1.83083 l 0.005,-1.83084 1.54055,-1.1079 c 0.84731,-0.60933 1.54056,-1.16038 1.54056,-1.22454 0,-0.0642 -2.28455,-1.20075 -5.07677,-2.52576 l -5.07677,-2.40911 -1.22946,0.48123 -1.22946,0.48124 -1.09554,-0.5505 c -0.78082,-0.39236 -1.11489,-0.65553 -1.16291,-0.91612 -0.66834,-3.62694 -1.87409,-5.878 -4.13524,-7.72023 l -0.86049,-0.70107 h 1.79626 1.79625 v -1.22004 -1.22003 l 4.88119,-2.44165 c 2.68465,-1.3429 4.91765,-2.44164 4.96221,-2.44164 0.0446,0 0.30835,0.40278 0.58618,0.89508 0.27784,0.49229 0.56538,0.85785 0.63899,0.81236 0.22143,-0.13685 5.2578,-6.43015 5.18841,-6.48328 -0.0877,-0.0672 -8.33071,0.37562 -8.40667,0.45158 -0.0333,0.0333 0.12714,0.43113 0.35661,0.88398 l 0.41723,0.82336 -0.69108,0.39205 c -0.3801,0.21562 -2.27877,1.2002 -4.21927,2.18796 -2.76207,1.40595 -3.54834,1.7434 -3.621,1.55407 -0.051,-0.13302 -0.0928,-2.03009 -0.0928,-4.2157 v -3.97386 h -5.12636 c -4.44826,0 -5.12635,0.0323 -5.12635,0.24412 0,0.31077 0.034,0.31616 -1.00496,-0.15948 -2.04189,-0.93481 -5.58133,-1.15749 -7.78307,-0.48966 -3.5463,1.07566 -6.40949,4.00719 -7.57599,7.75681 l -0.2873,0.9235 -3.7039,-1.85329 c -2.03714,-1.01931 -3.74912,-1.92647 -3.8044,-2.0159 -0.0553,-0.0894 0.0901,-0.53881 0.32313,-0.99861 0.233,-0.45979 0.37966,-0.87996 0.32592,-0.9337 -0.11718,-0.11718 -7.09751,-0.54591 -7.86923,-0.48333 l -0.54033,0.0438 2.57459,3.16067 c 1.41603,1.73837 2.65103,3.1858 2.74445,3.21651 0.0934,0.0307 0.33047,-0.27478 0.52679,-0.67887 0.19632,-0.40408 0.4317,-0.7347 0.52306,-0.7347 0.26834,0 8.37045,4.08988 8.5016,4.29154 0.0658,0.10112 0.12069,0.60803 0.12206,1.12647 0.007,2.56168 1.10313,5.38902 2.76825,7.13889 0.53157,0.55862 0.95061,1.02834 0.9312,1.04383 -0.37508,0.29923 -1.25517,0.55776 -1.89873,0.55776 -0.76727,0 -0.82178,0.0269 -0.82178,0.40537 0,0.35048 -0.21997,0.51575 -1.62446,1.22056 -0.89345,0.44836 -1.73373,0.81519 -1.86729,0.81519 -0.13356,0 -0.80092,-0.22169 -1.48302,-0.49265 l -1.24019,-0.49266 -4.33794,2.3121 c -2.38586,1.27165 -4.5381,2.43286 -4.78275,2.58045 l -0.44481,0.26836 0.44481,0.40852 c 0.24465,0.22468 0.90029,0.75241 1.45699,1.17272 l 1.01217,0.7642 0.0457,1.94331 0.0456,1.9433 4.74791,-2.56985 c 2.61135,-1.41342 4.85815,-2.66134 4.99288,-2.77316 0.13474,-0.11182 0.37092,-0.73754 0.52485,-1.39049 l 0.27988,-1.18719 1.03655,-0.51114 c 0.5701,-0.28113 1.07178,-0.51115 1.11484,-0.51115 0.0431,0 0.0783,2.41671 0.0783,5.37047 v 5.37046 h 5.04498 c 4.8874,0 5.04498,-0.01 5.04498,-0.31625 0,-0.29843 0.0645,-0.28967 1.14401,0.1555 0.62921,0.25946 1.56294,0.54739 2.07495,0.63984 0.51202,0.0924 1.11402,0.20057 1.33779,0.24027 0.78079,0.13854 3.56449,-0.0554 4.5828,-0.31925 z"
       id="path25"
       transform="scale(0.26458333)" /><path
       style="fill:#ffffff;stroke-width:0.162741"
       d="m 145.32081,209.37829 c 0.40529,-0.65579 6.68911,-5.24055 12.07759,-8.81199 11.5882,-7.68056 20.06115,-11.77158 30.81191,-14.87703 7.38285,-2.13259 14.39316,-2.96545 23.58853,-2.80243 10.27751,0.18221 16.33121,1.3657 25.15249,4.91729 9.2401,3.72021 20.405,9.48845 27.33819,14.12402 3.70804,2.47922 9.57499,7.27579 8.89941,7.27579 -0.3123,0 -3.77758,-1.18662 -7.28916,-2.49604 -8.44456,-3.14886 -18.61995,-6.07969 -27.40409,-7.89322 -26.3281,-5.43558 -48.47002,-3.77724 -77.87002,5.83218 -1.87966,0.61437 -6.00663,1.96428 -9.17105,2.9998 -3.16441,1.03552 -5.86007,1.88276 -5.99035,1.88276 -0.13027,0 -0.19483,-0.068 -0.14345,-0.15113 z"
       id="path26"
       transform="scale(0.26458333)" /><path
       style="fill:#ffffff;stroke-width:0.162741"
       d="m 202.20606,269.17434 c -13.41322,-1.27583 -26.46674,-5.43594 -39.95299,-12.73286 -5.73478,-3.10288 -13.18481,-7.89647 -18.7673,-12.0755 -7.28654,-5.45467 -15.72707,-12.51951 -17.08615,-14.30135 l -0.42921,-0.56273 0.59379,-0.51329 c 1.78023,-1.53888 12.11204,-6.6596 21.69312,-10.75168 4.30303,-1.83782 12.67831,-5.02837 14.9722,-5.70363 1.95012,-0.57407 3.1955,-0.61136 3.69713,-0.1107 0.43824,0.43739 0.46849,1.35065 0.1608,4.85452 -0.59723,6.80116 1.80852,16.93601 5.58676,23.53567 2.52114,4.40382 6.75218,9.4157 10.52129,12.46301 4.84786,3.91946 12.24248,7.67693 16.89816,8.58656 1.11758,0.21835 2.8039,0.28464 8.86617,0.34855 7.62103,0.0803 10.4249,-0.0378 12.574,-0.52995 5.01483,-1.14832 13.94973,-6.34873 18.73436,-10.90401 6.0695,-5.77858 11.0234,-15.46603 12.71613,-24.86665 0.53624,-2.97802 0.71518,-5.98167 0.49314,-8.27743 -0.39157,-4.04862 -0.40873,-5.14658 -0.086,-5.50322 0.1602,-0.17702 0.44786,-0.32185 0.63925,-0.32185 1.64814,0 13.2005,4.46879 23.85003,9.22589 3.45725,1.54434 15.94864,7.73538 15.94864,7.90454 0,0.33681 -5.35534,5.45571 -8.05569,7.70002 -6.90544,5.73924 -14.11397,11.08069 -19.65535,14.56442 -15.93272,10.01652 -31.41211,15.86995 -46.90584,17.73714 -3.78093,0.45565 -13.30146,0.58694 -17.00647,0.23453 z"
       id="path27"
       transform="scale(0.26458333)" /><path
       style="fill:#ffffff;stroke-width:0.56579"
       d="m 79.319036,304.70743 -6.115228,-0.3125 12.966269,-22.6316 c 19.490663,-34.01941 27.131003,-46.96055 27.725103,-46.96055 0.29499,0 3.55967,2.72863 7.25484,6.06363 8.99742,8.12043 13.30933,11.52272 21.71191,17.13165 15.21899,10.15904 33.23818,18.30448 46.38654,20.96868 9.42282,1.90931 30.28075,1.92569 40.26616,0.0316 21.4737,-4.07319 48.17865,-19.11591 70.86821,-39.91959 4.05883,-3.72148 5.17268,-4.47775 5.71896,-3.88301 0.37312,0.40622 8.31876,13.97807 17.65697,30.15966 20.66873,35.8155 22.22171,38.5622 22.22171,39.30276 0,0.61541 -254.662181,0.66242 -266.661444,0.0492 z"
       id="path28"
       transform="scale(0.26458333)" /><path
       style="fill:#ffffff;stroke-width:0.56579"
       d="m 129.84877,206.86349 c 0,-1.14319 75.6638,-132.226558 79.50293,-137.734446 0.64431,-0.924369 0.96458,-0.579499 3.15263,3.394739 1.33951,2.432999 13.02914,22.755224 25.97696,45.160497 40.51499,70.10829 50.27719,87.09631 50.71945,88.26124 0.43004,1.1327 0.17916,0.95212 -11.39794,-8.20391 -15.11263,-11.95221 -33.58184,-21.08911 -49.23791,-24.35849 -11.79398,-2.46288 -26.36607,-2.44585 -37.83214,0.0442 -18.35928,3.98703 -36.96924,13.8644 -55.65043,29.53686 -2.87845,2.41486 -5.23355,4.16955 -5.23355,3.89931 z"
       id="path29"
       transform="scale(0.26458333)" /><path
       style="fill:#ffffff;stroke-width:0.56579"
       d="m 43.848711,327.84709 c -6.068095,-0.21297 -11.118465,-0.42107 -11.223044,-0.46244 -0.366047,-0.14483 -1.809783,2.36652 108.681403,-189.04904 64.99456,-112.596948 64.70844,-112.106638 66.61227,-114.150163 2.23099,-2.394686 2.91212,-1.794105 8.3441,7.357336 4.74171,7.988527 53.03497,91.513617 93.64189,161.957337 9.50717,16.49277 29.99195,52.01023 45.52172,78.92768 15.52977,26.91745 29.04679,50.3657 30.03782,52.10721 l 1.80187,3.16639 -7.20562,0.36751 c -9.50094,0.48456 -321.959106,0.27841 -336.212409,-0.22182 z m 282.188729,-11.09822 40.31358,-0.37546 -2.47718,-4.57477 C 362.51139,309.28252 347.27553,282.78175 330.01639,252.90805 297.23551,196.16791 250.14179,114.50033 227.89594,75.815837 211.98274,48.143536 210.57318,45.828976 209.63412,45.828976 c -0.40949,0 -4.04723,5.728622 -8.08387,12.730271 C 180.53524,95.010268 114.41765,209.51524 90.799281,250.362 c -36.40368,62.9583 -37.717088,65.28082 -37.176691,65.73988 0.844722,0.71759 211.19325,1.21717 272.41485,0.64699 z"
       id="path30"
       transform="scale(0.26458333)" /><path
       style="fill:#ffffff;stroke-width:0.56579"
       d="m 387.62414,252.28931 c -7.62781,-1.84568 -35.41195,-9.32126 -38.81471,-10.44344 -2.0227,-0.66706 -3.98441,-1.46422 -4.35936,-1.77147 -0.71734,-0.5878 -6.4764,-10.23347 -7.10596,-11.90153 -0.20176,-0.53461 -0.14158,-1.11124 0.13374,-1.2814 0.44108,-0.2726 17.45642,-3.08527 44.71318,-7.39116 4.82336,-0.76197 9.63727,-1.38606 10.69758,-1.38687 l 1.92784,-0.001 -0.36982,10.04277 c -0.55233,14.99943 -1.69221,25.07051 -2.82835,24.98906 -0.36163,-0.0259 -2.159,-0.41045 -3.99414,-0.8545 z"
       id="path31"
       transform="scale(0.26458333)" /><path
       style="fill:#ffffff;stroke-width:0.56579"
       d="m 376.81602,214.33477 c -40.78157,-2.02433 -47.27221,-2.53026 -49.27212,-3.84064 -1.58651,-1.03953 -3.9324,-5.33807 -3.25072,-5.95655 0.82108,-0.74497 53.29538,-21.05045 60.65169,-23.4698 3.61618,-1.1893 3.60275,-1.20164 4.90704,4.51128 1.06376,4.65938 3.40696,19.85402 3.90452,25.3191 l 0.3477,3.81908 -6.94668,-0.10698 c -3.82068,-0.0588 -8.47432,-0.18281 -10.34143,-0.27549 z"
       id="path32"
       transform="scale(0.26458333)" /><path
       style="fill:#ffffff;stroke-width:0.56579"
       d="m 313.20043,186.47797 -1.17288,-1.64715 2.69027,-1.94894 c 6.21718,-4.50397 51.9072,-34.36254 56.85483,-37.1548 l 3.03618,-1.71351 1.76223,2.96036 c 3.44278,5.78351 11.63162,28.78182 10.60834,29.79345 -0.65539,0.64792 -67.81857,11.35774 -71.22643,11.35774 -0.87784,0 -1.80628,-0.59912 -2.55254,-1.64715 z"
       id="path33"
       transform="scale(0.26458333)" /><path
       style="fill:#ffffff;stroke-width:0.56579"
       d="m 301.6509,166.9582 c -0.7743,-1.18173 -0.74769,-1.47459 0.29276,-3.22111 0.62948,-1.05666 12.56937,-13.36978 26.5331,-27.36249 l 25.38859,-25.44129 2.63155,3.37549 c 4.9532,6.35344 16.64149,24.79022 16.64149,26.24981 0,0.23337 -0.64641,0.71884 -1.43648,1.07882 -2.43878,1.11118 -28.44767,11.14858 -48.07013,18.55132 -10.26909,3.87409 -19.22413,7.27456 -19.9001,7.55659 -0.9852,0.41105 -1.39802,0.25489 -2.08078,-0.78714 z"
       id="path34"
       transform="scale(0.26458333)" /><path
       style="fill:#ffffff;stroke-width:0.56579"
       d="m 289.63944,145.72444 -1.47547,-2.22959 6.9309,-10.92502 c 8.26337,-13.02535 29.30506,-44.737632 31.26599,-47.121505 l 1.38466,-1.683308 11.66353,11.632219 c 7.91727,7.896014 11.66354,12.021134 11.66354,12.843064 0,1.41106 0.39511,1.13757 -34.35603,23.78003 -13.45008,8.76354 -24.71276,15.93371 -25.02817,15.93371 -0.31541,0 -1.23743,-1.00332 -2.04895,-2.2296 z"
       id="path35"
       transform="scale(0.26458333)" /><path
       style="fill:#ffffff;stroke-width:0.56579"
       d="m 277.98499,125.46389 c -1.39438,-1.63994 -4.42561,-6.89662 -4.42561,-7.6748 0,-0.66053 13.86585,-36.869894 18.94381,-49.469969 1.16004,-2.878455 2.36348,-5.233555 2.67429,-5.233555 1.87294,0 25.51245,14.734473 27.51957,17.152911 0.44833,0.540202 0.5908,1.416156 0.35754,2.198239 -0.39923,1.338562 -42.7785,44.017314 -43.70844,44.017314 -0.2856,0 -0.89812,-0.44556 -1.36116,-0.99014 z"
       id="path36"
       transform="scale(0.26458333)" /><path
       style="fill:#ffffff;stroke-width:0.56579"
       d="m 263.89073,100.83426 c -0.4944,-0.69039 -3.09477,-4.974696 -5.7786,-9.520685 l -4.87969,-8.265434 2.68765,-17.027407 c 1.47821,-9.365073 2.87501,-17.214767 3.10401,-17.443763 0.54912,-0.549124 6.43061,1.347432 18.21291,5.872976 11.77668,4.523381 15.1761,6.172864 14.63207,7.09984 -1.15313,1.964841 -21.65298,33.482329 -23.89555,36.738225 -1.43996,2.090608 -2.7454,3.801198 -2.901,3.801298 -0.15559,1.1e-4 -0.6874,-0.56467 -1.1818,-1.25505 z"
       id="path37"
       transform="scale(0.26458333)" /><path
       style="fill:#ffffff;stroke-width:0.56579"
       d="m 244.57717,67.773575 c -1.10558,-1.800444 -4.83938,-8.193037 -8.29735,-14.205761 l -6.28721,-10.932226 3.25377,0.362555 c 10.29885,1.147561 21.49234,3.762928 22.02296,5.145679 0.27913,0.727415 -7.33754,21.558789 -8.19683,22.418078 -0.26976,0.269754 -1.37781,-0.968394 -2.49534,-2.788325 z"
       id="path38"
       transform="scale(0.26458333)" /><path
       style="fill:#ffffff;stroke-width:0.56579"
       d="m 161.85949,86.707291 c -1.21953,-1.86784 -12.3901,-24.915056 -14.40682,-29.72427 l -1.72865,-4.12228 1.53935,-0.585859 c 6.43924,-2.450696 26.84728,-7.860381 29.6533,-7.860381 2.16569,0 2.61604,1.182733 3.05896,8.033709 l 0.38346,5.93106 -2.41938,4.191965 c -7.78698,13.492186 -14.8347,25.409083 -15.02708,25.409083 -0.12208,0 -0.596,-0.572862 -1.05314,-1.273027 z"
       id="path39"
       transform="scale(0.26458333)" /><path
       style="fill:#ffffff;stroke-width:0.56579"
       d="m 183.67804,49.425567 c -1.1535,-3.020688 -1.40116,-5.674702 -0.57817,-6.195938 0.84036,-0.532245 5.59104,-0.711355 5.59104,-0.210793 0,0.505391 -2.68291,5.564963 -3.59024,6.770669 -0.83648,1.111555 -0.86165,1.105115 -1.42263,-0.363938 z"
       id="path40"
       transform="scale(0.26458333)" /><path
       style="fill:#ffffff;stroke-width:0.56579"
       d="M 143.92336,111.65173 C 142.20487,109.6795 134.70694,100.60086 127.2613,91.476973 119.81565,82.353087 112.98207,73.993782 112.07556,72.90074 l -1.6482,-1.987349 1.6482,-1.321571 c 3.80687,-3.052461 29.34517,-15.965211 29.86466,-15.100256 0.45846,0.763354 6.63322,22.913699 9.66364,34.665806 l 3.08019,11.9451 -1.04015,2.63887 c -1.00086,2.5392 -4.20485,8.29668 -5.81892,10.45644 -0.723,0.96742 -0.99463,0.79016 -3.90162,-2.54605 z"
       id="path41"
       transform="scale(0.26458333)" /><path
       style="fill:#ffffff;stroke-width:0.56579"
       d="M 107.775,117.0515 C 93.309304,105.37117 81.274434,95.622047 81.030844,95.386778 80.787255,95.151509 80.743256,94.554306 80.933069,94.059662 81.496494,92.5914 97.157275,79.656365 106.18187,73.205391 l 1.51076,-1.07992 1.67944,2.976762 c 2.19207,3.885403 16.54812,31.666167 23.53246,45.538297 l 5.47652,10.87731 -2.15239,3.38531 -2.1524,3.3853 z"
       id="path42"
       transform="scale(0.26458333)" /><path
       style="fill:#ffffff;stroke-width:0.56579"
       d="M 114.57244,154.20342 C 101.59353,148.191 58.450765,125.95851 56.968587,124.5188 c -0.608906,-0.59146 -0.263868,-1.42116 1.923885,-4.6263 3.806499,-5.57666 12.615526,-16.402 16.190646,-19.896554 l 3.046458,-2.977802 4.269959,4.958066 c 8.207208,9.52981 37.935935,46.32779 41.030355,50.78704 0.93089,1.34148 1.05671,1.96429 0.60006,2.9704 -0.8583,1.89104 -2.72355,1.58925 -9.45751,-1.53023 z"
       id="path43"
       transform="scale(0.26458333)" /><path
       style="fill:#ffffff;stroke-width:0.56579"
       d="m 82.32242,170.64764 c -26.724286,-7.18242 -43.016163,-11.77113 -43.495949,-12.25092 -1.229607,-1.22961 8.213463,-21.06461 13.664496,-28.70204 l 1.927158,-2.70013 15.225175,12.25976 c 8.373846,6.74287 21.399355,17.21372 28.945577,23.26856 7.975813,6.39953 13.717163,11.39884 13.712683,11.94039 -0.0183,2.21114 -0.71587,3.47689 -1.89708,3.44247 -0.66387,-0.0193 -13.300801,-3.28548 -28.08206,-7.25809 z"
       id="path44"
       transform="scale(0.26458333)" /><path
       style="fill:#ffffff;stroke-width:0.56579"
       d="M 64.217145,198.04298 C 51.302992,197.3152 37.787809,196.54261 34.183404,196.32612 l -6.553464,-0.39362 0.490842,-3.19646 c 1.280091,-8.33618 7.92849,-31.20304 9.072091,-31.20304 0.521394,0 56.82234,28.59773 61.998989,31.49201 1.622478,0.90714 1.819878,1.25805 1.536148,2.73069 -0.56501,2.9325 -1.465628,3.35036 -7.514351,3.48643 -3.033929,0.0682 -16.082361,-0.47137 -28.996514,-1.19915 z"
       id="path45"
       transform="scale(0.26458333)" /><path
       style="fill:#ffffff;stroke-width:0.56579"
       d="m 25.015351,229.28633 c 0.620879,-17.45091 1.394485,-27.93443 2.14599,-29.08137 0.94953,-1.44917 -0.244557,-1.65882 18.101845,3.17823 22.094789,5.82532 42.559531,11.45276 43.289298,11.90378 0.515372,0.31852 0.23353,1.29144 -1.086113,3.74928 -2.995885,5.57986 -3.246586,5.78381 -8.262536,6.72173 -3.26018,0.60961 -53.791307,8.7619 -54.309748,8.7619 -0.03572,0 0.01885,-2.3551 0.121264,-5.23355 z"
       id="path46"
       transform="scale(0.26458333)" /><path
       style="fill:#ffffff;stroke-width:0.56579"
       d="m 30.323956,269.7403 c -2.034046,-7.77309 -5.671014,-31.48957 -4.940945,-32.21964 0.553468,-0.55347 48.885734,1.77012 49.495107,2.37949 0.233761,0.23376 -3.422093,7.15762 -6.960718,13.18298 -3.710568,6.31813 -4.668767,7.0831 -12.920425,10.31489 -8.417286,3.29667 -22.829176,8.46399 -23.606424,8.46399 -0.281264,0 -0.761232,-0.95477 -1.066595,-2.12171 z"
       id="path47"
       transform="scale(0.26458333)" /><path
       style="fill:#ffffff;stroke-width:0.56579"
       d="m 39.043301,296.09797 c -2.093995,-4.66604 -4.591073,-11.56779 -5.918911,-16.35945 -1.074911,-3.87895 -1.07467,-3.92037 0.02622,-4.50955 1.221706,-0.65383 20.19914,-3.92994 22.774902,-3.93167 l 1.609684,-0.001 -1.547718,2.6875 c -3.946304,6.85248 -15.101778,25.60199 -15.232518,25.60199 -0.08055,0 -0.850793,-1.56948 -1.711655,-3.48774 z"
       id="path48"
       transform="scale(0.26458333)" /><path
       style="fill:#ffffff;stroke-width:0.56579"
       d="m 376.33691,296.14767 c -1.19707,-2.19795 -2.03828,-4.13448 -1.86936,-4.3034 0.47499,-0.47499 5.89882,0.96554 6.53878,1.73665 0.3945,0.47534 0.15107,1.58673 -0.79463,3.62792 -0.74984,1.61847 -1.43872,2.94096 -1.53083,2.93888 -0.0921,-0.002 -1.1469,-1.80211 -2.34396,-4.00005 z"
       id="path49"
       transform="scale(0.26458333)" /><path
       style="fill:#ffffff;stroke-width:0.56579"
       d="m 380.77655,289.55323 c -0.62237,-0.15554 -3.43601,-1.35798 -6.25254,-2.67208 l -5.12096,-2.38929 -7.99981,-14.09453 c -4.3999,-7.752 -8.16958,-14.5401 -8.37708,-15.08467 -0.46449,-1.21905 1.32904,-1.26621 15.00904,-0.39466 17.44622,1.11149 22.11248,1.55867 22.87594,2.19228 0.63362,0.52586 0.63922,1.27375 0.0332,4.43878 -2.11432,11.04303 -7.48246,28.57449 -8.68158,28.35259 -0.19507,-0.0361 -0.86388,-0.19289 -1.48625,-0.34842 z"
       id="path50"
       transform="scale(0.26458333)" /><path
       style="fill:#ffffff;stroke-width:0.56579"
       d="m 333.2816,345.79022 c -4.33932,-5.39309 -7.98867,-10.10261 -8.10966,-10.46558 -0.16422,-0.49266 3.95123,-0.65996 16.23507,-0.65996 13.12976,0 16.45505,0.14873 16.45505,0.736 0,0.84363 -9.1768,12.25837 -13.67381,17.00842 l -3.01699,3.18675 z"
       id="path51"
       transform="scale(0.26458333)" /><path
       style="fill:#ffffff;stroke-width:0.56579"
       d="m 307.48005,371.85408 c -4.82705,-8.69361 -18.64434,-35.85444 -18.64434,-36.64942 0,-0.61694 11.42721,-0.72273 18.50986,-0.17136 l 4.64802,0.36185 8.57888,7.00566 c 15.23038,12.43738 18.03171,15.00915 17.47731,16.04505 -1.05572,1.97263 -19.76577,17.15741 -24.23706,19.67042 l -2.17645,1.22324 z"
       id="path52"
       transform="scale(0.26458333)" /><path
       style="fill:#ffffff;stroke-width:0.56579"
       d="m 276.73661,395.06275 c -2.7556,-7.55636 -16.38032,-59.06723 -15.85025,-59.9249 0.34171,-0.55291 5.11874,-0.55675 8.55898,-0.007 2.32159,0.37107 2.73179,0.80191 13.8311,14.52715 16.52993,20.44068 24.7854,31.02414 24.79111,31.78207 0.003,0.365 -1.45897,1.59222 -3.24828,2.72717 -3.91844,2.48544 -25.448,13.3 -26.47756,13.3 -0.40051,0 -1.12281,-1.08207 -1.6051,-2.4046 z"
       id="path53"
       transform="scale(0.26458333)" /><path
       style="fill:#ffffff;stroke-width:0.56579"
       d="m 240.17778,407.71151 c 0,-0.27821 -0.24545,-3.01521 -0.54545,-6.08224 -1.07024,-10.9416 -3.58995,-65.65812 -3.06284,-66.511 0.15418,-0.24947 0.98149,-0.45359 1.83846,-0.45359 1.96444,0 3.75498,1.89127 6.69571,7.07237 7.43047,13.09134 29.25598,56.85663 28.64967,57.44935 -0.71656,0.70051 -12.88717,4.29126 -23.06656,6.80542 -9.57037,2.36376 -10.50899,2.51735 -10.50899,1.71969 z"
       id="path54"
       transform="scale(0.26458333)" /><path
       style="fill:#ffffff;stroke-width:0.56579"
       d="m 201.33594,409.58103 c 0.28242,-0.92092 3.09341,-18.52586 10.34982,-64.81985 l 1.47705,-9.42325 1.67258,-0.24549 c 2.87568,-0.42206 2.42409,-1.72161 12.23777,35.217 7.51504,28.28655 9.68418,37.55643 8.95806,38.28255 -0.71283,0.71282 -7.45223,1.23256 -21.52232,1.65977 -13.12896,0.39864 -13.49519,0.37999 -13.17296,-0.67073 z"
       id="path55"
       transform="scale(0.26458333)" /><path
       style="fill:#ffffff;stroke-width:0.56579"
       d="m 184.73038,409.0251 c -10.54811,-1.61355 -16.581,-2.90194 -19.00829,-4.05944 l -1.80313,-0.85985 1.56292,-4.59226 c 1.47901,-4.34571 15.54644,-41.4934 21.6115,-57.06926 l 2.80898,-7.21382 h 1.95433 c 3.27309,0 3.16285,-0.8212 5.01287,37.34213 0.77689,16.026 1.55118,30.53851 1.72065,32.25002 0.39142,3.95298 -0.62379,5.68478 -3.28336,5.60095 -0.9937,-0.0313 -5.75311,-0.66063 -10.57647,-1.39847 z"
       id="path56"
       transform="scale(0.26458333)" /><path
       style="fill:#ffffff;stroke-width:0.56579"
       d="m 151.00423,401.18957 c -11.38066,-3.86665 -23.16362,-9.23371 -23.0805,-10.51302 0.0558,-0.85925 12.32097,-20.04264 27.1822,-42.51452 6.68602,-10.11002 8.4117,-12.35521 9.89334,-12.87172 2.17435,-0.75798 5.40039,-0.81849 5.83856,-0.10951 0.45607,0.73794 -7.20573,52.63813 -9.48743,64.26682 -0.65354,3.33076 -0.70341,3.39747 -2.64635,3.53996 -1.12408,0.0824 -4.45317,-0.69495 -7.69982,-1.79801 z"
       id="path57"
       transform="scale(0.26458333)" /><path
       style="fill:#ffffff;stroke-width:0.56579"
       d="m 119.94744,386.94736 c -10.27523,-5.26046 -24.611854,-15.00751 -24.611854,-16.73287 0,-0.29894 7.679294,-8.29263 17.065104,-17.76377 l 17.06511,-17.22025 h 7.82965 c 5.9962,0 7.82964,0.17008 7.82964,0.72632 0,2.05574 -20.0397,53.02694 -20.84557,53.02095 -0.20435,-0.002 -2.15379,-0.91519 -4.33208,-2.03038 z"
       id="path58"
       transform="scale(0.26458333)" /><path
       style="fill:#ffffff;stroke-width:0.56579"
       d="m 81.406285,358.34044 c -10.151917,-10.03581 -14.406609,-15.0044 -13.416012,-15.6671 0.304599,-0.20377 2.947669,-1.89355 5.873487,-3.75506 6.422625,-4.0863 6.935521,-4.1672 26.74368,-4.21862 l 13.47581,-0.035 -1.79382,3.25329 c -2.85953,5.18607 -19.425832,29.76597 -20.227798,30.01257 -0.400345,0.1231 -5.195251,-4.19245 -10.655347,-9.5901 z"
       id="path59"
       transform="scale(0.26458333)" /><path
       style="fill:#ffffff;stroke-width:0.56579"
       d="m 63.864579,339.04955 c -2.570975,-2.93376 -2.749075,-3.29995 -1.874212,-3.85354 0.446767,-0.2827 2.849147,-0.51241 5.338622,-0.51046 l 4.526319,0.004 -2.928332,2.81675 c -1.610583,1.54921 -3.157485,2.81674 -3.437562,2.81674 -0.280076,0 -1.011252,-0.57286 -1.624835,-1.27303 z"
       id="path60"
       transform="scale(0.26458333)" /></g></svg>
